<svg width="256" height="256" viewBox="0 0 256 256" fill="none" xmlns="http://www.w3.org/2000/svg">
<path d="M48.6383 37.225C44.4354 27.4116 51.4402 19 58.445 19H195.74C206.947 19 209.749 30.2154 205.546 37.225L180.329 80.6847C176.126 89.0963 166.319 89.0963 162.117 80.6847L138.3 38.627C131.295 27.4116 122.889 27.4116 115.884 38.627L93.4689 79.2828C90.667 86.2924 94.8699 94.704 103.276 94.704H240.57C250.377 94.704 254.58 105.919 250.377 111.527C250.377 111.527 187.334 220.878 181.73 230.691C176.126 239.103 164.919 239.103 159.315 230.691L135.498 188.633C129.894 180.221 136.899 169.006 145.305 169.006H197.141C204.145 169.006 209.749 160.594 205.546 153.585L183.131 114.331C177.527 104.517 167.72 103.116 162.117 114.331C162.117 114.331 99.0727 222.28 94.8699 230.691C90.667 239.103 80.8602 239.103 75.2564 230.691C69.6525 222.28 6.60942 112.929 6.60942 112.929C-0.3954 103.116 8.01038 94.704 16.4161 94.704H64.0487C75.2564 94.704 79.4593 104.517 73.8554 112.929L50.0393 156.389C45.8364 161.996 51.4402 170.408 59.846 170.408H110.28C117.285 170.408 122.889 163.398 118.686 154.987L48.6383 37.225Z" fill="#E60011"/>
</svg>
