<svg width="256" height="256" viewBox="0 0 256 256" fill="none" xmlns="http://www.w3.org/2000/svg">
<g clip-path="url(#clip0_6_13)">
<path d="M251.815 106.523C255.18 125.803 202.693 151.052 134.571 162.917C66.4565 174.781 8.51112 168.761 5.1522 149.473C1.796 130.19 54.296 104.95 122.41 93.0875C190.527 81.2174 248.462 87.2379 251.815 106.523Z" fill="#034EA2"/>
<path d="M187.706 135.144L187.356 115.097H193.677V140.365H184.588L178.28 119.628H178.145L178.495 140.365H172.214V115.097H181.696L187.565 135.144H187.706Z" fill="white"/>
<path d="M72.7945 117.463L69.2973 140.631H62.4031L67.1376 115.097H78.4949L83.2077 140.631H76.3407L72.9384 117.463H72.7945Z" fill="white"/>
<path d="M99.2643 140.631L94.9938 117.674H94.8554L94.6953 140.631H88.3004L88.8647 115.097H99.2833L102.436 134.615H102.572L105.727 115.097H116.14L116.694 140.631H110.312L110.144 117.674H110.011L105.743 140.631H99.2643Z" fill="white"/>
<path d="M51.6508 133.427C51.9004 134.046 51.8244 134.841 51.7077 135.321C51.4934 136.17 50.9182 137.036 49.2197 137.036C47.619 137.036 46.6477 136.119 46.6477 134.716V132.244H39.7996L39.7942 134.222C39.7942 139.914 44.2763 141.632 49.0787 141.632C53.6965 141.632 57.5004 140.053 58.1054 135.798C58.4147 133.593 58.1841 132.149 58.0783 131.604C57.0011 126.259 47.3097 124.663 46.588 121.674C46.4659 121.161 46.5011 120.618 46.5608 120.328C46.7372 119.514 47.2961 118.616 48.8942 118.616C50.3864 118.616 51.2682 119.538 51.2682 120.933C51.2682 121.402 51.2682 122.509 51.2682 122.509H57.636V120.716C57.636 115.154 52.6438 114.286 49.0271 114.286C44.4852 114.286 40.7736 115.786 40.0953 119.943C39.9108 121.09 39.8837 122.113 40.1523 123.394C41.2674 128.611 50.3376 130.122 51.6508 133.427Z" fill="white"/>
<path d="M134.679 133.381C134.932 133.994 134.85 134.767 134.736 135.248C134.527 136.094 133.958 136.946 132.27 136.946C130.691 136.946 129.728 136.029 129.728 134.659L129.722 132.209H122.945L122.937 134.16C122.937 139.795 127.378 141.496 132.132 141.496C136.701 141.496 140.469 139.939 141.064 135.722C141.373 133.533 141.153 132.108 141.042 131.574C139.97 126.278 130.376 124.699 129.663 121.739C129.541 121.229 129.576 120.691 129.638 120.417C129.82 119.598 130.368 118.722 131.95 118.722C133.429 118.722 134.291 119.622 134.291 121.006C134.291 121.47 134.291 122.566 134.291 122.566H140.61V120.792C140.61 115.289 135.659 114.427 132.077 114.427C127.587 114.427 123.905 115.908 123.241 120.035C123.056 121.166 123.037 122.17 123.3 123.445C124.399 128.608 133.38 130.109 134.679 133.381Z" fill="white"/>
<path d="M156.127 136.81C157.899 136.81 158.452 135.584 158.574 134.957C158.626 134.681 158.639 134.312 158.634 133.981V115.086H165.091V133.403C165.105 133.872 165.059 134.838 165.037 135.079C164.584 139.846 160.815 141.393 156.124 141.393C151.428 141.393 147.657 139.846 147.209 135.079C147.187 134.838 147.141 133.872 147.155 133.403V115.086H153.607V133.981C153.607 134.312 153.617 134.683 153.666 134.957C153.805 135.584 154.342 136.81 156.127 136.81Z" fill="white"/>
<path d="M209.392 136.542C211.243 136.542 211.888 135.372 212.008 134.691C212.054 134.398 212.067 134.043 212.065 133.72V130.014H209.444V126.286H218.498V133.139C218.492 133.617 218.481 133.97 218.405 134.822C217.979 139.467 213.95 141.124 209.425 141.124C204.891 141.124 200.867 139.467 200.436 134.822C200.363 133.97 200.352 133.617 200.344 133.139L200.349 122.387C200.349 121.934 200.406 121.131 200.455 120.705C201.022 115.933 204.891 114.397 209.425 114.397C213.953 114.397 217.917 115.924 218.386 120.705C218.471 121.519 218.443 122.387 218.443 122.387V123.239H212.005V121.809C212.01 121.812 211.997 121.202 211.921 120.838C211.812 120.274 211.321 118.977 209.376 118.977C207.515 118.977 206.969 120.203 206.834 120.838C206.755 121.174 206.725 121.63 206.725 122.043V133.72C206.72 134.043 206.739 134.398 206.79 134.691C206.902 135.375 207.545 136.542 209.392 136.542Z" fill="white"/>
</g>
<defs>
<clipPath id="clip0_6_13">
<rect width="246.969" height="82" fill="white" transform="translate(5 87)"/>
</clipPath>
</defs>
</svg>
