<?xml version="1.0" encoding="UTF-8" standalone="no"?>
<svg
   xmlns:dc="http://purl.org/dc/elements/1.1/"
   xmlns:cc="http://creativecommons.org/ns#"
   xmlns:rdf="http://www.w3.org/1999/02/22-rdf-syntax-ns#"
   xmlns:svg="http://www.w3.org/2000/svg"
   xmlns="http://www.w3.org/2000/svg"
   xmlns:sodipodi="http://sodipodi.sourceforge.net/DTD/sodipodi-0.dtd"
   xmlns:inkscape="http://www.inkscape.org/namespaces/inkscape"
   viewBox="0 0 260 288.7273"
   height="288.72729"
   width="260"
   xml:space="preserve"
   id="svg2"
   version="1.1"
   inkscape:version="0.48.5 r10040"
   sodipodi:docname="Descente(284).svg"><sodipodi:namedview
     pagecolor="#ffffff"
     bordercolor="#666666"
     borderopacity="1"
     objecttolerance="10"
     gridtolerance="10"
     guidetolerance="10"
     inkscape:pageopacity="0"
     inkscape:pageshadow="2"
     inkscape:window-width="1280"
     inkscape:window-height="972"
     id="namedview17"
     showgrid="false"
     fit-margin-top="5"
     fit-margin-bottom="5"
     fit-margin-right="5"
     fit-margin-left="5"
     inkscape:zoom="0.91237117"
     inkscape:cx="239.39275"
     inkscape:cy="177.11045"
     inkscape:window-x="-8"
     inkscape:window-y="-8"
     inkscape:window-maximized="1"
     inkscape:current-layer="g12" /><metadata
     id="metadata8"><rdf:RDF><cc:Work
         rdf:about=""><dc:format>image/svg+xml</dc:format><dc:type
           rdf:resource="http://purl.org/dc/dcmitype/StillImage" /><dc:title></dc:title></cc:Work></rdf:RDF></metadata><defs
     id="defs6" /><g
     transform="matrix(1.3333333,0,0,-1.3333333,110.05942,240.95018)"
     id="g10"><g
       transform="scale(0.1,0.1)"
       id="g12"><path
         id="path16"
         style="fill:#231f20;fill-opacity:1;fill-rule:evenodd;stroke:none"
         d="m -726.02862,1533.4041 h 43.61163 c 35.88683,0 70.19563,22.0745 70.19563,84.3876 0,56.7883 -19.71945,93.0661 -81.2417,93.0661 h -32.56556 z m -61.91707,-52.0706 v 281.5822 h 109.86034 c 72.96441,0 127.78107,-45.7508 127.78107,-139.208 0,-81.6378 -41.80406,-142.3742 -127.78107,-142.3742 h -109.86034"
         inkscape:connector-curvature="0" /><path
         id="path18"
         style="fill:#231f20;fill-opacity:1;fill-rule:evenodd;stroke:none"
         d="m -157.58514,1684.4441 c -4.17397,29.3402 -27.16046,37.0725 -55.06389,37.0725 -19.71819,0 -42.5962,-8.2873 -42.5962,-31.9512 0,-21.6961 13.40741,-24.446 83.99661,-42.5849 20.51161,-5.1339 83.611874,-18.1389 83.611874,-82.0288 0,-51.667 -40.620854,-90.3163 -117.133584,-90.3163 -62.30052,0 -120.67054,30.7657 -119.88216,100.1678 h 59.93666 c 0,-37.4635 29.19511,-52.0453 62.31567,-52.0453 21.69103,0 54.8217,6.307 54.8217,35.0921 0,30.362 -42.1976,35.4958 -83.60684,46.5331 -41.80404,11.0373 -84.00164,27.2084 -84.00164,80.061 0,57.5703 54.42308,85.1823 105.29786,85.1823 57.09851,0 109.73168,-24.2189 112.658133,-85.2832 l -60.354193,0.1008"
         inkscape:connector-curvature="0" /><path
         id="path20"
         style="fill:#231f20;fill-opacity:1;fill-rule:evenodd;stroke:none"
         d="m 183.57933,1572.9995 c -12.01861,-60.4968 -58.08367,-98.3641 -121.424857,-98.3641 -87.150107,0 -138.423485,65.0757 -138.423485,146.3098 0,83.6056 51.273378,148.6812 138.423485,148.6812 56.747847,0 105.218387,-30.488 118.675007,-85.6743 l -64.10434,0.9335 c -10.64873,17.7983 -31.500932,32.6829 -54.570667,32.6829 -55.6050224,0 -76.506415,-47.3277 -76.506415,-96.6233 0,-46.924 20.9013926,-94.2517 76.506415,-94.2517 31.762041,0 51.875057,18.3281 60.315087,46.1167 l 61.10977,0.1893"
         inkscape:connector-curvature="0" /><path
         id="path22"
         style="fill:#231f20;fill-opacity:1;fill-rule:evenodd;stroke:none"
         d="m 415.54822,1762.9157 h 61.51847 l 97.21607,-156.9938 h 0.79469 v 156.9938 h 57.97393 v -281.5822 h -53.21846 l -105.51609,169.6709 h -0.79468 v -169.6709 h -57.97393 v 281.5822"
         inkscape:connector-curvature="0" /><path
         id="path24"
         style="fill:#231f20;fill-opacity:1;fill-rule:evenodd;stroke:none"
         d="m 730.91077,1710.8578 h -77.13459 v 52.0579 h 216.20391 v -52.0579 h -77.14721 v -229.5243 h -61.92211 v 229.5243"
         inkscape:connector-curvature="0" /><path
         id="path26"
         style="fill:#231f20;fill-opacity:1;fill-rule:evenodd;stroke:none"
         d="m 201.96801,1762.9157 h 188.84416 v -52.0579 H 263.87751 v -60.3327 h 121.96474 v -48.1224 H 263.87751 v -68.9986 h 131.53877 v -52.0706 H 201.96801 v 281.5822"
         inkscape:connector-curvature="0" /><path
         id="path28"
         style="fill:#231f20;fill-opacity:1;fill-rule:evenodd;stroke:none"
         d="m 890.64181,1762.9157 h 188.85679 v -52.0579 H 952.56393 v -60.3327 h 121.95217 v -48.1224 H 952.56393 v -68.9986 h 131.52617 v -52.0706 H 890.64181 v 281.5822"
         inkscape:connector-curvature="0" /><path
         id="path30"
         style="fill:#231f20;fill-opacity:1;fill-rule:evenodd;stroke:none"
         d="m -534.55193,1762.9157 h 188.84037 v -52.0579 h -126.92835 v -60.3327 h 121.95213 v -48.1224 h -121.95213 v -68.9986 h 131.53498 v -52.0706 h -193.447 v 281.5822"
         inkscape:connector-curvature="0" /><path
         id="path32"
         style="fill:#231f20;fill-opacity:1;fill-rule:evenodd;stroke:none"
         d="M -472.99436,1343.6139 V 1233.418 H -223.6169 L -671.62572,788.30787 -780.36216,897.05314 V 351.90771 h 545.14669 L -367.15031,483.8413 -101.8275,746.26668 V 224.31839 H -391.7968 L 153.34484,-320.8283 698.49279,224.31839 H 408.52222 V 743.3642 L 672.39443,485.29569 541.91525,351.90771 H 1087.0544 V 897.05314 L 976.85848,786.85726 533.21159,1233.418 H 779.6891 v 110.1959 H -472.99436"
         inkscape:connector-curvature="0" /></g></g></svg>