<?xml version="1.0" encoding="UTF-8"?>
<svg id="_레이어_1" data-name="레이어 1" xmlns="http://www.w3.org/2000/svg" viewBox="0 0 131 30.4">
  <path d="M2.72,23.48H0V.59l2.72-.59v23.48ZM10.01,6.87l2.13,1.54-5.24,6.57,6.07,7.28-2.1,1.63L3.7,15.13l6.31-8.26Z"/>
  <path d="M15.01,19.12c0-1.64.55-2.89,1.64-3.74,1.1-.86,2.69-1.29,4.78-1.29h3.14v-1.04c0-2.51-1.11-3.76-3.32-3.76-.71,0-1.46.1-2.24.3-.78.2-1.49.44-2.15.74l-.8-1.92c.81-.45,1.68-.8,2.62-1.05.94-.25,1.85-.37,2.74-.37,3.83,0,5.74,2.04,5.74,6.13v10.36h-2.01l-.33-1.78c-.81.65-1.67,1.15-2.59,1.51-.92.36-1.79.53-2.62.53-1.44,0-2.57-.41-3.39-1.23-.82-.82-1.23-1.95-1.23-3.39ZM20.1,21.55c.37,0,.76-.05,1.17-.15.4-.1.81-.23,1.21-.38.4-.16.78-.35,1.14-.58.36-.23.67-.47.95-.73v-3.79h-2.84c-1.44,0-2.49.25-3.15.74-.66.49-.99,1.27-.99,2.34,0,1.7.84,2.55,2.52,2.55Z"/>
  <path d="M35.26,23.48h-2.72V.59l2.72-.59v23.48ZM42.54,6.87l2.13,1.54-5.24,6.57,6.07,7.28-2.1,1.63-7.16-8.76,6.31-8.26Z"/>
  <path d="M47.54,19.12c0-1.64.55-2.89,1.64-3.74s2.69-1.29,4.78-1.29h3.14v-1.04c0-2.51-1.11-3.76-3.32-3.76-.71,0-1.46.1-2.24.3-.78.2-1.49.44-2.15.74l-.8-1.92c.81-.45,1.68-.8,2.62-1.05.94-.25,1.85-.37,2.74-.37,3.83,0,5.74,2.04,5.74,6.13v10.36h-2.01l-.33-1.78c-.81.65-1.67,1.15-2.59,1.51-.92.36-1.79.53-2.62.53-1.44,0-2.57-.41-3.39-1.23-.82-.82-1.23-1.95-1.23-3.39ZM52.64,21.55c.37,0,.76-.05,1.17-.15.4-.1.81-.23,1.21-.38.4-.16.78-.35,1.14-.58.36-.23.67-.47.95-.73v-3.79h-2.84c-1.44,0-2.49.25-3.15.74-.66.49-.99,1.27-.99,2.34,0,1.7.84,2.55,2.52,2.55Z"/>
  <path d="M71.35,7.02c2.25,0,4.02.73,5.3,2.19,1.28,1.46,1.92,3.55,1.92,6.28s-.64,4.75-1.91,6.19c-1.27,1.44-3.04,2.16-5.31,2.16s-4.02-.72-5.3-2.16c-1.28-1.44-1.92-3.5-1.92-6.19s.65-4.82,1.94-6.28c1.29-1.46,3.05-2.19,5.28-2.19ZM71.35,9.21c-1.42,0-2.51.53-3.27,1.6-.76,1.07-1.14,2.63-1.14,4.68s.38,3.57,1.14,4.6c.76,1.04,1.85,1.55,3.27,1.55s2.54-.52,3.3-1.55c.76-1.04,1.14-2.57,1.14-4.6s-.38-3.61-1.14-4.68c-.76-1.07-1.86-1.6-3.3-1.6Z"/>
  <path d="M86.92,23.62v6.07h-4.32V7.31h3.05l.53,1.42c.92-.92,2.31-1.89,4.56-1.89,4.23,0,6.25,3.17,6.22,8.29,0,5.36-3.11,8.79-7.55,8.79-.86,0-1.51-.06-2.49-.3ZM86.92,10.92v9.68c.24.03.83.09,1.39.09,3.08,0,4.26-2.16,4.26-5.57,0-2.99-.8-4.8-3.26-4.8-.8,0-1.69.24-2.4.59Z"/>
  <path d="M106.37,13.62h2.46v-.53c0-1.78-1.01-2.61-2.75-2.61-1.33,0-3.05.38-4.44,1.07l-1.18-2.9c1.54-1.07,3.91-1.81,6.01-1.81,4.14,0,6.39,2.19,6.39,6.37v10.27h-3.05l-.44-1.36c-1.75,1.27-3.35,1.81-4.8,1.81-3.17,0-4.94-1.89-4.94-5.09,0-3.4,2.37-5.21,6.75-5.21ZM108.83,19.33v-2.96h-1.98c-2.22,0-3.35.8-3.35,2.4,0,1.21.62,1.81,1.89,1.81,1.18,0,2.69-.59,3.43-1.24Z"/>
  <path d="M125.94,21.82c-1.51,4.03-3.32,6.96-5.95,8.59l-2.66-2.46c1.54-1.33,2.63-2.63,3.58-4.38l-5.74-15.66,4.29-1.15,3.67,12.7,3.64-12.76,4.23,1.18-5.06,13.94Z"/>
</svg>