<?xml version="1.0" encoding="UTF-8"?>
<svg id="_레이어_1" data-name="레이어 1" xmlns="http://www.w3.org/2000/svg" viewBox="0 0 142 21.79">
  <polygon points="17.14 1.54 20.19 1.54 20.19 0 4.06 0 4.06 1.54 7.14 1.54 1.63 7.03 0 5.51 0 12.72 7.18 12.72 5.7 11.16 8.82 8.04 8.82 14.35 4.9 14.35 12.13 21.79 19.33 14.35 15.54 14.35 15.54 8.04 18.58 11.16 17.07 12.72 24.25 12.72 24.25 5.6 22.65 7.08 17.14 1.54"/>
  <path d="M80.92,16.63c-.75.56-1.92.67-2.8.32-2.35-.85-2.6-4.13-2.62-6.6.06-2.14.2-4.35,1.9-5.79.77-.78,2.04-.78,2.98-.34,1.14.45,1.87,1.62,2.02,2.78h4.3c-.13-.79-.43-1.47-.84-2.15-1.74-2.73-4.73-3.92-7.86-3.53-2.65.35-4.9,1.7-5.99,5.05-.95,3.74-.92,8.45,1.75,11.34,2.09,2.24,5.35,2.91,8.32,2.02,2.33-.75,4.41-3.22,4.67-5.68h-4.33c-.24.93-.56,1.98-1.48,2.58Z"/>
  <polygon points="110.58 12.27 104.1 1.85 100.51 1.85 100.51 19.61 104.23 19.61 104.23 9.08 110.71 19.61 114.34 19.61 114.34 1.85 110.58 1.85 110.58 12.27"/>
  <polygon points="115.08 4.99 120.2 4.99 120.2 19.61 123.89 19.61 123.89 4.99 128.85 4.99 128.85 1.86 115.07 1.86 115.08 4.99"/>
  <polygon points="87.31 19.61 99.76 19.61 99.76 16.43 91.19 16.43 91.19 11.98 98.94 11.98 98.94 8.86 91.2 8.86 91.2 5.02 99.76 5.02 99.76 1.86 87.31 1.86 87.31 19.61"/>
  <polygon points="43.45 19.61 55.9 19.61 55.9 16.43 47.33 16.43 47.33 11.98 55.08 11.98 55.08 8.86 47.34 8.86 47.34 5.02 55.9 5.02 55.9 1.86 43.45 1.86 43.45 19.61"/>
  <polygon points="142 5.02 142 1.86 129.55 1.86 129.55 19.61 142 19.61 142 16.43 133.43 16.43 133.43 11.98 141.18 11.98 141.18 8.86 133.44 8.86 133.44 5.02 142 5.02"/>
  <path d="M68.18,9.68l-6.84-2.3c-.58-.2-1.05-.82-1.07-1.44-.04-.51.13-.94.5-1.27,1.22-.92,3.16-.86,4.54-.32.97.47,1.61,1.6,1.61,2.65h3.57c-.06-1.1-.38-2.2-.88-3.12-1.61-2.58-4.48-2.97-7.36-2.78-2.32.07-4.73,1.48-5.5,3.74-.5,1.57-.03,3.23,1.05,4.39,2.32,2.13,5.46,2.24,8.15,3.48,0,0,.44.26.64.54.35.48.52,1.05.41,1.68-.09.51-.43.96-.92,1.23-.89.5-2.75.71-4.04.3-1.1-.3-2-1.35-2.28-2.41h-3.77c.06,1.81.99,3.36,2.52,4.5,2.75,1.77,7.12,2.04,9.96.26,1.62-1.18,2.67-2.84,2.58-4.88-.04-1.8-1.21-3.52-2.88-4.26Z"/>
  <path d="M36.25,1.94c-1.38-.1-2.63-.1-2.63-.1h-5.59v17.77h5.6c2.21,0,4.45.06,6.13-1.23,3.53-2.64,3.5-7.76,2.41-11.55-.71-2.54-3.31-4.65-5.92-4.9ZM37.92,14.85c-1.37,2.01-3.93,1.48-6.02,1.58V5c2,.06,4.32-.28,5.64,1.31,1.8,2.28,1.81,6.09.38,8.54Z"/>
</svg>