<?xml version="1.0" encoding="UTF-8"?>
<svg id="_레이어_1" data-name="레이어 1" xmlns="http://www.w3.org/2000/svg" viewBox="0 0 152 14.64">
  <defs>
    <style>
      .cls-1 {
        fill: #005099;
      }

      .cls-2 {
        fill: #001659;
      }
    </style>
  </defs>
  <path class="cls-1" d="M6.81,2.43c.28.68,1.58,3.82,1.76,4.26h-3.61c.19-.45,1.56-3.59,1.85-4.26M6.09.34L0,14.29h1.75l2.6-6.11s4.55,0,4.79,0c.1.23,2.53,6.11,2.53,6.11h1.85L7.65.34h-1.56Z"/>
  <path class="cls-1" d="M27.45.34s-4.47,10.3-4.81,11.07c-.34-.77-4.81-11.07-4.81-11.07h-2.22v13.95h1.66V3l4.96,11.29h.82s4.28-9.91,4.88-11.28v11.28h1.66V.34h-2.12Z"/>
  <polygon class="cls-1" points="65.17 .34 65.17 14.29 75 14.29 75 12.75 66.83 12.75 66.83 7.86 74.26 7.86 74.26 6.32 66.83 6.32 66.83 1.89 74.69 1.89 74.69 .34 65.17 .34"/>
  <path class="cls-1" d="M58.49,7.73c2.18-.37,3.34-1.62,3.34-3.63,0-2.49-1.69-3.76-5.02-3.76h-5.83v5.97h-3.69c-.42-3.77-3.24-6.32-7.14-6.32-4.24,0-7.2,3.01-7.2,7.32s2.96,7.32,7.2,7.32,6.95-2.76,7.18-6.78h3.65v6.43h1.66v-6.43h4.11c.11.19,3.81,6.43,3.81,6.43h1.9s-3.71-6.12-3.98-6.57M40.16,13.09c-3.27,0-5.55-2.38-5.55-5.78s2.28-5.77,5.55-5.77,5.54,2.37,5.54,5.77-2.28,5.78-5.54,5.78M52.63,6.29V1.86h4.55c2.69,0,2.98,1.55,2.98,2.21s-.29,2.22-2.98,2.22h-4.55Z"/>
  <path class="cls-2" d="M80.2.34v13.95h.93v-6.82h3.31c1.99,0,4.12-.93,4.12-3.55,0-3.24-3.09-3.59-4.42-3.59h-3.93M81.34,1.15h2.96c1.54,0,3.33.73,3.33,2.78s-1.68,2.74-3.25,2.74h-3.25V1.15h.21M94.01.34l-6.09,13.95h.95s2.56-6,2.61-6.12h5.92c.05.12,2.53,6.12,2.53,6.12h1.06L95.12.34h-1.11M94.31,1.53s.11-.25.19-.45c.17.41,2.46,6.04,2.57,6.29h-5.23c.11-.27,2.48-5.85,2.48-5.85M102.47,7.32c0,4.31,2.96,7.32,7.2,7.32,2.06,0,3.72-.77,4.95-2.3l.06-.08-.77-.58-.06.08c-1.17,1.53-2.99,2.08-4.19,2.08-3.69,0-6.27-2.68-6.27-6.51s2.58-6.51,6.27-6.51c1.52,0,2.9.65,3.8,1.79l.06.08.77-.65-.07-.08c-1.13-1.3-2.66-1.95-4.56-1.95-4.24,0-7.2,3.01-7.2,7.32M139.79,7.32c0,4.31,2.96,7.32,7.2,7.32,2.06,0,3.73-.77,4.95-2.3l.06-.08-.77-.58-.06.08c-1.17,1.53-2.98,2.08-4.18,2.08-3.69,0-6.27-2.68-6.27-6.51s2.58-6.51,6.27-6.51c1.52,0,2.9.65,3.79,1.79l.06.08.77-.65-.07-.08c-1.13-1.3-2.66-1.95-4.56-1.95-4.24,0-7.2,3.01-7.2,7.32M118.52,14.29h.93V.34h-.93v13.95ZM123.41.34v13.95h.93v-6.82h6.75v-.81h-6.75V1.15h7.26V.34h-8.19M135.54,14.29h.93V.34h-.93v13.95Z"/>
</svg>