<?xml version="1.0" encoding="UTF-8"?>
<svg id="_레이어_1" data-name="레이어 1" xmlns="http://www.w3.org/2000/svg" viewBox="0 0 174.68 25">
  <defs>
    <style>
      .cls-1 {
        fill: #697379;
      }

      .cls-2 {
        fill: #d0372f;
      }
    </style>
  </defs>
  <path class="cls-2" d="M13.83,0c-.31.24-.63.48-.95.71-.59.46-1.13.97-1.61,1.54l-.38.52c-.08.1-.15.22-.22.34-.03.05-.06.11-.08.17-.05.09-.1.18-.13.28-.05.18-.1.36-.15.54l-.03.41c0,.13,0,.25,0,.39.05.68.19,1.35.4,2,.33.68.68,1.34,1.04,1.99.64.69,1.28,1.41,1.9,2.13.51-.61,1.02-1.24,1.5-1.87l.51-.85c.35-.58.6-1.21.75-1.86l.09-.7c.05-.32.03-.63-.03-.95-.02-.12-.04-.24-.07-.36l-.15-.49c-.12-.38-.29-.75-.5-1.1-.26-.42-.51-.84-.74-1.27-.06-.07-.11-.15-.15-.23l-.98-1.3M4.36,4.53c-.3-.08-.61-.16-.91-.26-.12-.02-.24-.04-.36-.07,0,.07-.01.14-.01.21l.09.79.04.34.06.42c.14,1.14.52,2.23,1.11,3.22.5.72,1.12,1.35,1.82,1.86.74.4,1.54.68,2.36.82,1.05-.04,2.09-.2,3.1-.5,0-.07-.01-.15-.03-.22l-.15-.73c-.22-.98-.65-1.91-1.25-2.71l-.6-.68c-.47-.56-1.03-1.03-1.65-1.39l-.3-.15c-.26-.13-.53-.24-.8-.34-.59-.19-1.2-.32-1.82-.4-.08-.03-.15-.05-.23-.07-.15-.03-.31-.08-.45-.14M21.41,5.39c-.68-.13-1.38-.08-2.04.13-.26.1-.51.23-.75.38-.61.42-1.17.91-1.67,1.46-.23.29-.42.62-.57.97-.13.31-.28.61-.44.89l-.14.33c-.07.17-.13.35-.18.53l-.34,1.41c.11.02.22.04.33.06l1.27.16c.28.05.56.07.85.06,1.14-.06,2.26-.35,3.27-.88.06-.03.13-.05.19-.09.52-.26,1.01-.55,1.48-.88.6-.4,1.12-.92,1.51-1.53.12-.17.23-.36.32-.56.19-.48.31-.99.35-1.51l-1.56-.54-.17-.05c-.15-.04-.29-.08-.43-.11-.43-.09-.86-.18-1.3-.25M7.41,17.18c.36-.14.69-.36.97-.64l.6-.6c.47-.5.89-1.04,1.28-1.6l.17-.26c.12-.19.25-.37.38-.55-.85-.39-1.73-.73-2.63-1.01-.54-.15-1.09-.29-1.64-.4-.21-.03-.43-.05-.65-.06l-1.11-.06c-.3,0-.6.03-.89.1-1.25.34-2.41.92-3.42,1.72l-.48.39c.43.67.9,1.31,1.41,1.92.08.1.16.19.25.28l.57.57c.23.11.46.22.7.32.45.24.94.39,1.44.43l.37.04c.75-.05,1.5-.19,2.22-.41.15-.05.3-.11.44-.18M20.64,12.04c-.12,0-.24,0-.35,0-.26.03-.52.06-.78.1-.36.12-.72.25-1.07.4-.86.32-1.65.78-2.37,1.35l.3.56c.19.34.39.67.62.99.23.29.49.55.78.78l.18.13c.12.09.24.17.38.23l.19.11c.09.06.19.11.28.16l.59.23.26.1c.29.1.59.16.9.19.37.04.73.06,1.11.06h.19c.1,0,.2,0,.3-.01.1,0,.2,0,.3,0l.42-.03c.22-.02.44-.05.66-.07l.43-.06c.53-.09,1.05-.19,1.57-.32.19-.07.39-.14.59-.2l.14-.04c.13-.05.27-.11.39-.18-.28-.7-.59-1.38-.95-2.04-.07-.11-.14-.23-.2-.35-.2-.25-.41-.48-.64-.7l-.43-.35c-.12-.09-.25-.17-.39-.24-.8-.37-1.64-.62-2.51-.74h-.19c-.24-.05-.47-.07-.71-.06M19.21,18.25c-.32-.36-.68-.68-1.07-.97-1.15-.78-2.41-1.4-3.73-1.82l-.05.23c-.28.85-.48,1.72-.58,2.61-.03.22-.03.44-.02.67,0,.43.06.86.17,1.27.05.15.1.29.17.44.19.29.38.58.58.87.06.08.13.16.19.24.32.32.66.61,1.02.87.66.46,1.36.86,2.1,1.19l.48.17,1.5.53c.29.12.58.23.88.32l.04-1.79c0-.39-.04-.78-.1-1.17-.03-.35-.08-.7-.15-1.04-.08-.48-.25-.93-.51-1.34-.28-.44-.59-.86-.92-1.27M12.32,15.49c-1.17.46-2.33.97-3.47,1.51l-.58.37c-.35.37-.72.72-1.1,1.06-.37.35-.64.77-.81,1.25-.06.18-.09.36-.09.54-.03.67.01,1.34.12,2,.15.72.34,1.42.58,2.11l.16.67.2-.03c.86-.29,1.7-.61,2.51-.98.62-.31,1.19-.7,1.69-1.18.11-.11.21-.23.31-.35.07-.07.13-.15.19-.22.65-.88,1.02-1.93,1.05-3.02,0-.16,0-.32,0-.48-.04-.31-.08-.63-.14-.94l-.03-.2c-.06-.2-.11-.4-.15-.6-.14-.51-.29-1.01-.45-1.51"/>
  <path class="cls-1" d="M159.75,12.34h11.7v-1.22h-11.7v1.22Z"/>
  <path class="cls-1" d="M159.75,12.33h1.33v-6.8h-1.33v6.8ZM154.65,20.71h1.48V5.52h-1.48v15.18ZM146.93,7c2.29,1.06,3.78,3.33,3.83,5.85.01.79-.11,1.58-.38,2.32l1.21.58c.36-.92.53-1.91.51-2.9-.07-3.52-2.44-6.58-5.84-7.52l-5.15,9.76,1.61-.02,4.21-8.07M137.65,10.82l.44-1.22h-1.89v-4.07h-1.36v15.18h1.36v-9.88h1.45"/>
  <path class="cls-1" d="M137.6,20.7h1.35V5.52h-1.35v15.18ZM108.81,15.44h1.48V5.52h-1.48v9.91ZM120.33,20.7h1.48V5.52h-1.48v15.18Z"/>
  <path class="cls-1" d="M108.81,15.98h12.38v-1.22h-12.38v1.22ZM108.81,10.85h7.56v-1.22h-7.56v1.22ZM108.81,6.74h7.56v-1.22h-7.56v1.22ZM117.88,10.85h3.57v-1.22h-3.57v1.22ZM125.95,15.44h1.48V5.52h-1.48v9.91Z"/>
  <path class="cls-1" d="M125.95,15.98h9.87v-1.22h-9.87v1.22ZM161.46,15.13h11.04v-1.22h-11.04v1.22ZM162.11,20.71h10.4v-1.22h-10.4v1.22ZM161.46,17.88h11.04v-1.22h-11.04v1.22Z"/>
  <path class="cls-1" d="M161.46,20.71h1.48v-4h-1.48v4ZM171.03,13.05h1.48v-7.52h-1.48v7.52ZM171.03,16.94h1.48v-2.16h-1.48v2.16ZM150.29,9.49h5.17v-1.22h-5.17v1.22Z"/>
  <path class="cls-1" d="M171.75,9.49h2.93v-1.22h-2.93v1.22ZM150.99,11.94h4.47v-1.22h-4.47v1.22ZM95.01,5.08c-2.56,0-4.63,2.07-4.63,4.63h0c0,1.24.49,2.42,1.36,3.29.87.87,2.05,1.35,3.28,1.36,2.56,0,4.64-2.07,4.64-4.63,0-1.23-.49-2.41-1.36-3.28-.87-.87-2.05-1.36-3.28-1.36M98.31,9.72c0,.88-.35,1.71-.97,2.34-1.29,1.29-3.38,1.29-4.66,0-1.29-1.29-1.29-3.38,0-4.66,1.29-1.29,3.38-1.29,4.66,0,.62.62.96,1.45.97,2.33M62.5,9.6h-1.89c-.78-1.57-2.04-2.85-3.59-3.67-.27-.15-.54-.29-.82-.43l-.19-.1-5.13,9.71h1.54l4.2-7.96c1.41.83,2.48,2.13,3.04,3.66.42,1.35.38,2.8-.1,4.14l1.2.69c.25-.66.41-1.36.48-2.07.1-.92.03-1.85-.19-2.75h1.45v9.88h1.36V5.52h-1.36v4.08M65.26,20.71h1.35V5.52h-1.35v15.18ZM41.81,15.1l1.25.58c.27-.72.44-1.47.49-2.24.23-2.52-.87-4.97-2.91-6.48-.43-.34-.89-.65-1.37-.92-.31-.18-.62-.34-.95-.49l-.24-.13-5.14,9.71h1.6s4.17-7.98,4.17-7.98c1.53.84,2.68,2.23,3.24,3.89.37,1.34.32,2.75-.14,4.06"/>
  <path class="cls-1" d="M46.86,19.48h-8.52v-4.39h-1.48v5.61h11.46V5.52h-1.46v13.96M103.17,19.48h-7.67v-4.39h-1.48v5.61h10.61V5.52h-1.46v13.96M82.73,20.71h1.36V5.52h-1.36v15.18ZM69.99,15.83c2.76-.13,5.31-1.55,6.86-3.84l3.13-.05v8.77h1.36V5.52h-1.36v2.75h-1.93c.04-.9-.06-1.8-.29-2.67l-7.09-.06v1.24h5.98c.05.31.08.62.07.93,0,2.92-1.88,5.5-4.66,6.38-.83.29-1.69.46-2.56.52l.49,1.23M79.97,10.71h-2.5c.15-.39.28-.78.37-1.18l2.13-.04v1.22"/>
</svg>