<?xml version="1.0" encoding="UTF-8"?>
<svg id="_레이어_1" data-name="레이어 1" xmlns="http://www.w3.org/2000/svg" viewBox="0 0 87.7 30.7">
  <defs>
    <style>
      .cls-1 {
        fill: #42b22e;
      }
    </style>
  </defs>
  <path class="cls-1" d="M30.81,30.7h-5.64c-.37,0-.68-.3-.68-.68V.68c0-.37.3-.68.68-.68h5.64c.37,0,.68.3.68.68v29.34c0,.37-.3.68-.68.68Z"/>
  <path class="cls-1" d="M19.43,23.7H7V1.22c0-.67-.55-1.22-1.22-1.22H1.22C.55,0,0,.55,0,1.22v28.26c0,.67.55,1.22,1.22,1.22h18.21c.67,0,1.22-.55,1.22-1.22v-4.55c0-.67-.54-1.22-1.22-1.22Z"/>
  <path class="cls-1" d="M86.48,7c.67,0,1.22-.55,1.22-1.22V1.22c0-.67-.55-1.22-1.22-1.22h-18.1c-.67,0-1.22.55-1.22,1.22v28.26c0,.67.55,1.22,1.22,1.22h18.1c.67,0,1.22-.55,1.22-1.22v-4.55c0-.67-.55-1.22-1.22-1.22h-12.32v-4.85h12.32c.67,0,1.22-.55,1.22-1.22v-4.55c0-.67-.55-1.22-1.22-1.22h-12.32v-4.86h12.32Z"/>
  <path class="cls-1" d="M61.54,0h-4.55c-.67,0-1.22.55-1.22,1.22v16.82L42.96.88c-.35-.48-.62-.88-1.18-.88h-4.55c-.67,0-1.22.55-1.22,1.22v28.26c0,.67.55,1.22,1.22,1.22h4.55c.67,0,1.22-.55,1.22-1.22V12.7l12.82,17.17c.22.32.62.83,1.16.83h4.55c.67,0,1.22-.55,1.22-1.22V1.22c0-.67-.54-1.22-1.22-1.22Z"/>
</svg>