<?xml version="1.0" encoding="UTF-8"?>
<svg id="_레이어_1" data-name="레이어 1" xmlns="http://www.w3.org/2000/svg" viewBox="0 0 95.81 47.89">
  <defs>
    <style>
      .cls-1 {
        fill: #591d7c;
      }
    </style>
  </defs>
  <path class="cls-1" d="M94.04,28.39c-1.27-.54-3.39-.43-5.78.99,0,0,4.26-11.22,4.41-11.59.54-1.43.4-2.57-.12-3.27-.2-.26-.46-.47-.76-.61-.3-.14-.63-.21-.96-.21-.68,0-1.35.17-1.95.49-.09.06-.16.14-.2.23-.04.1-.05.2-.03.3-.03.82-.19,1.63-.46,2.4-.76,2.27-1.79,4.48-2.06,5.07-.6,1.33-2.23,4.6-4.37,6.36-.73.71-1.68,1.15-2.69,1.26-1.18,0-1.28-1.84-.49-3.79,0,0,3.13-7.83,3.19-8,1.52-3.93-1.25-5.19-3.89-3.85-.17.08-.34.24-.21.37.37.39.19,1.51-.42,3.29,0,0-1.74,4.62-3.09,7.4-2.4,4.97-6.45,5.12-4.7.17.43-1.21,7.45-20.15,7.45-20.15.76-2.23,1.04-3.66,0-4.63-1.04-.97-2.73-.76-3.92-.12-.17.09-.39.29-.24.41.56.45.35,1.62-.21,3.45-1.52,4.28-6.7,18.5-7.94,22.12-1.11,3.23.56,4.94,2.83,5,1.7.05,4.29-.86,6.78-3.94-.03.95.3,1.88.93,2.59.62.72,1.5,1.18,2.45,1.28,3.31.64,5.39-1.64,6.22-2.57.25-.27.63-.71.84-.95l-.18.61c-.36.97-.6,1.73-.93,2.63l-.22.59c-2.71,2.09-5.25,4.38-7.6,6.87-3.38,3.71-3.74,8.18-.6,9.09,4.69,1.32,7.93-4.64,10.99-12.8l1.28-3.25.17-.44c4.19-2.82,7.02-.2,7.13,1.25,0,.2.3.23.42.11.29-.32.5-.7.6-1.12.1-.42.1-.85,0-1.27s-.32-.8-.61-1.12c-.29-.31-.66-.55-1.07-.69ZM82.74,34.21c-2.59,6.62-4.98,11.3-7.28,11.07-1.01-.1-1.15-1.2-.57-2.6,1.43-3.38,6.6-7.64,7.89-8.67l-.04.2Z"/>
  <path class="cls-1" d="M64.53,14.15c-2.16-.97-4.73.22-8.09,4.43.84-2.1,1-3.47.15-4.29-1.07-1.04-3.08-.39-3.68-.08-.21.11-.34.21-.26.41.38.84-.24,2.63-.91,4.54-.26.76-.93,2.57-1.72,4.44-1.29,3.03-3.94,6.06-5.99,5.5-.7-.19-.94-1.23-.59-2.21l3.31-9.49c1.24-4.01-2.07-4.29-3.9-3.28-.24.13-.43.29-.33.43.4.57,0,2.08-.21,2.74-.93,2.55-1.88,6.23-3.94,9.17-1.15,1.79-2.77,2.98-4,2.91-1.22-.07-1.75-1.51-.88-4.16.34-1.06,2.04-5.68,2.98-8.62.9-2.8-2.28-3.46-4.24-2.43-.16.08-.35.24-.23.37.36.4.26,1.51-.34,3.2-1.02,2.67-1.88,5.4-2.58,8.18-.82,3.63.76,5.35,3.27,5.57,2.51.23,4.99-1.46,6.66-3.57-.1.41-.11.84-.02,1.25.08.41.25.81.5,1.15.25.34.57.63.94.84.37.21.78.34,1.2.37,1.91.17,4.1-.82,6.25-2.87-.37,1.73.4,2.82,2.28,2.83.75.04,1.49-.2,2.06-.69,0-.02.01-.04.01-.06s0-.04-.01-.06c0-.06-.19-.29.13-1.24,1.31-3.91,2.61-6.75,3.87-8.46,1.41-1.9,3.37-3.44,4.73-3.31,1.35.13,1.38,1.65.93,2.35-.24.33-.05.49.18.48,3.83-.31,5.27-5.13,2.48-6.38Z"/>
  <path class="cls-1" d="M36,32.83c-1.31,1.12-3,1.68-4.72,1.57-3.18-.18-5.24-1.87-7.2-5.51-1.78-3.31-4.2-8.69-4.92-10.6,5.82-2.57,12.42-7.57,13.31-11.12.13-.39.15-.81.05-1.2-.1-.4-.32-.76-.62-1.03-.32-.21-.52-.14-.66,0-1.12,4.1-10.91,10.43-16.4,11.74,1.88-5.25,3.8-10.65,3.91-11.09C19.87,1.16,17.22-.25,14.49.04,7.19.8-.71,10.1.05,17.84c.08.76.52,2.22,1.87,2.51.45.12.92.07,1.33-.16.4-.22.7-.6.83-1.04,0-.03,0-.05,0-.08,0-.02-.02-.05-.04-.07-.02-.02-.04-.03-.06-.04-.02,0-.05-.01-.08,0-.45.1-1.37-.63-1.6-1.93C1.02,9.54,9.9,1.44,13.79,2.45c.86.25,1.09,1.2.59,2.71-1.42,4.03-6.72,19-8.08,22.86-1.52,4.36,1.2,6.06,4.17,5.17.29-.09.39-.36.21-.48-.76-.52-.68-2.35.42-5.69.07-.21,2.4-6.56,2.48-6.81l1.47-.52c5.32,12.36,8.12,17.37,15.53,16.87,1.16-.07,2.3-.41,3.31-.99,1.01-.58,1.88-1.38,2.53-2.35.19-.26-.18-.6-.41-.37Z"/>
</svg>