<?xml version="1.0" encoding="UTF-8"?>
<svg id="_레이어_1" data-name="레이어 1" xmlns="http://www.w3.org/2000/svg" viewBox="0 0 142.44 31.36">
  <g>
    <path d="M56.32,9.49c-.42,0-.82-.05-1.2-.15-.38-.1-.7-.22-.96-.37-.26-.15-.47-.29-.62-.41-.16-.12-.29-.24-.39-.36l.77-.82c.67.66,1.45.98,2.36.98.54,0,.93-.09,1.17-.26.25-.17.37-.4.37-.66,0-.08,0-.15-.03-.21-.02-.07-.04-.12-.08-.17-.04-.05-.07-.1-.1-.14-.03-.04-.08-.08-.16-.12-.08-.04-.13-.07-.17-.09-.04-.02-.1-.04-.2-.07-.1-.03-.16-.05-.19-.06-.03-.01-.1-.03-.22-.06-.11-.03-.18-.04-.2-.05-.14-.04-.34-.09-.59-.15-.26-.06-.48-.11-.67-.17-.19-.06-.37-.12-.56-.2-.79-.32-1.19-.85-1.19-1.58,0-.4.13-.74.4-1.04.27-.3.6-.52,1-.66.4-.14.83-.21,1.28-.21.52,0,1.03.08,1.52.25s.9.39,1.22.67l-.59.88c-.64-.48-1.35-.72-2.14-.72-.42,0-.78.07-1.05.2-.28.13-.42.34-.42.61,0,.23.11.42.34.55.23.13.63.27,1.21.39.83.18,1.43.37,1.78.57.69.37,1.03.91,1.03,1.62,0,.34-.08.65-.25.93-.17.27-.38.49-.65.64-.27.15-.56.27-.87.35-.31.08-.63.11-.94.11Z"/>
    <path d="M66.32,2.56h1.14v6.81h-1.2v-4.75l-2.23,3.01-2.22-3.02v4.76h-1.19V2.56h1.1l2.3,3.17,2.29-3.17Z"/>
    <path d="M53.61,21.06v-6.81h5.22v1.1h-4.01v1.56h2.97v1.11h-2.97v1.93h4.06v1.11h-5.27Z"/>
    <path d="M60.48,21.06v-6.81h1.1l3.73,4.77v-4.77h1.2v6.81h-1.09l-3.75-4.79v4.79h-1.19Z"/>
    <path d="M70.13,21.06v-5.7h-2.18v-1.11h5.57v1.11h-2.18v5.7h-1.22Z"/>
    <path d="M74.98,21.06v-6.81h5.22v1.1h-4.01v1.56h2.97v1.11h-2.97v1.93h4.06v1.11h-5.27Z"/>
    <path d="M81.85,21.06v-6.81h3.54c.36,0,.67.06.94.19.27.12.48.29.62.5.14.21.25.43.32.65.07.23.1.47.1.71,0,.44-.11.84-.33,1.21-.22.37-.56.62-1.02.75l1.71,2.8h-1.35l-1.61-2.71h-1.71v2.71h-1.21ZM83.05,17.24h2.21c.29,0,.51-.08.66-.25s.23-.4.23-.69-.07-.5-.22-.67c-.14-.17-.35-.25-.62-.25h-2.26v1.87Z"/>
    <path d="M90.48,21.06v-5.7h-2.18v-1.11h5.57v1.11h-2.18v5.7h-1.22Z"/>
    <path d="M93.83,21.06l3.23-6.85h1.06l3.23,6.85h-1.29l-.73-1.59h-3.52l-.75,1.59h-1.22ZM96.32,18.39h2.5l-1.24-2.67-1.27,2.67Z"/>
    <path d="M102.57,21.06v-6.81h1.21v6.81h-1.21Z"/>
    <path d="M105.78,21.06v-6.81h1.1l3.73,4.77v-4.77h1.2v6.81h-1.09l-3.75-4.79v4.79h-1.19Z"/>
    <path d="M119.44,14.25h1.14v6.81h-1.2v-4.75l-2.23,3.01-2.22-3.02v4.76h-1.19v-6.81h1.1l2.3,3.17,2.3-3.17Z"/>
    <path d="M122.52,21.06v-6.81h5.22v1.1h-4.01v1.56h2.97v1.11h-2.97v1.93h4.06v1.11h-5.27Z"/>
    <path d="M129.39,21.06v-6.81h1.1l3.73,4.77v-4.77h1.2v6.81h-1.09l-3.75-4.79v4.79h-1.19Z"/>
    <path d="M139.05,21.06v-5.7h-2.18v-1.11h5.57v1.11h-2.18v5.7h-1.22Z"/>
  </g>
  <g>
    <path d="M38.81,19c0,1.79,1.45,3.24,3.24,3.24s3.24-1.45,3.24-3.24V6.29c0-2.19-1.78-3.97-3.97-3.97-.67,0-1.32.17-1.9.48-.36-1.59-1.78-2.78-3.47-2.78-.95,0-1.84.37-2.52,1.04l-8.25,8.25-7.81-7.72c-2.13-2.13-5.59-2.13-7.72,0-.27.27-.51.57-.71.88h0c-1.46,0-2.83.57-3.86,1.6-2.13,2.13-2.13,5.59,0,7.72l10.74,10.74c.9.9,1.39,2.09,1.39,3.37,0,.92-.26,1.8-.74,2.56-.89-.18-1.75-.61-2.44-1.3l-9.15-9.15c-.54-.54-1.25-.83-2.01-.83s-1.48.3-2.01.83c-.54.54-.83,1.25-.83,2.01s.3,1.48.83,2.01l7.74,7.74c1.03,1.03,2.4,1.6,3.86,1.6s2.83-.57,3.86-1.6c.17-.17.33-.36.48-.55.2.02.4.03.61.03,1.46,0,2.83-.57,3.86-1.6,1.03-1.03,1.6-2.4,1.6-3.86s-.57-2.83-1.6-3.86l-11.1-11.1c-1.52-1.52-1.8-3.83-.82-5.63,1.12.09,2.17.57,2.97,1.38l6.91,6.91c1.33,1.33,3.48,1.33,4.81,0l1.17-1.17.96.94c1.54,1.54,4.05,1.54,5.59,0l7.07-7.07v14.82h0ZM39.5,3.59h0c.53-.37,1.16-.56,1.81-.56,1.8,0,3.27,1.47,3.27,3.27v12.71c0,1.4-1.14,2.54-2.54,2.54s-2.54-1.14-2.54-2.54V3.59h0ZM15.8,29.27c-1.86,1.86-4.88,1.86-6.73,0l-7.74-7.74c-.4-.41-.63-.94-.63-1.52s.22-1.11.63-1.52c.4-.4.94-.63,1.52-.63s1.11.22,1.52.63l9.15,9.15c.69.69,1.54,1.18,2.47,1.42-.06.07-.12.13-.19.2ZM9.65,9.32l11.1,11.1c1.86,1.86,1.86,4.88,0,6.73-.97.97-2.26,1.44-3.53,1.39.44-.8.68-1.7.68-2.64,0-1.46-.57-2.83-1.6-3.86L5.55,11.3c-.9-.9-1.39-2.09-1.39-3.37s.5-2.47,1.39-3.37c.81-.81,1.86-1.29,2.98-1.38-.92,2.02-.55,4.48,1.11,6.13ZM23.52,10.99c-1.05,1.05-2.77,1.05-3.82,0l-6.91-6.91c-.84-.84-1.89-1.37-3.04-1.54.12-.16.25-.3.39-.45,1.85-1.86,4.88-1.86,6.73,0l7.81,7.72-1.17,1.17ZM38.51,3.49l-7.27,7.27c-1.27,1.27-3.34,1.27-4.61,0l-.96-.94L33.92,1.56c.54-.54,1.26-.84,2.02-.84,1.46,0,2.66,1.1,2.84,2.51-.09.08-.19.16-.27.25Z"/>
    <path d="M42.06,24.06c-1.92,0-3.48,1.56-3.48,3.48s1.56,3.48,3.48,3.48,3.48-1.56,3.48-3.48c0-1.92-1.56-3.48-3.48-3.48ZM42.06,30.33c-1.53,0-2.78-1.25-2.78-2.78s1.25-2.78,2.78-2.78,2.78,1.25,2.78,2.78-1.25,2.78-2.78,2.78Z"/>
  </g>
</svg>