<?xml version="1.0" encoding="UTF-8"?>
<svg id="_레이어_1" data-name="레이어 1" xmlns="http://www.w3.org/2000/svg" viewBox="0 0 146 24.98">
  <defs>
    <style>
      .cls-1 {
        fill: #231815;
      }

      .cls-2 {
        fill: #ee782f;
      }

      .cls-3 {
        fill: #d7da00;
      }
    </style>
  </defs>
  <path class="cls-2" d="M72.78,6.64c-.42,1.79-1.79,2.99-3.06,2.7-1.28-.3-1.98-1.98-1.57-3.77.42-1.78,1.78-2.99,3.06-2.69,1.28.3,1.98,1.98,1.57,3.76Z"/>
  <path class="cls-1" d="M3.5,12.76c.42-2.36.71-4.02,2.13-4.02s1.13,1.65.72,4.02c-.42,2.36-.71,4.01-2.13,4.01s-1.13-1.65-.71-4.01M.18,12.76c-.55,3.07.01,6.24,3.65,6.24s5.31-3.17,5.85-6.24c.55-3.07-.01-6.25-3.64-6.25S.72,9.69.18,12.76Z"/>
  <polygon class="cls-1" points="14.88 6.75 17.96 6.75 16.22 16.64 20.4 16.64 20.03 18.77 12.76 18.77 14.88 6.75"/>
  <polygon class="cls-1" points="25.15 6.75 28.24 6.75 26.12 18.77 23.04 18.77 25.15 6.75"/>
  <polygon class="cls-1" points="32.11 6.75 35.22 6.75 35.18 15.12 35.21 15.12 38.74 6.75 41.31 6.75 35.86 18.77 32.72 18.77 32.11 6.75"/>
  <polygon class="cls-1" points="87.33 14.09 85.58 6.75 88.8 6.75 89.58 11.48 92.35 6.75 95.09 6.75 90.45 13.92 89.59 18.77 86.51 18.77 87.33 14.09"/>
  <path class="cls-1" d="M99.95,12.76c.42-2.36.71-4.02,2.13-4.02s1.13,1.65.71,4.02c-.42,2.36-.71,4.01-2.13,4.01s-1.13-1.65-.72-4.01M96.63,12.76c-.54,3.07.01,6.24,3.64,6.24s5.31-3.17,5.85-6.24c.55-3.07-.01-6.25-3.64-6.25s-5.31,3.17-5.85,6.25Z"/>
  <path class="cls-1" d="M118.4,14.95c-.47,2.7-2.24,4.05-4.93,4.05s-3.78-1.47-3.33-4.05l1.45-8.2h3.09l-1.47,8.34c-.16.91.01,1.69,1.04,1.69s1.44-.94,1.59-1.84l1.44-8.18h2.57l-1.45,8.2Z"/>
  <polygon class="cls-1" points="124.59 6.75 127.73 6.75 129.83 13.66 129.87 13.96 129.86 13.66 131.06 6.75 133.35 6.75 131.23 18.77 128.15 18.77 126.03 11.76 126 11.5 126 11.76 124.81 18.77 122.47 18.77 124.59 6.75"/>
  <path class="cls-3" d="M81.47,12.49c0,6.9-5.59,12.49-12.49,12.49s-12.49-5.59-12.49-12.49S62.08,0,68.98,0s12.49,5.59,12.49,12.49M71.51,1.54c-3.63-.84-7.71,3.4-9.1,9.47-1.4,6.06.4,11.66,4.03,12.5,3.63.84,7.7-3.4,9.1-9.47,1.4-6.06-.4-11.66-4.03-12.5Z"/>
  <path class="cls-1" d="M146,13.04h-4.57l-.27,1.49h1.34c-.16,1.16-.84,2.25-1.89,2.25-1.44,0-1.29-1.53-.85-4,.4-2.22.9-4.03,2.2-4.03,1.15,0,1.1.88.93,2.29h2.98c.47-2.67-.56-4.52-3.59-4.52-3.75,0-5.34,3.36-5.9,6.55-.62,3.48.25,5.94,3.44,5.94.93,0,2.06-.39,2.88-1.17l.4,1.11h1.28l.87-4.91h.56l.18-1.01Z"/>
  <polygon class="cls-1" points="46.97 13.84 50.05 13.84 50.47 11.51 47.38 11.51 47.81 9.08 51.91 9.08 52.33 6.75 45.13 6.75 43.01 18.77 50.7 18.77 51.12 16.34 46.53 16.34 46.97 13.84"/>
</svg>