<svg width="256" height="256" viewBox="0 0 256 256" fill="none" xmlns="http://www.w3.org/2000/svg">
<path fill-rule="evenodd" clip-rule="evenodd" d="M128 252C196.483 252 252 196.483 252 128C252 59.5167 196.483 4 128 4C59.5167 4 4 59.5167 4 128C4 196.483 59.5167 252 128 252ZM104.441 233.761C140.958 242.363 181.71 202.01 195.462 143.629C209.215 85.249 190.761 30.9487 154.244 22.3465C117.727 13.7442 76.9755 54.0974 63.2228 112.478C49.4702 170.858 67.9242 225.159 104.441 233.761Z" fill="#82DC28"/>
<ellipse cx="142.903" cy="64.2256" rx="24.3574" ry="33.2825" transform="rotate(13.6217 142.903 64.2256)" fill="#FF7878"/>
</svg>
