<svg width="100" height="34" viewBox="0 0 100 34" fill="none" xmlns="http://www.w3.org/2000/svg">
<g clip-path="url(#clip0_6_5)">
<path d="M87.7785 20.0607C105.532 10.9652 103.304 2.2685 85.2395 0.468855C65.7742 -1.46698 37.3398 2.71598 17.5242 10.722L14.781 11.899C-5.8517 21.121 -3.89641 30.8877 14.5183 32.6679C34.6452 34.6135 65.2391 30.6348 85.2687 21.3058L87.7688 20.0509L87.7785 20.0607Z" fill="#004093"/>
<path d="M83.9457 21.8408C83.9457 21.8408 80.5507 22.1132 80.4729 19.3797V14.0878C80.4729 14.0878 80.0546 11.1694 83.8484 11.1694C83.8484 11.1694 86.3193 11.0916 86.9808 12.5605C86.9808 12.5605 87.3018 12.9496 87.2143 14.5741H84.578V13.7473C84.578 13.7473 84.578 13.0761 83.8874 13.0761C83.8874 13.0761 83.1675 13.1053 83.1675 13.6695V19.1365C83.1675 19.1365 83.1383 19.8758 83.9457 19.8758C83.9457 19.8758 84.6072 19.8564 84.6072 19.0879V17.5022H83.8874V16.0333H87.2726V19.1365C87.2726 19.1365 87.2726 19.7883 86.9905 20.1676C86.9905 20.1676 86.7182 20.5859 86.6111 20.6638C86.6111 20.6638 85.6967 21.8311 83.936 21.8311" fill="white"/>
<path d="M76.9709 11.5682H74.3346L74.5195 17.6287H74.4125L71.7373 11.578H68.5369V21.5587H71.1439L70.9785 15.4496H71.0953L73.8677 21.5587H76.9709V11.5682Z" fill="white"/>
<path d="M60.6379 11.5293H57.7876V19.0197C57.7876 19.0197 57.4958 21.8505 61.4939 21.8505C61.4939 21.8505 64.9668 21.8894 64.9668 19.1462V11.5293H62.1749V19.0586C62.1749 19.0586 62.2138 19.8855 61.4453 19.8855C61.4453 19.8855 60.6379 19.9244 60.6379 19.0781V11.5293Z" fill="white"/>
<path d="M54.5094 14.6228V13.3679C54.5094 13.3679 54.7039 11.3154 51.4062 11.2278C51.4062 11.2278 48.8089 11.0527 48.0696 12.4535C48.0696 12.4535 47.7777 12.7648 47.7777 13.8543V14.6423C47.7777 14.6423 47.7485 15.547 48.2057 16.1306C48.2057 16.1306 48.4684 16.51 49.1104 16.9381C49.1104 16.9381 50.414 17.6385 51.2019 18.047C51.2019 18.047 51.9899 18.4945 51.8926 19.2144C51.8926 19.2144 51.8245 19.9537 51.0657 19.9245C51.0657 19.9245 50.3653 19.8953 50.3653 19.1755V18.3291H47.5637V19.5646C47.5637 19.5646 47.4859 21.9284 51.0852 21.9284C51.0852 21.9284 54.5191 21.9965 54.6845 19.5062V18.5042C54.6845 18.5042 54.8012 16.977 53.4685 16.1696C53.4685 16.1696 52.7584 15.7221 52.3109 15.5567C52.3109 15.5567 50.9393 14.9244 50.6766 14.6228C50.6766 14.6228 50.1416 14.117 50.4529 13.5333C50.4529 13.5333 50.5793 13.1539 51.1435 13.1539C51.1435 13.1539 51.8731 13.1928 51.8731 13.796V14.6423H54.4996L54.5094 14.6228Z" fill="white"/>
<path d="M33.6918 11.5682L33.4778 21.5587H36.0752L36.1043 14.0294H36.3086L37.69 21.5587H40.4235L41.7854 14.0391H41.9605L42.0286 21.5587H44.6356L44.3633 11.5682H40.0149L39.1297 17.0353H38.9254L38.0791 11.5682H33.6918Z" fill="white"/>
<path d="M30.686 21.5491L28.9544 11.5586H24.538L22.8064 21.5491H25.608L26.6295 13.8057H26.8629L27.8843 21.5491H30.686Z" fill="white"/>
<path d="M20.0632 14.6228V13.3679C20.0632 13.3679 20.2577 11.3154 16.96 11.2278C16.96 11.2278 14.3627 11.0527 13.6234 12.4535C13.6234 12.4535 13.3315 12.7648 13.3315 13.8543V14.6423C13.3315 14.6423 13.3024 15.547 13.7596 16.1306C13.7596 16.1306 14.0222 16.51 14.6643 16.9381C14.6643 16.9381 15.9678 17.6385 16.7557 18.047C16.7557 18.047 17.5437 18.4945 17.4464 19.2144C17.4464 19.2144 17.3783 19.9537 16.6195 19.9245C16.6195 19.9245 15.9191 19.8953 15.9191 19.1755V18.3291H13.1175V19.5646C13.1175 19.5646 13.0397 21.9284 16.639 21.9284C16.639 21.9284 20.0729 21.9965 20.2383 19.5062V18.5042C20.2383 18.5042 20.355 16.977 19.0223 16.1696C19.0223 16.1696 18.3025 15.7221 17.8647 15.5567C17.8647 15.5567 16.4931 14.9244 16.2304 14.6228C16.2304 14.6228 15.6954 14.117 16.0067 13.5333C16.0067 13.5333 16.1429 13.1539 16.6974 13.1539C16.6974 13.1539 17.4269 13.1928 17.4269 13.796V14.6423H20.0535L20.0632 14.6228Z" fill="white"/>
</g>
<defs>
<clipPath id="clip0_6_5">
<rect width="100" height="34" fill="white"/>
</clipPath>
</defs>
</svg>
