<?xml version="1.0" encoding="UTF-8"?>
<svg id="_레이어_1" data-name="레이어 1" xmlns="http://www.w3.org/2000/svg" viewBox="0 0 127.05 39.46">
  <defs>
    <style>
      .cls-1 {
        fill: #2d2d2d;
      }
    </style>
  </defs>
  <path class="cls-1" d="M10.5,5.66c-.52-1.35-1.25-2.13-2.76-2.13s-3.11,1.25-3.37,3.04c-.26,1.69,1.23,2.47,2.34,3.06l1.08.57c2.17,1.12,3.94,2.39,3.49,5.5-.5,3.43-3.37,6.05-6.46,6.05-2.85,0-4.69-2.02-4.81-5.06l2.01-.6c-.02,2,1.13,3.63,3.04,3.63s3.89-1.61,4.22-3.81c.33-2.28-1.2-3.06-2.74-3.89l-.99-.52c-1.93-1.04-3.56-2.21-3.16-5.01.45-3.04,3.04-4.98,5.69-4.98,1.98,0,3.52,1.12,4.18,3.04l-1.75,1.12Z"/>
  <polygon class="cls-1" points="15.33 21.41 13.44 21.41 14.93 11.13 13.78 11.13 14.04 9.21 15.19 9.21 15.83 4.83 17.71 4.83 17.08 9.21 19.06 9.21 18.8 11.13 16.82 11.13 15.33 21.41"/>
  <path class="cls-1" d="M21.54,16.01c-.31,2.05-.33,3.81,1.96,3.81s2.74-1.76,3.04-3.81l.97-6.8h1.89l-.99,7.03c-.47,3.24-1.91,5.5-5.19,5.5s-4.06-2.26-3.59-5.5l.99-7.03h1.89l-.97,6.8Z"/>
  <path class="cls-1" d="M39.56,19.72h-.05c-1.11,1.32-2.59,2.02-4.1,2.02-3.26,0-4.88-3.04-4.39-6.41.5-3.48,2.95-6.46,6.27-6.46,1.49,0,2.78.78,3.49,2.08h.05l1.58-10.95h1.89l-3.09,21.41h-1.89l.24-1.69ZM32.98,15.18c-.35,2.39.61,4.64,2.97,4.64s4.01-2.15,4.36-4.62c.35-2.44-.75-4.41-3.09-4.41-2.19,0-3.92,2.1-4.25,4.39"/>
  <path class="cls-1" d="M46.94,21.41h-1.89l1.75-12.2h1.89l-1.75,12.2ZM49.75,4.62c-.12.83-.83,1.48-1.56,1.48s-1.25-.65-1.13-1.48c.12-.8.85-1.48,1.58-1.48s1.23.67,1.11,1.48"/>
  <path class="cls-1" d="M50.76,15.34c.52-3.58,3.52-6.46,6.77-6.46s5.4,2.88,4.88,6.46c-.52,3.58-3.51,6.41-6.75,6.41s-5.43-2.83-4.91-6.41M52.65,15.31c-.35,2.49.97,4.51,3.3,4.51s4.22-2.02,4.58-4.51c.35-2.47-.94-4.52-3.28-4.52s-4.25,2.05-4.6,4.52"/>
  <polygon class="cls-1" points="73.67 19.38 78.57 19.38 78.29 21.41 71.4 21.41 74.21 1.84 76.19 1.84 73.67 19.38"/>
  <path class="cls-1" d="M99.31,11.65c-.83,5.63-5.66,10.09-10.73,10.09s-8.63-4.46-7.81-10.09c.8-5.6,5.64-10.15,10.71-10.15s8.63,4.54,7.83,10.15M82.75,11.62c-.64,4.41,2.08,8.1,6.11,8.1s7.83-3.68,8.47-8.1c.64-4.44-2.05-8.1-6.13-8.1s-7.81,3.66-8.45,8.1"/>
  <polygon class="cls-1" points="106.62 16.5 114.64 .83 118.13 16.5 124.9 1.84 127.05 1.84 117.28 22.42 113.79 6.67 105.77 22.42 101.9 1.84 104.05 1.84 106.62 16.5"/>
  <g>
    <path class="cls-1" d="M43.58,37.8l-.83-2.05h-4.11l-.82,2.04h-1.11l3.35-8.21h1.29l3.36,8.22h-1.11ZM40.7,30.66l-1.66,4.1h3.3l-1.64-4.1Z"/>
    <path class="cls-1" d="M51.12,35.92c-.14.54-.44,1.02-.9,1.45-.46.42-1.09.64-1.89.64-.93,0-1.67-.3-2.21-.91-.54-.61-.81-1.37-.81-2.29s.27-1.68.81-2.29c.54-.61,1.28-.91,2.21-.91.81,0,1.46.23,1.93.68.48.46.76.92.86,1.4h-1.17c-.06-.25-.22-.5-.46-.76-.25-.26-.63-.39-1.16-.39-.57,0-1.02.21-1.36.63-.33.42-.5.96-.5,1.63s.17,1.21.5,1.63c.33.42.78.64,1.36.64.45,0,.81-.12,1.08-.35.27-.24.45-.5.54-.81h1.17Z"/>
    <path class="cls-1" d="M57.2,37.8c-.07-.11-.12-.25-.14-.41s-.04-.31-.05-.45c-.24.25-.55.49-.93.7-.38.21-.81.33-1.29.35-.6.03-1.13-.07-1.58-.31-.45-.24-.71-.63-.78-1.17-.08-.55.02-.98.31-1.29.28-.31.65-.52,1.09-.65.35-.11.73-.17,1.12-.2.39-.02.77-.07,1.15-.14.19-.04.39-.09.59-.14.2-.06.3-.23.3-.5,0-.25-.12-.5-.35-.74-.23-.24-.63-.36-1.2-.36s-.99.11-1.24.32c-.26.22-.37.48-.33.79h-1.07c-.05-.64.19-1.13.72-1.48.53-.34,1.17-.52,1.92-.52.69,0,1.3.17,1.84.52.54.34.81.82.81,1.43v3.28c0,.28.04.5.11.68.07.17.11.27.12.28h-1.14ZM57.01,34.69c-.08.05-.17.11-.29.16-.12.05-.23.09-.35.12-.23.05-.54.1-.93.13-.39.03-.68.08-.86.14-.35.11-.61.24-.8.4-.19.16-.25.4-.21.71.04.32.19.53.47.63s.57.15.87.13c.69-.05,1.21-.25,1.56-.6s.53-.69.53-1v-.83Z"/>
    <path class="cls-1" d="M64.8,37.78v-.64c-.27.28-.58.49-.92.64-.34.15-.7.23-1.09.23-.86,0-1.55-.3-2.08-.89-.53-.59-.79-1.36-.79-2.29s.26-1.73.79-2.31c.53-.58,1.22-.87,2.08-.87.39,0,.75.07,1.09.22.34.15.64.36.92.64v-2.93h1.09v8.2h-1.09ZM64.32,36.46c.32-.39.48-.93.48-1.63s-.16-1.24-.48-1.62c-.32-.38-.78-.57-1.37-.57s-1.03.2-1.35.6c-.32.4-.48.93-.48,1.59s.16,1.19.48,1.6c.32.41.77.61,1.35.61s1.05-.19,1.37-.58Z"/>
    <path class="cls-1" d="M68.84,35.11c.02.6.21,1.09.58,1.47.37.37.81.56,1.31.56s.86-.11,1.11-.32c.25-.22.4-.42.46-.61h1.14c-.12.39-.4.78-.82,1.17-.42.39-1.05.58-1.88.58-.87,0-1.59-.3-2.14-.89-.56-.59-.83-1.35-.83-2.26s.27-1.66.81-2.24c.54-.58,1.26-.87,2.16-.87.8,0,1.5.27,2.09.81.59.54.88,1.41.86,2.62h-4.84ZM72.59,34.31c-.03-.56-.21-1-.53-1.33-.32-.33-.76-.49-1.32-.49-.52,0-.94.15-1.28.45-.34.3-.53.75-.58,1.37h3.72Z"/>
    <path class="cls-1" d="M82.62,37.79v-3.76c-.01-.48-.08-.84-.21-1.09-.14-.25-.44-.36-.92-.34-.4.03-.72.19-.96.47-.24.28-.36.67-.36,1.18v3.54h-1.07v-3.76c0-.48-.07-.84-.2-1.09-.13-.25-.44-.36-.92-.34-.41.03-.73.19-.97.47-.24.28-.36.67-.36,1.18v3.54h-1.05v-5.94h1.05v.72c.2-.22.46-.45.79-.67s.73-.31,1.23-.27c.28.03.53.13.76.29.23.16.41.41.54.74.15-.18.4-.41.75-.69.35-.29.84-.4,1.45-.34.58.07.97.31,1.18.74.21.42.31.88.31,1.37v4.05h-1.04Z"/>
    <path class="cls-1" d="M88.37,38.42c-.08.19-.18.36-.32.5-.14.14-.28.26-.43.34-.18.09-.35.15-.52.17-.17.02-.34.02-.52.02h-.36v-.88h.54c.17,0,.31-.06.42-.16.11-.1.19-.21.25-.33l.27-.57-2.46-5.69h1.09s1.85,4.36,1.85,4.36l1.85-4.36h1.09l-2.76,6.59Z"/>
  </g>
</svg>