<svg width="184" height="48" viewBox="0 0 184 48" fill="none" xmlns="http://www.w3.org/2000/svg">
<g clip-path="url(#clip0_18_503)">
<path d="M23.0248 12.9789H26.944V11H6.21707V12.9789H10.1749L3.09454 20.0335L1 18.0803V27.3451H10.2262L8.32446 25.3405L12.3336 21.3313V29.4397H7.29647L16.587 39L25.8389 29.4397H20.9688V21.3313L24.8752 25.3405L22.9348 27.3451H32.1611V18.196L30.1051 20.0978L23.0248 12.9789Z" fill="black"/>
<path d="M104.982 32.3694C104.018 33.089 102.514 33.2303 101.384 32.7806C98.3639 31.6883 98.0427 27.4736 98.017 24.2996C98.0941 21.5497 98.274 18.7099 100.458 16.8595C101.448 15.8572 103.08 15.8572 104.288 16.4226C105.753 17.0009 106.691 18.5043 106.883 19.9949H112.409C112.242 18.9798 111.856 18.106 111.33 17.2322C109.094 13.7241 105.252 12.195 101.229 12.6961C97.8242 13.1459 94.933 14.8806 93.5324 19.1854C92.3116 23.9912 92.3502 30.0435 95.7811 33.7572C98.4667 36.6356 102.656 37.4965 106.472 36.3529C109.466 35.3891 112.139 32.2152 112.473 29.0541H106.909C106.601 30.2491 106.19 31.5984 105.007 32.3694H104.982Z" fill="black"/>
<path d="M143.095 26.7668L134.768 13.3772H130.155V36.1987H134.935V22.6677L143.262 36.1987H147.926V13.3772H143.095V26.7668Z" fill="black"/>
<path d="M148.877 17.4122H155.456V36.1988H160.198V17.4122H166.571V13.3901H148.864L148.877 17.4122Z" fill="black"/>
<path d="M113.193 36.1988H129.191V32.1125H118.179V26.3943H128.137V22.3851H118.191V17.4507H129.191V13.3901H113.193V36.1988Z" fill="black"/>
<path d="M56.8329 36.1988H72.8311V32.1125H61.8187V26.3943H71.7774V22.3851H61.8316V17.4507H72.8311V13.3901H56.8329V36.1988Z" fill="black"/>
<path d="M183.469 17.4507V13.3901H167.471V36.1988H183.469V32.1125H172.457V26.3943H182.415V22.3851H172.469V17.4507H183.469Z" fill="black"/>
<path d="M88.6108 23.4388L79.8215 20.4833C79.0762 20.2263 78.4722 19.4296 78.4465 18.6329C78.3951 17.9776 78.6136 17.425 79.089 17.001C80.6567 15.8188 83.1496 15.8959 84.9229 16.5898C86.1694 17.1937 86.9917 18.6458 86.9917 19.995H91.5792C91.5021 18.5815 91.0909 17.168 90.4484 15.9858C88.3795 12.6705 84.6916 12.1694 80.9908 12.4135C78.0096 12.5035 74.9128 14.3153 73.9234 17.2194C73.2809 19.2368 73.8848 21.3699 75.2726 22.8605C78.2538 25.5976 82.2887 25.7389 85.7453 27.3323C85.7453 27.3323 86.3107 27.6664 86.5677 28.0262C87.0174 28.643 87.2359 29.3754 87.0945 30.185C86.9789 30.8403 86.542 31.4186 85.9124 31.7655C84.7687 32.408 82.3786 32.6779 80.721 32.151C79.3075 31.7655 78.151 30.4163 77.7912 29.0542H72.9468C73.0239 31.38 74.2189 33.3718 76.185 34.8367C79.7187 37.1111 85.3341 37.458 88.9835 35.1708C91.0652 33.6545 92.4144 31.5214 92.2988 28.9C92.2474 26.587 90.7439 24.3768 88.598 23.4259L88.6108 23.4388Z" fill="black"/>
<path d="M47.581 13.4929C45.8077 13.3644 44.2015 13.3644 44.2015 13.3644H37.0184V36.1987H44.2143C47.0542 36.1987 49.9325 36.2758 52.0913 34.6182C56.6274 31.2258 56.5888 24.6466 55.1882 19.7765C54.2758 16.5126 50.9348 13.8013 47.581 13.48V13.4929ZM49.7269 30.0821C47.9665 32.665 44.6769 31.9839 41.9913 32.1124V17.425C44.5613 17.5021 47.5425 17.0652 49.2387 19.1083C51.5516 22.0381 51.5645 26.9339 49.7269 30.0821Z" fill="black"/>
</g>
<defs>
<clipPath id="clip0_18_503">
<rect width="182.469" height="28" fill="white" transform="translate(1 11)"/>
</clipPath>
</defs>
</svg>
