<svg width="182" height="48" viewBox="0 0 182 48" fill="none" xmlns="http://www.w3.org/2000/svg">
<g clip-path="url(#clip0_18_629)">
<path d="M10.8134 6C5.41215 6 1 10.3991 1 15.8134V42H4.26681V15.8134C4.26681 12.1952 7.19523 9.26681 10.8134 9.26681H172.085C175.703 9.26681 178.631 12.1952 178.631 15.8134V42H181.898V15.8134C181.898 10.3991 177.486 6 172.085 6H10.8134Z" fill="#221F1F"/>
<path d="M31.1562 35.102C31.1562 35.3623 30.987 35.4534 30.7137 35.4534H28.2928C28.0065 35.4534 27.9154 35.3623 27.9154 35.0759V28.4772C27.9154 28.1779 27.7071 28.0087 27.4078 28.0087H21.0434C20.757 28.0087 20.6009 28.1779 20.6009 28.4772V35.0759C20.6009 35.3623 20.4317 35.4534 20.1844 35.4534H17.7115C17.4772 35.4534 17.3861 35.3623 17.3861 35.102V18.7028C17.3861 18.4425 17.4772 18.3124 17.7115 18.3124H20.1844C20.4447 18.3124 20.6009 18.4555 20.6009 18.7028V25.0542C20.6009 25.3536 20.7701 25.4968 21.0434 25.4968H27.4078C27.7071 25.4968 27.9154 25.3536 27.9154 25.0542V18.7028C27.9154 18.4425 28.0065 18.3124 28.2928 18.3124H30.7137C31 18.3124 31.1562 18.4555 31.1562 18.7028V35.102Z" fill="#221F1F"/>
<path d="M37.013 35.6876C35.2169 35.6876 34.2798 34.2429 34.2798 33.0065V22.8156C34.2798 22.5162 34.397 22.373 34.6703 22.373H37C37.2343 22.373 37.3905 22.5162 37.3905 22.8156V32.6681C37.3905 32.9544 37.5076 33.0845 37.833 33.0845H42.102C42.3883 33.0845 42.5705 32.9414 42.5705 32.6681V22.8156C42.5705 22.5162 42.6877 22.373 42.961 22.373H45.2907C45.551 22.373 45.7072 22.5162 45.7072 22.8156V37.6789C45.7072 38.0563 45.59 38.4078 45.4208 38.7462L43.833 41.3362C43.6898 41.5704 43.4816 41.7136 43.2473 41.7136H42.948C42.6616 41.7136 42.5575 41.5444 42.5575 41.2971V34.7114C42.5575 34.4251 42.3883 34.321 42.141 34.3861L37.6638 35.6485C37.4556 35.7006 37.1952 35.7006 36.987 35.7006L37.013 35.6876Z" fill="#221F1F"/>
<path d="M51.5509 35.6616C50.1323 35.6616 48.8698 34.4903 48.8698 32.9805V22.8026C48.8698 22.5033 48.987 22.3601 49.2603 22.3601H51.616C51.8243 22.3601 51.9935 22.5033 51.9935 22.8026V32.6551C51.9935 32.9415 52.1366 33.0456 52.462 33.0456H56.731C57.0173 33.0456 57.1995 32.9284 57.1995 32.6551V22.8026C57.1995 22.5033 57.2906 22.3601 57.577 22.3601H59.9067C60.167 22.3601 60.3232 22.5033 60.3232 22.8026V35.102C60.3232 35.3623 60.154 35.4534 59.9067 35.4534H57.577C57.2906 35.4534 57.1995 35.3623 57.1995 35.0759V34.6985C57.1995 34.3992 57.0173 34.282 56.757 34.3731L52.2798 35.5835C52.0455 35.6486 51.7852 35.6486 51.5509 35.6486V35.6616Z" fill="#221F1F"/>
<path d="M74.9002 24.885V35.102C74.9002 35.3623 74.731 35.4534 74.4837 35.4534H72.154C71.8677 35.4534 71.7766 35.3623 71.7766 35.0759V25.2234C71.7766 24.9241 71.5943 24.7549 71.308 24.7549H67.039C66.7137 24.7549 66.5705 24.9241 66.5705 25.2234V35.0759C66.5705 35.3623 66.4013 35.4534 66.193 35.4534H63.8373C63.551 35.4534 63.4468 35.3623 63.4468 35.102V22.8026C63.4468 22.5033 63.564 22.3601 63.8373 22.3601H66.193C66.4013 22.3601 66.5705 22.5033 66.5705 22.8026V23.1931C66.5705 23.4534 66.6876 23.5705 67.039 23.4794L71.5032 22.269C71.7375 22.2169 71.9458 22.1519 72.18 22.1519C73.7158 22.1519 74.9132 23.4404 74.9132 24.885H74.9002Z" fill="#221F1F"/>
<path d="M77.5683 32.9805V27.0976C77.5683 25.8351 78.1019 24.885 79.2212 24.2733L81.6941 22.8286C82.2017 22.5033 82.7223 22.3601 83.334 22.3601H85.4815C85.7809 22.3601 85.924 22.243 85.924 21.9696V17.141C85.924 16.8807 86.0412 16.6985 86.2754 16.6985H88.6572C88.9436 16.6985 89.0477 16.8807 89.0477 17.141V35.115C89.0477 35.3753 88.9305 35.4664 88.6572 35.4664H86.2754C86.0412 35.4664 85.924 35.3753 85.924 35.0889V34.7115C85.924 34.4122 85.7809 34.295 85.4815 34.3861L80.9783 35.5965C80.718 35.6616 80.5097 35.6616 80.2755 35.6616C79.065 35.7137 77.5683 34.5944 77.5683 32.9805ZM85.911 32.6551V25.2625C85.911 24.9371 85.7679 24.7679 85.4425 24.7679H81.1214C80.7961 24.7679 80.6789 24.9371 80.6789 25.2625V32.6551C80.6789 32.9414 80.7961 33.0456 81.1214 33.0456H85.4425C85.7679 33.0456 85.911 32.9284 85.911 32.6551Z" fill="#221F1F"/>
<path d="M94.41 35.6616C92.9393 35.6616 91.7028 34.4772 91.7028 32.9805V27.0976C91.7028 25.8352 92.2364 24.8851 93.3297 24.2733L95.8286 22.8287C96.3362 22.5033 96.8568 22.3601 97.4425 22.3601H102.792C103.052 22.3601 103.182 22.5033 103.182 22.8026V35.102C103.182 35.3623 103.039 35.4534 102.792 35.4534H100.41C100.15 35.4534 100.059 35.3623 100.059 35.0759V34.6985C100.059 34.3992 99.8894 34.282 99.59 34.3731L95.1128 35.5835C94.8525 35.6486 94.6442 35.6486 94.41 35.6486V35.6616ZM100.059 32.6551V25.2625C100.059 24.9371 99.8894 24.7679 99.59 24.7679H95.269C94.9436 24.7679 94.8265 24.9371 94.8265 25.2625V32.6551C94.8265 32.9415 94.9436 33.0456 95.269 33.0456H99.59C99.8894 33.0456 100.059 32.9284 100.059 32.6551Z" fill="#221F1F"/>
<path d="M109.429 19.0542C109.429 19.3406 109.26 19.4317 109.039 19.4317H106.709C106.41 19.4317 106.319 19.3406 106.319 19.0542V17.141C106.319 16.8807 106.41 16.6985 106.709 16.6985H109.039C109.273 16.6985 109.429 16.8807 109.429 17.141V19.0542ZM109.429 35.102C109.429 35.3623 109.26 35.4534 109.039 35.4534H106.709C106.41 35.4534 106.319 35.3623 106.319 35.102V22.8026C106.319 22.5033 106.41 22.3601 106.709 22.3601H109.039C109.273 22.3601 109.429 22.5033 109.429 22.8026V35.102Z" fill="#221F1F"/>
<path d="M115.976 32.0954V23.2581C115.976 21.9566 116.536 20.9414 117.681 20.2646L120.414 18.7418C120.909 18.4425 121.482 18.2993 122.028 18.2993H127.82C128.106 18.2993 128.236 18.4425 128.236 18.7158V20.4208C128.236 20.6811 128.093 20.7982 127.82 20.7982H119.725C119.438 20.7982 119.334 20.9674 119.334 21.2668V32.5119C119.334 32.8112 119.451 32.9544 119.725 32.9544H128.054C128.315 32.9544 128.471 33.0716 128.471 33.3058C128.471 33.5661 128.354 33.7744 128.093 33.9175L126.089 35.0368C125.555 35.3362 124.996 35.4533 124.436 35.4533H119.399C117.746 35.4533 115.989 34.2689 115.989 32.0954H115.976Z" fill="#221F1F"/>
<path d="M133.117 35.6616C131.646 35.6616 130.41 34.4772 130.41 32.9805V27.0976C130.41 25.8352 130.944 24.8851 132.05 24.2733L134.549 22.8287C135.056 22.5033 135.577 22.3601 136.163 22.3601H141.512C141.772 22.3601 141.902 22.5033 141.902 22.8026V35.102C141.902 35.3623 141.759 35.4534 141.512 35.4534H139.13C138.87 35.4534 138.779 35.3623 138.779 35.0759V34.6985C138.779 34.3992 138.609 34.282 138.31 34.3731L133.833 35.5835C133.573 35.6486 133.364 35.6486 133.13 35.6486L133.117 35.6616ZM138.753 32.6551V25.2625C138.753 24.9371 138.583 24.7679 138.284 24.7679H133.963C133.638 24.7679 133.521 24.9371 133.521 25.2625V32.6551C133.521 32.9415 133.638 33.0456 133.963 33.0456H138.284C138.583 33.0456 138.753 32.9284 138.753 32.6551Z" fill="#221F1F"/>
<path d="M153.603 24.4165C153.603 24.6507 153.434 24.7679 153.187 24.7679H148.592C148.293 24.7679 148.176 24.9371 148.176 25.2364V35.0889C148.176 35.3752 147.993 35.4663 147.759 35.4663H145.403C145.117 35.4663 145.026 35.3752 145.026 35.1149V22.8156C145.026 22.5162 145.117 22.3731 145.403 22.3731H147.759C147.993 22.3731 148.176 22.5162 148.176 22.8156V23.193C148.176 23.4533 148.293 23.5705 148.592 23.5705C148.657 23.5705 148.761 23.5705 148.852 23.5184L150.206 22.6334C150.701 22.3731 151.208 22.2429 151.82 22.2429H153.2C153.46 22.2429 153.616 22.3861 153.616 22.6334V24.4295L153.603 24.4165Z" fill="#221F1F"/>
<path d="M154.072 32.9805V27.0976C154.072 25.8351 154.605 24.885 155.724 24.2733L158.197 22.8286C158.705 22.5033 159.226 22.3601 159.837 22.3601H161.985C162.284 22.3601 162.427 22.243 162.427 21.9696V17.141C162.427 16.8807 162.544 16.6985 162.779 16.6985H165.16C165.434 16.6985 165.551 16.8807 165.551 17.141V35.115C165.551 35.3753 165.434 35.4664 165.16 35.4664H162.779C162.544 35.4664 162.427 35.3753 162.427 35.0889V34.7115C162.427 34.4122 162.284 34.295 161.985 34.3861L157.482 35.5965C157.221 35.6616 157.013 35.6616 156.779 35.6616C155.568 35.7137 154.072 34.5944 154.072 32.9805ZM162.427 32.6551V25.2625C162.427 24.9371 162.284 24.7679 161.959 24.7679H157.638C157.312 24.7679 157.195 24.9371 157.195 25.2625V32.6551C157.195 32.9414 157.312 33.0456 157.638 33.0456H161.959C162.284 33.0456 162.427 32.9284 162.427 32.6551Z" fill="#221F1F"/>
</g>
<defs>
<clipPath id="clip0_18_629">
<rect width="180.911" height="36" fill="white" transform="translate(1 6)"/>
</clipPath>
</defs>
</svg>
