<svg width="198" height="48" viewBox="0 0 198 48" fill="none" xmlns="http://www.w3.org/2000/svg">
<path d="M106.918 28.2062C128.34 17.2311 125.652 6.73728 103.854 4.56574C80.3663 2.22987 46.056 7.27723 22.1456 16.9376L18.8354 18.3579C-6.06095 29.4856 -3.7016 41.2706 18.5185 43.4187C42.8045 45.7663 79.7207 40.9654 103.889 29.7086L106.906 28.1944L106.918 28.2062Z" fill="#004093"/>
<path d="M102.293 30.3542C102.293 30.3542 98.1966 30.6828 98.1027 27.3845V20.999C98.1027 20.999 97.5979 17.4775 102.176 17.4775C102.176 17.4775 105.157 17.3836 105.955 19.1561C105.955 19.1561 106.343 19.6256 106.237 21.5859H103.056V20.5881C103.056 20.5881 103.056 19.7782 102.223 19.7782C102.223 19.7782 101.354 19.8134 101.354 20.4942V27.091C101.354 27.091 101.319 27.9831 102.293 27.9831C102.293 27.9831 103.091 27.9596 103.091 27.0323V25.119H102.223V23.3466H106.308V27.091C106.308 27.091 106.308 27.8775 105.967 28.3352C105.967 28.3352 105.638 28.84 105.509 28.9339C105.509 28.9339 104.406 30.3424 102.281 30.3424" fill="white"/>
<path d="M93.8768 17.9589H90.6958L90.9188 25.2717H90.7897L87.5618 17.9706H83.7V30.0138H86.8457L86.6462 22.6423H86.7871L90.1324 30.0138H93.8768V17.9589Z" fill="white"/>
<path d="M74.1686 17.9119H70.7293V26.9502C70.7293 26.9502 70.3772 30.3659 75.2015 30.3659C75.2015 30.3659 79.392 30.4129 79.392 27.1028V17.9119H76.0232V26.9971C76.0232 26.9971 76.0702 27.9948 75.1428 27.9948C75.1428 27.9948 74.1686 28.0418 74.1686 27.0206V17.9119Z" fill="white"/>
<path d="M66.7737 21.6446V20.1304C66.7737 20.1304 67.0085 17.6536 63.0293 17.548C63.0293 17.548 59.8952 17.3367 59.0031 19.027C59.0031 19.027 58.651 19.4026 58.651 20.7173V21.6681C58.651 21.6681 58.6158 22.7597 59.1675 23.464C59.1675 23.464 59.4844 23.9218 60.2591 24.4382C60.2591 24.4382 61.832 25.2834 62.7828 25.7764C62.7828 25.7764 63.7336 26.3163 63.6162 27.1849C63.6162 27.1849 63.534 28.077 62.6184 28.0418C62.6184 28.0418 61.7733 28.0066 61.7733 27.138V26.1168H58.3927V27.6075C58.3927 27.6075 58.2988 30.4599 62.6419 30.4599C62.6419 30.4599 66.7854 30.542 66.985 27.5371V26.3281C66.985 26.3281 67.1258 24.4852 65.5177 23.5109C65.5177 23.5109 64.6609 22.971 64.1209 22.7714C64.1209 22.7714 62.4658 22.0085 62.1489 21.6446C62.1489 21.6446 61.5033 21.0342 61.8789 20.3299C61.8789 20.3299 62.0315 19.8721 62.7123 19.8721C62.7123 19.8721 63.5927 19.9191 63.5927 20.6468V21.6681H66.762L66.7737 21.6446Z" fill="white"/>
<path d="M41.6542 17.9589L41.396 30.0138H44.5301L44.5653 20.9286H44.8118L46.4786 30.0138H49.777L51.4203 20.9403H51.6316L51.7137 30.0138H54.8595L54.5309 17.9589H49.284L48.2158 24.5556H47.9693L46.9481 17.9589H41.6542Z" fill="white"/>
<path d="M38.0271 30.0021L35.9377 17.9471H30.6087L28.5193 30.0021H31.8998L33.1323 20.6586H33.4141L34.6465 30.0021H38.0271Z" fill="white"/>
<path d="M25.2095 21.6446V20.1304C25.2095 20.1304 25.4443 17.6536 21.4651 17.548C21.4651 17.548 18.331 17.3367 17.4389 19.027C17.4389 19.027 17.0868 19.4026 17.0868 20.7173V21.6681C17.0868 21.6681 17.0516 22.7597 17.6032 23.464C17.6032 23.464 17.9202 23.9218 18.6949 24.4382C18.6949 24.4382 20.2678 25.2834 21.2186 25.7764C21.2186 25.7764 22.1693 26.3163 22.052 27.1849C22.052 27.1849 21.9698 28.077 21.0542 28.0418C21.0542 28.0418 20.2091 28.0066 20.2091 27.138V26.1168H16.8285V27.6075C16.8285 27.6075 16.7346 30.4599 21.0777 30.4599C21.0777 30.4599 25.2212 30.542 25.4208 27.5371V26.3281C25.4208 26.3281 25.5616 24.4852 23.9535 23.5109C23.9535 23.5109 23.0849 22.971 22.5567 22.7714C22.5567 22.7714 20.9016 22.0085 20.5847 21.6446C20.5847 21.6446 19.9391 21.0342 20.3147 20.3299C20.3147 20.3299 20.4791 19.8721 21.1481 19.8721C21.1481 19.8721 22.0285 19.9191 22.0285 20.6468V21.6681H25.1978L25.2095 21.6446Z" fill="white"/>
<path d="M168.975 20.506H166.6V26.7615H168.975V20.506Z" fill="#004093"/>
<path d="M179.046 20.506H176.671V26.7615H179.046V20.506Z" fill="#004093"/>
<path d="M178.151 20.4932H167.859V22.5308H178.151V20.4932Z" fill="#004093"/>
<path d="M178.151 24.7111H167.859V26.7486H178.151V24.7111Z" fill="#004093"/>
<path d="M180.422 27.9297H165.186V29.9673H180.422V27.9297Z" fill="#004093"/>
<path d="M173.92 29.1235H171.545V32.4589H173.92V29.1235Z" fill="#004093"/>
<path d="M179.046 31.2002H176.671V36.1709H179.046V31.2002Z" fill="#004093"/>
<path d="M168.975 34.1592H166.6V39.3894H168.975V34.1592Z" fill="#004093"/>
<path d="M178.164 31.2002H166.561V33.2378H178.164V31.2002Z" fill="#004093"/>
<path d="M179.046 34.1721H166.834V36.2097H179.046V34.1721Z" fill="#004093"/>
<path d="M179.046 37.3649H166.834V39.4025H179.046V37.3649Z" fill="#004093"/>
<path d="M195.594 20H193.219V33.2768H195.594V20Z" fill="#004093"/>
<path d="M197.8 24.3737H193.881V26.4112H197.8V24.3737Z" fill="#004093"/>
<path d="M186.379 31.0446H184.004V39.3506H186.379V31.0446Z" fill="#004093"/>
<path d="M195.671 37.313H184.225V39.3506H195.671V37.313Z" fill="#004093"/>
<path d="M186.366 25.2172C185.639 27.5403 182.68 29.487 182.68 29.487L181.421 27.735C185.548 25.6714 185.224 20.2335 185.224 20.2335H187.508C187.508 20.2335 187.184 25.6584 191.311 27.735L190.052 29.487C190.052 29.487 187.106 27.5403 186.366 25.2172Z" fill="#004093"/>
<path d="M144.148 20.1815V30.2137H146.562V26.476H148.703V24.4124H146.614V20.1815H144.148Z" fill="#004093"/>
<path d="M144.238 33.0301H137.386V37.2351H144.238V33.0301ZM135.024 31.0315H146.601V39.2338H135.024V31.0315Z" fill="#004093"/>
<path d="M161.331 34.9898C161.331 33.4843 159.514 32.2514 157.281 32.2514C155.049 32.2514 153.232 33.4713 153.232 34.9898C153.232 36.5082 155.049 37.7282 157.281 37.7282C159.514 37.7282 161.331 36.5082 161.331 34.9898ZM157.269 39.8956C153.674 39.8956 150.753 37.7022 150.753 34.9898C150.753 32.2773 153.674 30.084 157.269 30.084C160.863 30.084 163.784 32.2773 163.784 34.9898C163.784 37.7022 160.863 39.8956 157.269 39.8956Z" fill="#004093"/>
<path d="M138.333 20.545C138.333 20.545 138.009 25.97 142.409 28.2152L141.15 29.9673C141.15 29.9673 137.931 27.8388 137.204 25.5157C136.478 27.8388 133.259 29.9673 133.259 29.9673L132 28.2152C136.4 25.97 136.075 20.545 136.075 20.545H138.359H138.333Z" fill="#004093"/>
<path d="M153.57 25.5157C152.843 27.8388 149.884 29.7856 149.884 29.7856L148.625 28.0335C152.752 25.97 152.428 20.545 152.428 20.545H154.712C154.712 20.545 154.388 25.97 158.515 28.0335L157.256 29.7856C157.256 29.7856 154.31 27.8388 153.583 25.5157" fill="#004093"/>
<path d="M163.317 20.1687V30.2009H160.89V25.5936H157.749V23.543H160.851V20.1687H163.317Z" fill="#004093"/>
</svg>
