<svg width="178" height="48" viewBox="0 0 178 48" fill="none" xmlns="http://www.w3.org/2000/svg">
<path d="M57.5511 20.8269C56.964 20.8269 56.4048 20.757 55.8736 20.6172C55.3425 20.4774 54.8951 20.3097 54.5317 20.1C54.1683 19.8903 53.8747 19.6946 53.665 19.5269C53.4414 19.3591 53.2597 19.1914 53.1199 19.0237L54.1962 17.8774C55.1328 18.8 56.2231 19.2473 57.4951 19.2473C58.25 19.2473 58.7951 19.1215 59.1306 18.8839C59.4801 18.6462 59.6478 18.3247 59.6478 17.9613C59.6478 17.8495 59.6478 17.7516 59.6059 17.6677C59.5779 17.5699 59.55 17.5 59.4941 17.4301C59.4382 17.3602 59.3962 17.2903 59.3543 17.2344C59.3124 17.1785 59.2425 17.1226 59.1306 17.0667C59.0188 17.0108 58.9489 16.9688 58.893 16.9409C58.8371 16.9129 58.7532 16.8849 58.6134 16.843C58.4736 16.8011 58.3898 16.7731 58.3478 16.7591C58.3059 16.7452 58.208 16.7172 58.0403 16.6753C57.8865 16.6333 57.7887 16.6194 57.7607 16.6054C57.565 16.5495 57.2855 16.4796 56.936 16.3957C56.5726 16.3118 56.265 16.2419 55.9994 16.1581C55.7339 16.0742 55.4822 15.9903 55.2166 15.8785C54.1123 15.4312 53.5532 14.6903 53.5532 13.6699C53.5532 13.1108 53.7349 12.6355 54.1123 12.2161C54.4898 11.7968 54.9511 11.4892 55.5102 11.2935C56.0693 11.0978 56.6704 11 57.2994 11C58.0263 11 58.7392 11.1118 59.4242 11.3495C60.1091 11.5871 60.6822 11.8946 61.1296 12.286L60.3048 13.5161C59.4102 12.8452 58.4177 12.5097 57.3134 12.5097C56.7263 12.5097 56.2231 12.6075 55.8457 12.7892C55.4543 12.971 55.2586 13.2645 55.2586 13.6419C55.2586 13.9634 55.4123 14.229 55.7339 14.4108C56.0554 14.5925 56.6145 14.7882 57.4253 14.9559C58.5855 15.2075 59.4242 15.4731 59.9134 15.7527C60.8779 16.2699 61.3532 17.0247 61.3532 18.0172C61.3532 18.4925 61.2414 18.9258 61.0038 19.3172C60.7661 19.6946 60.4726 20.0021 60.0951 20.2118C59.7177 20.4215 59.3124 20.5892 58.879 20.7011C58.4457 20.8129 57.9984 20.8548 57.565 20.8548L57.5511 20.8269Z" fill="black"/>
<path d="M71.5295 11.1398H73.1231V20.6591H71.4457V14.0193L68.3284 18.2269L65.2252 14.0054V20.6591H63.5618V11.1398H65.0994L68.3145 15.571L71.5155 11.1398H71.5295Z" fill="black"/>
<path d="M53.7629 36.9999V27.4806H61.0597V29.0182H55.4543V31.1989H59.606V32.7505H55.4543V35.4483H61.1296V36.9999H53.7629Z" fill="black"/>
<path d="M63.366 36.9999V27.4806H64.9036L70.1176 34.1483V27.4806H71.795V36.9999H70.2713L65.0294 30.3042V36.9999H63.366Z" fill="black"/>
<path d="M76.8552 36.9999V29.0322H73.8079V27.4806H81.5939V29.0322H78.5466V36.9999H76.8412H76.8552Z" fill="black"/>
<path d="M83.6353 36.9999V27.4806H90.932V29.0182H85.3267V31.1989H89.4783V32.7505H85.3267V35.4483H91.0019V36.9999H83.6353Z" fill="black"/>
<path d="M93.2383 36.9999V27.4806H98.1867C98.6899 27.4806 99.1232 27.5645 99.5007 27.7462C99.8781 27.9139 100.172 28.1516 100.367 28.4451C100.563 28.7387 100.717 29.0462 100.815 29.3537C100.912 29.6752 100.954 30.0107 100.954 30.3462C100.954 30.9612 100.801 31.5204 100.493 32.0376C100.186 32.5548 99.7103 32.9042 99.0673 33.086L101.458 36.9999H99.5705L97.32 33.2118H94.9297V36.9999H93.2383ZM94.9157 31.6602H98.005C98.4103 31.6602 98.7179 31.5483 98.9275 31.3107C99.1372 31.0731 99.249 30.7516 99.249 30.3462C99.249 29.9408 99.1512 29.6473 98.9415 29.4096C98.7458 29.172 98.4523 29.0602 98.0748 29.0602H94.9157V31.6741V31.6602Z" fill="black"/>
<path d="M105.301 36.9999V29.0322H102.254V27.4806H110.04V29.0322H106.993V36.9999H105.287H105.301Z" fill="black"/>
<path d="M109.984 36.9999L114.499 27.4247H115.981L120.496 36.9999H118.693L117.673 34.7774H112.752L111.704 36.9999H109.998H109.984ZM113.465 33.2677H116.96L115.226 29.5354L113.451 33.2677H113.465Z" fill="black"/>
<path d="M122.201 36.9999V27.4806H123.893V36.9999H122.201Z" fill="black"/>
<path d="M126.689 36.9999V27.4806H128.226L133.44 34.1483V27.4806H135.118V36.9999H133.594L128.352 30.3042V36.9999H126.689Z" fill="black"/>
<path d="M145.784 27.4806H147.377V36.9999H145.7V30.3602L142.583 34.5677L139.479 30.3462V36.9999H137.816V27.4806H139.354L142.569 31.9118L145.784 27.4806Z" fill="black"/>
<path d="M150.089 36.9999V27.4806H157.386V29.0182H151.781V31.1989H155.932V32.7505H151.781V35.4483H157.456V36.9999H150.089Z" fill="black"/>
<path d="M159.692 36.9999V27.4806H161.23L166.444 34.1483V27.4806H168.121V36.9999H166.597L161.355 30.3042V36.9999H159.692Z" fill="black"/>
<path d="M173.195 36.9999V29.0322H170.148V27.4806H177.934V29.0322H174.887V36.9999H173.181H173.195Z" fill="black"/>
<path d="M38.78 27.0075C38.78 28.7975 40.23 30.2475 42.02 30.2475C43.81 30.2475 45.26 28.7975 45.26 27.0075V14.2975C45.26 12.1075 43.48 10.3275 41.29 10.3275C40.62 10.3275 39.97 10.4975 39.39 10.8075C39.03 9.2175 37.61 8.0275 35.92 8.0275C34.97 8.0275 34.08 8.3975 33.4 9.0675L25.15 17.3175L17.34 9.5975C15.21 7.4675 11.75 7.4675 9.62 9.5975C9.35 9.8675 9.11 10.1675 8.91 10.4775C7.45 10.4775 6.08 11.0475 5.05 12.0775C2.92 14.2075 2.92 17.6675 5.05 19.7975L15.79 30.5375C16.69 31.4375 17.18 32.6275 17.18 33.9075C17.18 34.8275 16.92 35.7075 16.44 36.4675C15.55 36.2875 14.69 35.8575 14 35.1675L4.85 26.0175C4.31 25.4775 3.6 25.1875 2.84 25.1875C2.08 25.1875 1.36 25.4875 0.83 26.0175C0.29 26.5575 0 27.2675 0 28.0275C0 28.7875 0.3 29.5075 0.83 30.0375L8.57 37.7775C9.6 38.8075 10.97 39.3775 12.43 39.3775C13.89 39.3775 15.26 38.8075 16.29 37.7775C16.46 37.6075 16.62 37.4175 16.77 37.2275C16.97 37.2475 17.17 37.2575 17.38 37.2575C18.84 37.2575 20.21 36.6875 21.24 35.6575C22.27 34.6275 22.84 33.2575 22.84 31.7975C22.84 30.3375 22.27 28.9675 21.24 27.9375L10.14 16.8375C8.62 15.3175 8.34 13.0075 9.32 11.2075C10.44 11.2975 11.49 11.7775 12.29 12.5875L19.2 19.4975C20.53 20.8275 22.68 20.8275 24.01 19.4975L25.18 18.3275L26.14 19.2675C27.68 20.8075 30.19 20.8075 31.73 19.2675L38.8 12.1975V27.0175L38.78 27.0075ZM39.47 11.5975C40 11.2275 40.63 11.0375 41.28 11.0375C43.08 11.0375 44.55 12.5075 44.55 14.3075V27.0175C44.55 28.4175 43.41 29.5575 42.01 29.5575C40.61 29.5575 39.47 28.4175 39.47 27.0175V11.5975ZM15.77 37.2775C13.91 39.1375 10.89 39.1375 9.04 37.2775L1.3 29.5375C0.9 29.1275 0.67 28.5975 0.67 28.0175C0.67 27.4375 0.89 26.9075 1.3 26.4975C1.7 26.0975 2.24 25.8675 2.82 25.8675C3.4 25.8675 3.93 26.0875 4.34 26.4975L13.49 35.6475C14.18 36.3375 15.03 36.8275 15.96 37.0675C15.9 37.1375 15.84 37.1975 15.77 37.2675V37.2775ZM9.62 17.3275L20.72 28.4275C22.58 30.2875 22.58 33.3075 20.72 35.1575C19.75 36.1275 18.46 36.5975 17.19 36.5475C17.63 35.7475 17.87 34.8475 17.87 33.9075C17.87 32.4475 17.3 31.0775 16.27 30.0475L5.52 19.3075C4.62 18.4075 4.13 17.2175 4.13 15.9375C4.13 14.6575 4.63 13.4675 5.52 12.5675C6.33 11.7575 7.38 11.2775 8.5 11.1875C7.58 13.2075 7.95 15.6675 9.61 17.3175L9.62 17.3275ZM23.49 18.9975C22.44 20.0475 20.72 20.0475 19.67 18.9975L12.76 12.0875C11.92 11.2475 10.87 10.7175 9.72 10.5475C9.84 10.3875 9.97 10.2475 10.11 10.0975C11.96 8.2375 14.99 8.2375 16.84 10.0975L24.65 17.8175L23.48 18.9875L23.49 18.9975ZM38.48 11.4975L31.21 18.7675C29.94 20.0375 27.87 20.0375 26.6 18.7675L25.64 17.8275L33.89 9.5675C34.43 9.0275 35.15 8.7275 35.91 8.7275C37.37 8.7275 38.57 9.8275 38.75 11.2375C38.66 11.3175 38.56 11.3975 38.48 11.4875V11.4975Z" fill="black"/>
<path d="M42.03 32.0675C40.11 32.0675 38.55 33.6275 38.55 35.5475C38.55 37.4675 40.11 39.0275 42.03 39.0275C43.95 39.0275 45.51 37.4675 45.51 35.5475C45.51 33.6275 43.95 32.0675 42.03 32.0675ZM42.03 38.3375C40.5 38.3375 39.25 37.0875 39.25 35.5575C39.25 34.0275 40.5 32.7775 42.03 32.7775C43.56 32.7775 44.81 34.0275 44.81 35.5575C44.81 37.0875 43.56 38.3375 42.03 38.3375Z" fill="black"/>
</svg>
