<svg width="122" height="48" viewBox="0 0 122 48" fill="none" xmlns="http://www.w3.org/2000/svg">
<path d="M37.2184 21.2046V8.7218H38.9556V19.755H41.8779V21.2046H37.2184Z" fill="black"/>
<path d="M42.8098 21.2046V8.7218H47.5383V10.1714H44.5471V14.0831H47.3658V15.5327H44.5471V19.755H47.5383V21.2046H42.8098Z" fill="black"/>
<path d="M48.2056 21.2046L50.9668 8.7218H52.9801L55.5342 21.2046H53.797L53.2217 18.0178H50.5066L49.9313 21.2046H48.1941H48.2056ZM51.8757 10.5626L50.7827 16.5797H52.9916L51.9102 10.5626H51.8757Z" fill="black"/>
<path d="M56.4891 21.2046V8.7218H59.2848C60.6424 8.7218 61.4938 9.03243 61.8619 9.6422C62.1726 10.1599 62.3336 11.3794 62.3336 13.2893V17.0053C62.3336 18.639 62.1265 19.7435 61.7124 20.3073C61.2637 20.9055 60.3663 21.2046 59.0202 21.2046H56.5006H56.4891ZM58.2264 10.1714V19.755H59.0547C59.676 19.755 60.1017 19.5479 60.3088 19.1453C60.4929 18.7771 60.5849 18.0408 60.5849 16.9363V12.645C60.5849 11.6671 60.4929 11.0228 60.3088 10.7122C60.0902 10.3555 59.63 10.1714 58.9167 10.1714H58.2264Z" fill="black"/>
<path d="M63.4725 21.2046V8.7218H68.201V10.1714H65.2098V14.0831H68.0285V15.5327H65.2098V19.755H68.201V21.2046H63.4725Z" fill="black"/>
<path d="M69.0984 21.2046V8.7218H71.7906C73.0216 8.7218 73.8039 8.9519 74.1376 9.40059C74.4367 9.80326 74.5863 10.7122 74.5863 12.1273C74.5863 13.0131 74.4827 13.6459 74.2871 14.0141C74.0685 14.4397 73.6198 14.7619 72.9296 14.969V15.0035C73.5048 15.061 73.919 15.2451 74.1491 15.5442C74.3907 15.8549 74.5057 16.3035 74.5057 16.9018V19.617C74.5057 20.3303 74.5287 20.8595 74.5748 21.2046H72.9756C72.8375 20.9515 72.7685 20.5719 72.7685 20.0772V17.2585C72.7685 16.6602 72.6879 16.2575 72.5154 16.0619C72.3428 15.8664 71.9746 15.7628 71.4109 15.7628H70.8242V21.1931H69.0869L69.0984 21.2046ZM70.8357 10.1714V14.3247H71.2843C71.9631 14.3247 72.4003 14.1981 72.5844 13.9565C72.7685 13.7149 72.849 13.1282 72.849 12.1963C72.849 11.2644 72.7915 10.7122 72.6649 10.4936C72.5384 10.275 72.2047 10.1714 71.664 10.1714H70.8242H70.8357Z" fill="black"/>
<path d="M79.0387 21.2046V8.7218H80.7759V21.2046H79.0387Z" fill="black"/>
<path d="M81.9611 21.2046V8.7218H84.3771L86.448 19.0992V8.7218H88.0817V21.2046H85.5621L83.4912 10.5511V21.2046H81.9611Z" fill="black"/>
<path d="M37.2184 38.4966V26.0138H41.9469V27.4634H38.9556V31.3751H41.7743V32.8247H38.9556V37.047H41.9469V38.4966H37.2184Z" fill="black"/>
<path d="M42.8444 38.4966V26.0138H45.2604L47.3313 36.3912V26.0138H48.965V38.4966H46.4454L44.3745 27.8431V38.4966H42.8444Z" fill="black"/>
<path d="M49.8623 27.4634V26.0138H55.7758V27.4634H53.6934V38.4966H51.9562V27.4634H49.8738H49.8623Z" fill="black"/>
<path d="M56.6732 38.4966V26.0138H61.4017V27.4634H58.4105V31.3751H61.2292V32.8247H58.4105V37.047H61.4017V38.4966H56.6732Z" fill="black"/>
<path d="M62.2876 38.4966V26.0138H64.9798C66.2108 26.0138 66.9931 26.2439 67.3268 26.6926C67.6259 27.0953 67.7755 28.0041 67.7755 29.4193C67.7755 30.3051 67.6719 30.9379 67.4763 31.3061C67.2577 31.7317 66.8091 32.0539 66.1188 32.261V32.2955C66.694 32.353 67.1082 32.5371 67.3383 32.8362C67.5799 33.1468 67.6949 33.5955 67.6949 34.1938V36.909C67.6949 37.6223 67.7179 38.1515 67.764 38.4966H66.1648C66.0267 38.2435 65.9577 37.8639 65.9577 37.3691V34.5504C65.9577 33.9522 65.8772 33.5495 65.7046 33.3539C65.532 33.1583 65.1639 33.0548 64.6001 33.0548H64.0134V38.4851H62.2761L62.2876 38.4966ZM64.0249 27.4634V31.6167H64.4736C65.1523 31.6167 65.5895 31.4901 65.7736 31.2485C65.9577 31.0069 66.0382 30.4202 66.0382 29.4883C66.0382 28.5564 65.9807 28.0041 65.8542 27.7856C65.7276 27.567 65.394 27.4634 64.8532 27.4634H64.0249Z" fill="black"/>
<path d="M68.6154 27.4634V26.0138H74.5289V27.4634H72.4465V38.4966H70.7093V27.4634H68.6269H68.6154Z" fill="black"/>
<path d="M74.1376 38.4966L76.8988 26.0138H78.9121L81.4662 38.4966H79.729L79.1538 35.3098H76.4386L75.8633 38.4966H74.1261H74.1376ZM77.8077 27.8431L76.7147 33.8602H78.9236L77.8422 27.8431H77.8077Z" fill="black"/>
<path d="M82.3982 38.4966V26.0138H84.1354V38.4966H82.3982Z" fill="black"/>
<path d="M85.3206 38.4966V26.0138H87.7366L89.8075 36.3912V26.0138H91.4412V38.4966H88.9216L86.8507 27.8431V38.4966H85.3206Z" fill="black"/>
<path d="M92.6605 38.4966V26.0138H95.4217L97.0209 35.5284H97.0554L98.6546 26.0138H101.347V38.4966H99.713V27.2563L97.9183 38.4966H96.158L94.1907 27.2563V38.4966H92.6605Z" fill="black"/>
<path d="M102.566 38.4966V26.0138H107.295V27.4634H104.304V31.3751H107.122V32.8247H104.304V37.047H107.295V38.4966H102.566Z" fill="black"/>
<path d="M108.181 38.4966V26.0138H110.597L112.668 36.3912V26.0138H114.301V38.4966H111.782L109.711 27.8431V38.4966H108.181Z" fill="black"/>
<path d="M115.199 27.4634V26.0138H121.112V27.4634H119.03V38.4966H117.293V27.4634H115.21H115.199Z" fill="black"/>
<path d="M16.0173 20.8387V23.7258C16.0173 24.6007 15.1133 25.3152 13.9978 25.3152C12.8824 25.3152 11.9784 24.6007 11.9784 23.7258V8.7218H9.98804V23.7258C9.98804 25.286 11.2712 26.5983 13.0063 26.9701V38.4965H14.9967V26.9701C16.7318 26.5983 18.0149 25.286 18.0149 23.7258V8.7218H16.0246V20.8387H16.0173Z" fill="#1F9BE0"/>
<path d="M2.72667 8.7218V10.683H6.0293V35.1502C6.0293 36.0833 5.12527 36.8343 4.00981 36.8343C2.89435 36.8343 1.99032 36.0761 1.99032 35.1502V26.4015H0V35.1502C0 36.9947 1.79348 38.4965 4.00981 38.4965C6.22614 38.4965 8.01962 37.002 8.01962 35.1502V8.7218H2.72667Z" fill="#1F9BE0"/>
<path d="M27.4782 11.4776C27.4782 10.6903 27.0699 8.7218 24.9557 8.7218C23.9641 8.7218 22.7685 9.23214 21.7843 10.0706V8.7218H19.7939V38.4965H21.7843V26.817C26.9022 26.817 27.5074 24.4257 27.5074 23.7258C27.5074 23.7039 27.5074 23.6821 27.5074 23.6602V11.4776H27.4782ZM25.517 13.9127V23.2373C25.517 23.9154 24.7661 24.8559 21.7843 24.8559V13.9127C21.7843 11.988 23.6507 10.4278 24.6859 10.4278C25.291 10.4278 25.4733 10.9673 25.5243 11.8057C25.5608 12.389 25.5243 13.118 25.5243 13.9127H25.517Z" fill="#1F9BE0"/>
</svg>
