<svg width="180" height="48" viewBox="0 0 180 48" fill="none" xmlns="http://www.w3.org/2000/svg">
<g clip-path="url(#clip0_18_876)">
<path d="M84.2479 10.3531C76.7097 10.3531 70.5942 16.4686 70.5942 24.0068C70.5942 31.5451 76.696 37.6605 84.2479 37.6605C91.7999 37.6605 97.9016 31.5588 97.9016 24.0068C97.9016 16.4549 91.7862 10.3531 84.2479 10.3531ZM84.2479 31.2031C80.2668 31.2031 77.0517 27.9744 77.0517 24.0068C77.0517 20.0393 80.2804 16.8106 84.2479 16.8106C88.2154 16.8106 91.4442 20.0393 91.4442 24.0068C91.4442 27.9744 88.2154 31.2031 84.2479 31.2031Z" fill="#006EBB"/>
<path d="M135.921 10.3531C128.383 10.3531 122.268 16.4686 122.268 24.0068C122.268 31.5451 128.383 37.6605 135.921 37.6605C143.46 37.6605 149.575 31.5588 149.575 24.0068C149.575 16.4549 143.46 10.3531 135.921 10.3531ZM135.921 31.2031C131.94 31.2031 128.725 27.9744 128.725 24.0068C128.725 20.0393 131.954 16.8106 135.921 16.8106C139.889 16.8106 143.118 20.0393 143.118 24.0068C143.118 27.9744 139.902 31.2031 135.921 31.2031Z" fill="#006EBB"/>
<path d="M110.078 11.2014H103.429V36.7987H118.888V30.8611H110.078V11.2014Z" fill="#006EBB"/>
<path d="M60.9628 11.2014L52.9046 21.8179V11.2014H46.2419V36.7987H52.9046V26.1822L60.9628 36.7987H69.2808L59.0885 23.9932L69.2808 11.2014H60.9628Z" fill="#006EBB"/>
<path d="M172.573 11.2014V25.8402H172.504L161.833 11.2014H155.116V36.7987H161.765V21.1339H161.847L173.257 36.7987H179.222V11.2014H172.573Z" fill="#006EBB"/>
<path d="M6.64899 10.572C5.92389 9.28602 6.94997 8 8.14022 8H28.4156C30.0846 8 30.5361 9.587 29.8657 10.6678L26.2129 16.9885C25.6246 18.165 24.1607 18.1103 23.5177 17.0295L19.988 10.8867C19.0167 9.2313 17.6486 9.20393 16.6362 10.8867L13.1749 16.8653C12.6823 17.7683 13.4485 19.109 14.6661 19.109H34.9277C36.3369 19.109 37.0073 20.6687 36.4463 21.6674C36.4463 21.6674 27.1569 37.77 26.4044 39.056C25.652 40.3557 23.8871 40.2873 23.162 39.0697L19.605 33.009C18.8799 31.723 19.8649 30.218 21.0551 30.218H28.6071C29.7426 30.218 30.3993 29.0415 29.7563 27.9059L26.4455 22.0641C25.5699 20.5866 24.1881 20.5045 23.2715 21.9957C23.2715 21.9957 14.0778 37.8247 13.3664 39.056C12.655 40.2736 11.2185 40.3831 10.4386 39.056C9.64514 37.7153 0.273616 21.7221 0.273616 21.7221C-0.519886 20.2993 0.58828 19.109 1.83326 19.109H8.85164C10.5891 19.109 11.068 20.6276 10.3839 21.7358L6.75844 28.0428C6.22488 29.0004 7.0731 30.2454 8.24967 30.2317H15.5827C16.7046 30.2454 17.4433 29.2193 16.7867 28.0701L6.64899 10.572Z" fill="#E50012"/>
</g>
<defs>
<clipPath id="clip0_18_876">
<rect width="179.222" height="32" fill="white" transform="translate(0 8)"/>
</clipPath>
</defs>
</svg>
