<svg width="198" height="48" viewBox="0 0 198 48" fill="none" xmlns="http://www.w3.org/2000/svg">
<path d="M106.918 28.2062C128.34 17.2311 125.652 6.73728 103.854 4.56574C80.3663 2.22987 46.056 7.27723 22.1456 16.9376L18.8354 18.3579C-6.06095 29.4856 -3.7016 41.2706 18.5185 43.4187C42.8045 45.7663 79.7207 40.9654 103.889 29.7086L106.906 28.1944L106.918 28.2062Z" fill="#004093"/>
<path d="M102.293 30.3542C102.293 30.3542 98.1966 30.6828 98.1027 27.3845V20.999C98.1027 20.999 97.5979 17.4775 102.176 17.4775C102.176 17.4775 105.157 17.3836 105.955 19.1561C105.955 19.1561 106.343 19.6256 106.237 21.5859H103.056V20.5881C103.056 20.5881 103.056 19.7782 102.223 19.7782C102.223 19.7782 101.354 19.8134 101.354 20.4942V27.091C101.354 27.091 101.319 27.9831 102.293 27.9831C102.293 27.9831 103.091 27.9596 103.091 27.0323V25.119H102.223V23.3466H106.308V27.091C106.308 27.091 106.308 27.8775 105.967 28.3352C105.967 28.3352 105.638 28.84 105.509 28.9339C105.509 28.9339 104.406 30.3424 102.281 30.3424" fill="white"/>
<path d="M93.8768 17.9589H90.6958L90.9188 25.2717H90.7897L87.5618 17.9706H83.7V30.0138H86.8457L86.6462 22.6423H86.7871L90.1324 30.0138H93.8768V17.9589Z" fill="white"/>
<path d="M74.1686 17.9119H70.7293V26.9502C70.7293 26.9502 70.3772 30.3659 75.2015 30.3659C75.2015 30.3659 79.392 30.4129 79.392 27.1028V17.9119H76.0232V26.9971C76.0232 26.9971 76.0702 27.9948 75.1428 27.9948C75.1428 27.9948 74.1686 28.0418 74.1686 27.0206V17.9119Z" fill="white"/>
<path d="M66.7737 21.6446V20.1304C66.7737 20.1304 67.0085 17.6536 63.0293 17.548C63.0293 17.548 59.8952 17.3367 59.0031 19.027C59.0031 19.027 58.651 19.4026 58.651 20.7173V21.6681C58.651 21.6681 58.6158 22.7597 59.1675 23.464C59.1675 23.464 59.4844 23.9218 60.2591 24.4382C60.2591 24.4382 61.832 25.2834 62.7828 25.7764C62.7828 25.7764 63.7336 26.3163 63.6162 27.1849C63.6162 27.1849 63.534 28.077 62.6184 28.0418C62.6184 28.0418 61.7733 28.0066 61.7733 27.138V26.1168H58.3927V27.6075C58.3927 27.6075 58.2988 30.4599 62.6419 30.4599C62.6419 30.4599 66.7854 30.542 66.985 27.5371V26.3281C66.985 26.3281 67.1258 24.4852 65.5177 23.5109C65.5177 23.5109 64.6609 22.971 64.1209 22.7714C64.1209 22.7714 62.4658 22.0085 62.1489 21.6446C62.1489 21.6446 61.5033 21.0342 61.8789 20.3299C61.8789 20.3299 62.0315 19.8721 62.7123 19.8721C62.7123 19.8721 63.5927 19.9191 63.5927 20.6468V21.6681H66.762L66.7737 21.6446Z" fill="white"/>
<path d="M41.6542 17.9589L41.396 30.0138H44.5301L44.5653 20.9286H44.8118L46.4786 30.0138H49.777L51.4203 20.9403H51.6316L51.7137 30.0138H54.8595L54.5309 17.9589H49.284L48.2158 24.5556H47.9693L46.9481 17.9589H41.6542Z" fill="white"/>
<path d="M38.0271 30.0021L35.9377 17.9471H30.6087L28.5193 30.0021H31.8998L33.1323 20.6586H33.4141L34.6465 30.0021H38.0271Z" fill="white"/>
<path d="M25.2095 21.6446V20.1304C25.2095 20.1304 25.4443 17.6536 21.4651 17.548C21.4651 17.548 18.331 17.3367 17.4389 19.027C17.4389 19.027 17.0868 19.4026 17.0868 20.7173V21.6681C17.0868 21.6681 17.0516 22.7597 17.6032 23.464C17.6032 23.464 17.9202 23.9218 18.6949 24.4382C18.6949 24.4382 20.2678 25.2834 21.2186 25.7764C21.2186 25.7764 22.1693 26.3163 22.052 27.1849C22.052 27.1849 21.9698 28.077 21.0542 28.0418C21.0542 28.0418 20.2091 28.0066 20.2091 27.138V26.1168H16.8285V27.6075C16.8285 27.6075 16.7346 30.4599 21.0777 30.4599C21.0777 30.4599 25.2212 30.542 25.4208 27.5371V26.3281C25.4208 26.3281 25.5616 24.4852 23.9535 23.5109C23.9535 23.5109 23.0849 22.971 22.5567 22.7714C22.5567 22.7714 20.9016 22.0085 20.5847 21.6446C20.5847 21.6446 19.9391 21.0342 20.3147 20.3299C20.3147 20.3299 20.4791 19.8721 21.1481 19.8721C21.1481 19.8721 22.0285 19.9191 22.0285 20.6468V21.6681H25.1978L25.2095 21.6446Z" fill="white"/>
<path d="M144.111 20.4052V30.3791H146.517V26.66H148.65V24.6184H146.556V20.4052H144.111Z" fill="#004098"/>
<path d="M135.048 31.1852H146.556V39.3386H135.048V31.1852ZM144.202 33.1748H137.401V37.349H144.202V33.1748Z" fill="#004098"/>
<path d="M163.149 20.4052V30.3791H160.743V25.8018H157.622V23.7601H160.691V20.4052H163.149Z" fill="#004098"/>
<path d="M157.167 40.002C153.591 40.002 150.691 37.8173 150.691 35.1255C150.691 32.4337 153.591 30.2621 157.167 30.2621C160.743 30.2621 163.643 32.4467 163.643 35.1255C163.643 37.8043 160.743 40.002 157.167 40.002ZM161.186 35.1255C161.186 33.6171 159.378 32.4077 157.167 32.4077C154.957 32.4077 153.136 33.6301 153.136 35.1255C153.136 36.621 154.944 37.8433 157.167 37.8433C159.391 37.8433 161.186 36.621 161.186 35.1255Z" fill="#004098"/>
<path d="M138.338 20.769C138.338 20.769 138.012 26.1656 142.382 28.4023L141.12 30.1318C141.12 30.1318 137.921 28.0252 137.193 25.7105C136.465 28.0252 133.266 30.1318 133.266 30.1318L132.005 28.4023C136.374 26.1656 136.049 20.769 136.049 20.769H138.312H138.338Z" fill="#004098"/>
<path d="M153.474 25.7105C152.746 28.0252 149.82 29.9498 149.82 29.9498L148.558 28.2203C152.668 26.1656 152.342 20.769 152.342 20.769H154.605C154.605 20.769 154.28 26.1656 158.389 28.2203L157.128 29.9498C157.128 29.9498 154.202 28.0122 153.474 25.7105Z" fill="#004098"/>
<path d="M191.25 20.8472H181.978V22.8628H191.25V20.8472Z" fill="#004098"/>
<path d="M195.333 20.002H192.98V39.6248H195.333V20.002Z" fill="#004098"/>
<path d="M197.687 27.1281H194.215V29.1436H197.687V27.1281Z" fill="#004098"/>
<path d="M179.794 20.0541H177.44V33.11H179.794V20.0541Z" fill="#004098"/>
<path d="M178.988 24.5011H174.384V26.5167H178.988V24.5011Z" fill="#004098"/>
<path d="M175.451 20.8341H165.867V22.8497H175.451V20.8341Z" fill="#004098"/>
<path d="M170.327 31.0682H167.973V39.3127H170.327V31.0682Z" fill="#004098"/>
<path d="M172.004 21.6013C172.004 21.6013 172.004 21.6793 171.991 21.8224C172.043 23.6299 171.341 26.6988 176.205 29.0785L174.982 30.756C174.982 30.756 171.471 28.8705 170.626 26.5038C169.794 28.8705 166.27 30.756 166.27 30.756L165.047 29.0785C169.924 26.7118 169.222 23.6429 169.261 21.8224C169.261 21.6793 169.248 21.6013 169.248 21.6013H171.991H172.004Z" fill="#004098"/>
<path d="M187.7 22.5376V24.02C187.817 28.3763 187.96 31.5363 191.757 34.8913L190.21 36.5948C190.21 36.5948 187.011 33.6299 186.543 30.9641C186.062 33.6299 182.876 36.5948 182.876 36.5948L181.328 34.8913C185.125 31.5233 185.268 28.3633 185.385 24.02V22.5376H187.726H187.7Z" fill="#004098"/>
<path d="M179.846 37.2971H169.222V39.3127H179.846V37.2971Z" fill="#004098"/>
</svg>
