<svg width="200" height="48" viewBox="0 0 200 48" fill="none" xmlns="http://www.w3.org/2000/svg">
<g clip-path="url(#clip0_18_777)">
<path d="M40.025 2H4.28795C2.00621 2 0.156494 3.84972 0.156494 6.13146V41.8685C0.156494 44.1503 2.00621 46 4.28795 46H40.025C42.3068 46 44.1565 44.1503 44.1565 41.8685V6.13146C44.1565 3.84972 42.3068 2 40.025 2Z" fill="#FAE100"/>
<path d="M29.5312 24.0069C31.5005 22.7124 32.795 20.4814 32.795 17.9612C32.795 13.9675 29.5587 10.7174 25.5512 10.7174H13.4185C13.1844 10.7174 13.0054 10.9102 13.0054 11.1306V36.8695C13.0054 37.1036 13.1982 37.2964 13.4185 37.2964H25.5512C29.545 37.2964 32.795 34.0601 32.795 30.0526C32.795 27.5187 31.5005 25.3014 29.5312 24.0069ZM23.5681 30.0526H21.2821V17.9475H23.5681V30.0526Z" fill="#1E1E1E"/>
<path d="M59.6908 35.4372H57.1293V12.6867L59.6908 12.1083V35.4372ZM67.0861 18.9527L69.0967 20.44L63.836 27.0091L69.923 34.2804L67.9124 35.8641L60.82 27.133L67.0861 18.9527Z" fill="#1E1E1E"/>
<path d="M77.6076 26.1552H80.8025V24.8469C80.8025 22.3267 79.6733 21.3214 77.5525 21.3214C76.0651 21.3214 74.385 21.7758 73.0767 22.3818L72.3193 20.5915C73.9306 19.6826 75.8723 19.1317 77.6076 19.1317C81.4085 19.1317 83.2676 20.9633 83.2676 24.9708V35.4372H81.3809L81.078 33.6744C79.4942 34.9552 77.4561 35.6851 75.8448 35.6851C73.0216 35.6851 71.314 33.9774 71.314 31.1267C71.314 27.8766 73.5036 26.169 77.6076 26.169V26.1552ZM80.8025 31.7877V27.9593H77.9381C75.046 27.9593 73.7378 28.937 73.7378 31.0028C73.7378 32.6829 74.6467 33.6193 76.2993 33.6193C77.7866 33.6193 79.7421 32.8344 80.8025 31.7877Z" fill="#1E1E1E"/>
<path d="M90.3874 35.4372H87.8259V12.6867L90.3874 12.1083V35.4372ZM97.7827 18.9527L99.7934 20.44L94.5327 27.0091L100.62 34.2804L98.609 35.8641L91.5167 27.133L97.7827 18.9527Z" fill="#1E1E1E"/>
<path d="M108.304 26.1552H111.499V24.8469C111.499 22.3267 110.37 21.3214 108.249 21.3214C106.762 21.3214 105.082 21.7758 103.773 22.3818L103.016 20.5915C104.627 19.6826 106.569 19.1317 108.304 19.1317C112.105 19.1317 113.964 20.9633 113.964 24.9708V35.4372H112.078L111.775 33.6744C110.191 34.9552 108.153 35.6851 106.541 35.6851C103.718 35.6851 102.011 33.9774 102.011 31.1267C102.011 27.8766 104.2 26.169 108.304 26.169V26.1552ZM111.499 31.7877V27.9593H108.635C105.743 27.9593 104.434 28.937 104.434 31.0028C104.434 32.6829 105.343 33.6193 106.996 33.6193C108.483 33.6193 110.439 32.8344 111.499 31.7877Z" fill="#1E1E1E"/>
<path d="M131.854 27.4635C131.854 32.7931 129.209 35.7402 124.734 35.7402C120.258 35.7402 117.614 32.7931 117.614 27.4635C117.614 22.1339 120.327 19.1317 124.734 19.1317C129.141 19.1317 131.854 22.1064 131.854 27.4635ZM120.258 27.4635C120.258 31.5123 121.897 33.6331 124.734 33.6331C127.571 33.6331 129.209 31.4985 129.209 27.4635C129.209 23.4284 127.571 21.225 124.734 21.225C121.897 21.225 120.258 23.4147 120.258 27.4635Z" fill="#1E1E1E"/>
<path d="M135.654 34.9552V12.7417L139.731 12.0118V19.958C140.709 19.3521 141.976 18.9251 143.38 18.9251C147.704 18.9251 149.701 21.8722 149.701 27.0228C149.701 32.5865 146.658 35.9054 141.604 35.9054C139.263 35.9054 136.77 35.451 135.641 34.969L135.654 34.9552ZM139.731 22.5746V32.738C140.364 32.8344 140.791 32.8344 141.191 32.8344C143.752 32.8344 145.57 31.2231 145.57 27.1192C145.57 24.0206 144.812 22.2165 141.92 22.2165C141.012 22.2165 140.213 22.4231 139.731 22.5884V22.5746Z" fill="#1E1E1E"/>
<path d="M158.322 25.6732H160.884V25.1223C160.884 23.3596 160.333 22.3543 157.937 22.3543C156.449 22.3543 155.072 22.6572 153.612 23.4147L152.483 20.619C154.039 19.5586 156.312 18.9114 158.419 18.9114C162.523 18.9114 164.685 20.922 164.685 25.081V35.4234H161.82L161.366 34.06C159.727 35.3408 157.964 35.8503 156.532 35.8503C153.392 35.8503 151.671 33.9912 151.671 30.7962C151.671 27.4222 153.984 25.6594 158.336 25.6594L158.322 25.6732ZM160.87 31.4297V28.2898H158.68C156.491 28.2898 155.334 29.1712 155.334 30.7824C155.334 31.9392 156.009 32.6967 157.345 32.6967C158.68 32.6967 160.14 32.0632 160.87 31.4159V31.4297Z" fill="#1E1E1E"/>
<path d="M168.32 19.4072H171.212L171.818 21.0184C173.251 19.7377 175.22 18.9252 176.928 18.9252C180.522 18.9252 182.312 21.1424 182.312 25.1637V35.451H178.236V25.0397C178.236 23.2494 177.561 22.4782 175.413 22.4782C174.559 22.4782 173.347 22.7261 172.397 23.0842V35.4372H168.32V19.4072Z" fill="#1E1E1E"/>
<path d="M194.307 26.9264L199.844 33.5643L196.772 36.0018L190.052 27.7527V35.451H185.976V12.7417L190.052 12.0118V26.7611L196.194 18.4294L199.238 20.564L194.307 26.9264Z" fill="#1E1E1E"/>
</g>
<defs>
<clipPath id="clip0_18_777">
<rect width="199.687" height="44" fill="white" transform="translate(0.156494 2)"/>
</clipPath>
</defs>
</svg>
