<svg width="135" height="48" viewBox="0 0 135 48" fill="none" xmlns="http://www.w3.org/2000/svg">
<path d="M78.3279 6H1V42H78.3279V6Z" fill="#2F9482"/>
<path d="M134.511 6H96.892V42H134.511V6Z" fill="#D5953D"/>
<path d="M97.2472 6H77.9727V42H97.2472V6Z" fill="#231F20"/>
<path d="M51.2809 27.1758C51.2809 28.513 50.8944 29.5995 49.2751 29.61C47.6559 29.61 47.2798 28.513 47.2693 27.1758V17.5125H45.4829V27.1758C45.4829 29.3279 46.6947 31.0307 49.2751 31.0307C51.8555 31.0307 53.0674 29.3279 53.0674 27.1758V17.5125H51.2809V27.1758Z" fill="white"/>
<path d="M17.8299 23.1747H13.8183V17.5125H12.0319V30.9158H13.8183V24.6686H17.8299V30.9158H19.6164V17.5125H17.8299V23.1747Z" fill="white"/>
<path d="M69.8764 27.0819L66.314 17.5229H63.65V30.9263H65.4051V19.6019L69.7092 30.9263H71.621V17.5229H69.8764V27.0819Z" fill="white"/>
<path d="M32.4974 23.2061L30.1155 17.5229H28.256L31.599 25.2641V30.9263H33.375V25.2328L36.6553 17.5229H34.7957L32.487 23.2061H32.4974Z" fill="white"/>
<path d="M121.797 30.9263H123.532V17.5229H121.797V30.9263Z" fill="white"/>
<path d="M86.3511 29.4219H85.599V18.9959H86.3511C88.5659 19.0168 89.7882 19.6854 89.809 24.2194C89.7882 28.7533 88.5659 29.4115 86.3511 29.4324M86.6959 17.5229H83.8439V30.9263H86.6959C88.1898 30.9263 89.4121 30.5293 90.2478 29.4846C91.094 28.4399 91.5432 26.7684 91.5432 24.2089C91.5432 21.6494 91.094 19.9884 90.2478 18.9437C89.4121 17.899 88.1898 17.5125 86.6854 17.5125" fill="white"/>
<path d="M104.727 25.6297L106.221 18.9124L107.715 25.6297H104.717H104.727ZM105.03 17.5229V17.5752L101.833 30.9054H103.63L104.466 27.1445H107.987L108.833 30.9159H110.619L107.443 17.5229H105.02H105.03Z" fill="white"/>
</svg>
