<svg width="281" height="48" viewBox="0 0 281 48" fill="none" xmlns="http://www.w3.org/2000/svg">
<g clip-path="url(#clip0_18_999)">
<g clip-path="url(#clip1_18_999)">
<path d="M141.077 12.759C140.27 16.1986 137.638 18.5044 135.197 17.9472C132.738 17.3707 131.393 14.1425 132.18 10.703C132.987 7.28264 135.601 4.95758 138.06 5.53404C140.52 6.11051 141.865 9.33869 141.077 12.759Z" fill="#EE782F"/>
<path d="M7.95318 24.5188C8.76023 19.9839 9.31747 16.7942 12.0461 16.7942C14.7746 16.7942 14.2174 19.9647 13.4296 24.5188C12.6225 29.0536 12.0653 32.2241 9.33669 32.2241C6.60811 32.2241 7.16535 29.0536 7.9724 24.5188M1.57368 24.5188C0.516833 30.4179 1.59289 36.5092 8.58729 36.5092C15.5817 36.5092 18.7907 30.4179 19.8283 24.5188C20.8851 18.6196 19.8091 12.5092 12.8339 12.5092C5.85871 12.5092 2.61131 18.6196 1.57368 24.5188Z" fill="#231815"/>
<path d="M29.8202 12.9703H35.7386L32.3951 31.9743H40.4271L39.7162 36.0672H25.7466L29.8202 12.9703Z" fill="#231815"/>
<path d="M49.5544 12.9703H55.492L51.4183 36.0672H45.5L49.5544 12.9703Z" fill="#231815"/>
<path d="M62.9282 12.9703H68.9042L68.8273 29.0536H68.885L75.668 12.9703H80.6064L70.134 36.0672H64.1004L62.9282 12.9703Z" fill="#231815"/>
<path d="M169.036 27.0744L165.673 12.9703H171.86L173.359 22.0592L178.682 12.9703H183.947L175.031 26.7478L173.378 36.0672H167.46L169.036 27.0744Z" fill="#231815"/>
<path d="M193.285 24.5188C194.092 19.9839 194.65 16.7942 197.378 16.7942C200.107 16.7942 199.55 19.9647 198.743 24.5188C197.936 29.0536 197.378 32.2241 194.65 32.2241C191.921 32.2241 192.478 29.0536 193.266 24.5188M186.906 24.5188C185.868 30.4179 186.925 36.5092 193.9 36.5092C200.875 36.5092 204.104 30.4179 205.141 24.5188C206.198 18.6196 205.122 12.5092 198.147 12.5092C191.172 12.5092 187.944 18.6004 186.906 24.5188Z" fill="#231815"/>
<path d="M228.738 28.7269C227.835 33.9151 224.434 36.5092 219.265 36.5092C214.096 36.5092 212.001 33.6845 212.866 28.7269L215.652 12.9703H221.59L218.765 28.996C218.458 30.7446 218.784 32.2434 220.763 32.2434C222.743 32.2434 223.53 30.4371 223.819 28.7077L226.586 12.9896H231.524L228.738 28.7462V28.7269Z" fill="#231815"/>
<path d="M240.632 12.9703H246.666L250.701 26.2482L250.778 26.8246L250.759 26.2482L253.064 12.9703H257.465L253.391 36.0672H247.473L243.399 22.5972L243.341 22.0976V22.5972L241.055 36.0672H236.558L240.632 12.9703Z" fill="#231815"/>
<path d="M157.775 24C157.775 37.2586 147.034 48 133.775 48C120.517 48 109.775 37.2586 109.775 24C109.775 10.7414 120.517 0 133.775 0C147.034 0 157.775 10.7414 157.775 24ZM138.637 2.95917C131.662 1.34508 123.822 9.49239 121.151 21.1561C118.461 32.8006 121.92 43.5613 128.895 45.1753C135.87 46.7894 143.691 38.6421 146.381 26.9784C149.071 15.3339 145.612 4.57326 138.637 2.95917Z" fill="#D7DA00"/>
<path d="M281.772 25.0569H272.991L272.472 27.92H275.047C274.739 30.1489 273.433 32.2434 271.415 32.2434C268.648 32.2434 268.936 29.3035 269.782 24.5573C270.55 20.2915 271.511 16.8135 274.009 16.8135C276.219 16.8135 276.123 18.5044 275.796 21.2138H281.522C282.426 16.0833 280.446 12.5284 274.624 12.5284C267.418 12.5284 264.363 18.9848 263.287 25.1145C262.096 31.8015 263.767 36.5284 269.897 36.5284C271.684 36.5284 273.855 35.779 275.431 34.2802L276.2 36.4132H278.659L280.331 26.9784H281.407L281.753 25.0376L281.772 25.0569Z" fill="#231815"/>
<path d="M91.4823 26.594H97.4007L98.2077 22.1169H92.2702L93.0964 17.4475H100.975L101.782 12.9703H87.9467L83.873 36.0672H98.6497L99.4567 31.3979H90.6369L91.4823 26.594Z" fill="#231815"/>
</g>
</g>
<defs>
<clipPath id="clip0_18_999">
<rect width="281" height="48" fill="white"/>
</clipPath>
<clipPath id="clip1_18_999">
<rect width="280.544" height="48" fill="white" transform="translate(1.22778)"/>
</clipPath>
</defs>
</svg>
