<svg width="249" height="48" viewBox="0 0 249 48" fill="none" xmlns="http://www.w3.org/2000/svg">
<g clip-path="url(#clip0_18_487)">
<g clip-path="url(#clip1_18_487)">
<path d="M11.1639 15.9836C11.623 17.0984 13.7541 22.2459 14.0492 22.9672H8.13115C8.44262 22.2295 10.6885 17.082 11.1639 15.9836ZM9.98361 12.5574L0 35.4262H2.86885L7.13115 25.4098C7.13115 25.4098 14.5902 25.4098 14.9836 25.4098C15.1475 25.7869 19.1311 35.4262 19.1311 35.4262H22.1639L12.541 12.5574H9.98361Z" fill="#005099"/>
<path d="M45 12.5574C45 12.5574 37.6721 29.4426 37.1148 30.7049C36.5574 29.4426 29.2295 12.5574 29.2295 12.5574H25.5902V35.4262H28.3115V16.918L36.4426 35.4262H37.7869C37.7869 35.4262 44.8033 19.1803 45.7869 16.9344V35.4262H48.5082V12.5574H45.0328H45Z" fill="#005099"/>
<path d="M106.836 12.5574V35.4262H122.951V32.9016H109.557V24.8852H121.738V22.3607H109.557V15.0984H122.443V12.5574H106.836Z" fill="#005099"/>
<path d="M95.8852 24.6722C99.459 24.0656 101.361 22.0164 101.361 18.7213C101.361 14.6394 98.5902 12.5574 93.1311 12.5574H83.5738V22.3443H77.5246C76.8361 16.164 72.2131 11.9836 65.8197 11.9836C58.8689 11.9836 54.0164 16.9181 54.0164 23.9836C54.0164 31.0492 58.8689 35.9836 65.8197 35.9836C72.7705 35.9836 77.2131 31.4591 77.5902 24.8689H83.5738V35.4099H86.2951V24.8689H93.0328C93.2131 25.1804 99.2787 35.4099 99.2787 35.4099H102.393C102.393 35.4099 96.3115 25.3771 95.8689 24.6394M65.8361 33.4591C60.4754 33.4591 56.7377 29.5574 56.7377 23.9836C56.7377 18.4099 60.4754 14.5246 65.8361 14.5246C71.1967 14.5246 74.918 18.4099 74.918 23.9836C74.918 29.5574 71.1803 33.4591 65.8361 33.4591ZM86.2787 22.3115V15.0492H93.7377C98.1475 15.0492 98.6229 17.5902 98.6229 18.6722C98.6229 19.7541 98.1475 22.3115 93.7377 22.3115H86.2787Z" fill="#005099"/>
<path d="M131.475 12.5573V35.4262H133V24.2459H138.426C141.689 24.2459 145.18 22.7213 145.18 18.4262C145.18 13.1147 140.115 12.5409 137.934 12.5409H131.492M133.344 13.8852H138.197C140.721 13.8852 143.656 15.0819 143.656 18.4426C143.656 21.8032 140.902 22.9344 138.328 22.9344H133V13.8852H133.344ZM154.115 12.5573L144.131 35.4262H145.689C145.689 35.4262 149.885 25.5901 149.967 25.3934H159.672C159.754 25.5901 163.82 35.4262 163.82 35.4262H165.557L155.934 12.5573H154.115ZM154.607 14.5082C154.607 14.5082 154.787 14.0983 154.918 13.7705C155.197 14.4426 158.951 23.6721 159.131 24.0819H150.557C150.738 23.6393 154.623 14.4918 154.623 14.4918M167.984 24C167.984 31.0655 172.836 36 179.787 36C183.164 36 185.885 34.7377 187.902 32.2295L188 32.0983L186.738 31.1475L186.639 31.2787C184.721 33.7868 181.738 34.6885 179.771 34.6885C173.721 34.6885 169.492 30.295 169.492 24.0164C169.492 17.7377 173.721 13.3442 179.771 13.3442C182.262 13.3442 184.525 14.4098 186 16.2787L186.098 16.4098L187.361 15.3442L187.246 15.2131C185.393 13.0819 182.885 12.0164 179.771 12.0164C172.82 12.0164 167.967 16.9508 167.967 24.0164M229.164 24C229.164 31.0655 234.016 36 240.967 36C244.344 36 247.082 34.7377 249.082 32.2295L249.18 32.0983L247.918 31.1475L247.82 31.2787C245.902 33.7868 242.934 34.6885 240.967 34.6885C234.918 34.6885 230.689 30.295 230.689 24.0164C230.689 17.7377 234.918 13.3442 240.967 13.3442C243.459 13.3442 245.721 14.4098 247.18 16.2787L247.279 16.4098L248.541 15.3442L248.426 15.2131C246.574 13.0819 244.066 12.0164 240.951 12.0164C234 12.0164 229.148 16.9508 229.148 24.0164M194.295 35.4262H195.82V12.5573H194.295V35.4262ZM202.311 12.5573V35.4262H203.836V24.2459H214.902V22.918H203.836V13.8852H215.738V12.5573H202.311ZM222.197 35.4262H223.721V12.5573H222.197V35.4262Z" fill="#001659"/>
</g>
</g>
<defs>
<clipPath id="clip0_18_487">
<rect width="249" height="48" fill="white"/>
</clipPath>
<clipPath id="clip1_18_487">
<rect width="249.18" height="24" fill="white" transform="translate(0 12)"/>
</clipPath>
</defs>
</svg>
