<svg width="151" height="48" viewBox="0 0 151 48" fill="none" xmlns="http://www.w3.org/2000/svg">
<g clip-path="url(#clip0_18_975)">
<path d="M20.1532 10V24.1247L10.4749 10H0V38H10.4392V23.8753L20.1175 38H30.5924V10H20.1532Z" fill="#3BAB36"/>
<path d="M142.558 27.5223C146.268 26.4888 148.658 23.8159 148.658 19.5274C148.658 12.3165 142.927 10 135.377 10H122.346V38H132.773V29.2567L139.003 38H151L142.558 27.5223ZM137.434 21.8201C136.827 22.3072 135.65 22.5566 134.687 22.5566H132.452V17.0445H134.652C135.71 17.0445 136.911 17.294 137.493 17.793C138.076 18.2919 138.337 18.9809 138.337 19.8481C138.337 20.7153 138.052 21.3331 137.446 21.8201H137.434Z" fill="#3BAB36"/>
<path d="M96.9136 10H118.065V17.294H107.246V20.5846H117.209V27.4629H107.246V30.706H118.398V38H96.9136V10Z" fill="#3BAB36"/>
<path d="M55.7035 10H43.8019L32.8276 38H44.432L45.4427 34.3411H54.0628L55.0734 38H66.6778L55.7035 10ZM47.1548 27.8787L49.616 18.6364H49.9013L52.3625 27.8787H47.1667H47.1548Z" fill="#3BAB36"/>
<path d="M83.2997 10L78.1515 26.8808H77.8661L72.7297 10H61.3394L73.0864 38H82.9312L94.6783 10H83.2997Z" fill="#3BAB36"/>
</g>
<defs>
<clipPath id="clip0_18_975">
<rect width="151" height="28" fill="white" transform="translate(0 10)"/>
</clipPath>
</defs>
</svg>
