<svg width="172" height="48" viewBox="0 0 172 48" fill="none" xmlns="http://www.w3.org/2000/svg">
<g clip-path="url(#clip0_18_532)">
<g clip-path="url(#clip1_18_532)">
<path d="M55.1934 12.0667H71.6334V18.2533H62.14V21.12H70.6867V26.7333H62.14V29.6933H71.6334V35.88H55.1934V12.0667Z" fill="#CC3136"/>
<path d="M73.1667 23.9067C73.1667 21.9334 74.7532 20.3334 76.7397 20.3334C78.7263 20.3334 80.3128 21.92 80.3128 23.9067C80.3128 25.8934 78.7263 27.48 76.7397 27.48C74.7532 27.48 73.1667 25.8934 73.1667 23.9067Z" fill="#CC3136"/>
<path d="M82.5267 12.0667H89.4733V29.6H98.8067V35.88H82.5267V12.0667Z" fill="#CC3136"/>
<path d="M117.847 35.8666L116.287 31.1866H108.42L106.927 35.8666H99.7267L108.3 12.0667H116.367L125.1 35.8666H117.86H117.847ZM110.193 25.6H114.433L112.3 19.0933L110.193 25.6Z" fill="#CC3136"/>
<path d="M147.753 35.8666H141.127L132.553 23.0933H132.527V35.8666H125.927V12.0667H132.553L141.127 24.6266H141.153V12.0667H147.753V35.8666Z" fill="#CC3136"/>
<path d="M172.007 23.9733C172.007 31.1467 166.993 35.8533 159.22 35.8533H150.94V12.0667H159.22C166.993 12.0667 172.007 16.8133 172.007 23.9867V23.9733ZM157.887 29.5867H159.06C162.66 29.5867 164.993 27.5467 164.993 23.9733C164.993 20.4 162.673 18.3333 159.06 18.3333H157.887V29.5867Z" fill="#CC3136"/>
<path d="M22.9933 1C10.3133 1 -0.00665283 11.32 -0.00665283 24C-0.00665283 36.68 10.3133 47 22.9933 47C32.9133 47 41.6867 40.6667 44.82 31.24L44.94 30.8667H38.2733L38.1933 31.0267C35.4467 36.9333 29.4867 40.7467 22.9933 40.7467C14.74 40.7467 7.86001 34.7467 6.48668 26.88H14.78V35.8533H29.9267L31.9 30.2H20.8733V26.88H45.82L45.8467 26.64C45.9533 25.7333 46.0067 24.8533 46.0067 24C45.9933 11.32 35.6733 1 22.9933 1ZM20.8733 21.1067V17.72H29.9267L31.9 12.0667H14.78V21.12H6.48668C7.86001 13.2533 14.74 7.25333 22.9933 7.25333C31.2467 7.25333 38.1133 13.1867 39.5 21.12H20.8733V21.1067Z" fill="#CC3136"/>
</g>
</g>
<defs>
<clipPath id="clip0_18_532">
<rect width="172" height="48" fill="white"/>
</clipPath>
<clipPath id="clip1_18_532">
<rect width="172.013" height="46" fill="white" transform="translate(-0.00665283 1)"/>
</clipPath>
</defs>
</svg>
