<svg width="96" height="48" viewBox="0 0 96 48" fill="none" xmlns="http://www.w3.org/2000/svg">
<g clip-path="url(#clip0_18_904)">
<g clip-path="url(#clip1_18_904)">
<path d="M94.04 28.39C92.77 27.85 90.65 27.96 88.26 29.38C88.26 29.38 92.52 18.16 92.67 17.79C93.21 16.36 93.07 15.22 92.55 14.52C92.35 14.26 92.09 14.05 91.79 13.91C91.49 13.77 91.16 13.7 90.83 13.7C90.15 13.7 89.48 13.87 88.88 14.19C88.79 14.25 88.72 14.33 88.68 14.42C88.64 14.52 88.63 14.62 88.65 14.72C88.62 15.54 88.46 16.35 88.19 17.12C87.43 19.39 86.4 21.6 86.13 22.19C85.53 23.52 83.9 26.79 81.76 28.55C81.03 29.26 80.08 29.7 79.07 29.81C77.89 29.81 77.79 27.97 78.58 26.02C78.58 26.02 81.71 18.19 81.77 18.02C83.29 14.09 80.52 12.83 77.88 14.17C77.71 14.25 77.54 14.41 77.67 14.54C78.04 14.93 77.86 16.05 77.25 17.83C77.25 17.83 75.51 22.45 74.16 25.23C71.76 30.2 67.71 30.35 69.46 25.4C69.89 24.19 76.91 5.25003 76.91 5.25003C77.67 3.02003 77.95 1.59003 76.91 0.62003C75.87 -0.34997 74.18 -0.13997 72.99 0.50003C72.82 0.59003 72.6 0.79003 72.75 0.91003C73.31 1.36003 73.1 2.53003 72.54 4.36003C71.02 8.64003 65.84 22.86 64.6 26.48C63.49 29.71 65.16 31.42 67.43 31.48C69.13 31.53 71.72 30.62 74.21 27.54C74.18 28.49 74.51 29.42 75.14 30.13C75.76 30.85 76.64 31.31 77.59 31.41C80.9 32.05 82.98 29.77 83.81 28.84C84.06 28.57 84.44 28.13 84.65 27.89L84.47 28.5C84.11 29.47 83.87 30.23 83.54 31.13L83.32 31.72C80.61 33.81 78.07 36.1 75.72 38.59C72.34 42.3 71.98 46.77 75.12 47.68C79.81 49 83.05 43.04 86.11 34.88L87.39 31.63L87.56 31.19C91.75 28.37 94.58 30.99 94.69 32.44C94.69 32.64 94.99 32.67 95.11 32.55C95.4 32.23 95.61 31.85 95.71 31.43C95.81 31.01 95.81 30.58 95.71 30.16C95.61 29.74 95.39 29.36 95.1 29.04C94.81 28.73 94.44 28.49 94.03 28.35L94.04 28.39ZM82.74 34.21C80.15 40.83 77.76 45.51 75.46 45.28C74.45 45.18 74.31 44.08 74.89 42.68C76.32 39.3 81.49 35.04 82.78 34.01L82.74 34.21Z" fill="#591D7C"/>
<path d="M64.53 14.15C62.37 13.18 59.8 14.37 56.44 18.58C57.28 16.48 57.44 15.11 56.59 14.29C55.52 13.25 53.51 13.9 52.91 14.21C52.7 14.32 52.57 14.42 52.65 14.62C53.03 15.46 52.41 17.25 51.74 19.16C51.48 19.92 50.81 21.73 50.02 23.6C48.73 26.63 46.08 29.66 44.03 29.1C43.33 28.91 43.09 27.87 43.44 26.89L46.75 17.4C47.99 13.39 44.68 13.11 42.85 14.12C42.61 14.25 42.42 14.41 42.52 14.55C42.92 15.12 42.52 16.63 42.31 17.29C41.38 19.84 40.43 23.52 38.37 26.46C37.22 28.25 35.6 29.44 34.37 29.37C33.15 29.3 32.62 27.86 33.49 25.21C33.83 24.15 35.53 19.53 36.47 16.59C37.37 13.79 34.19 13.13 32.23 14.16C32.07 14.24 31.88 14.4 32 14.53C32.36 14.93 32.26 16.04 31.66 17.73C30.64 20.4 29.78 23.13 29.08 25.91C28.26 29.54 29.84 31.26 32.35 31.48C34.86 31.71 37.34 30.02 39.01 27.91C38.91 28.32 38.9 28.75 38.99 29.16C39.07 29.57 39.24 29.97 39.49 30.31C39.74 30.65 40.06 30.94 40.43 31.15C40.8 31.36 41.21 31.49 41.63 31.52C43.54 31.69 45.73 30.7 47.88 28.65C47.51 30.38 48.28 31.47 50.16 31.48C50.91 31.52 51.65 31.28 52.22 30.79C52.22 30.77 52.23 30.75 52.23 30.73C52.23 30.71 52.23 30.69 52.22 30.67C52.22 30.61 52.03 30.38 52.35 29.43C53.66 25.52 54.96 22.68 56.22 20.97C57.63 19.07 59.59 17.53 60.95 17.66C62.3 17.79 62.33 19.31 61.88 20.01C61.64 20.34 61.83 20.5 62.06 20.49C65.89 20.18 67.33 15.36 64.54 14.11L64.53 14.15Z" fill="#591D7C"/>
<path d="M36 32.83C34.69 33.95 33 34.51 31.28 34.4C28.1 34.22 26.04 32.53 24.08 28.89C22.3 25.58 19.88 20.2 19.16 18.29C24.98 15.72 31.58 10.72 32.47 7.16998C32.6 6.77998 32.62 6.35998 32.52 5.96998C32.42 5.56998 32.2 5.20998 31.9 4.93998C31.58 4.72998 31.38 4.79998 31.24 4.93998C30.12 9.03998 20.33 15.37 14.84 16.68C16.72 11.43 18.64 6.02998 18.75 5.58998C19.87 1.15998 17.22 -0.250016 14.49 0.0399841C7.18998 0.799984 -0.71002 10.1 0.0499799 17.84C0.12998 18.6 0.56998 20.06 1.91998 20.35C2.36998 20.47 2.83998 20.42 3.24998 20.19C3.64998 19.97 3.94998 19.59 4.07998 19.15C4.07998 19.12 4.07998 19.1 4.07998 19.07C4.07998 19.05 4.05998 19.02 4.03998 19C4.01998 18.98 3.99998 18.97 3.97998 18.96C3.95998 18.96 3.92998 18.95 3.89998 18.96C3.44998 19.06 2.52998 18.33 2.29998 17.03C1.01998 9.53999 9.89998 1.43998 13.79 2.44998C14.65 2.69998 14.88 3.64998 14.38 5.15998C12.96 9.18998 7.65998 24.16 6.29998 28.02C4.77998 32.38 7.49998 34.08 10.47 33.19C10.76 33.1 10.86 32.83 10.68 32.71C9.91998 32.19 9.99998 30.36 11.1 27.02C11.17 26.81 13.5 20.46 13.58 20.21L15.05 19.69C20.37 32.05 23.17 37.06 30.58 36.56C31.74 36.49 32.88 36.15 33.89 35.57C34.9 34.99 35.77 34.19 36.42 33.22C36.61 32.96 36.24 32.62 36.01 32.85L36 32.83Z" fill="#591D7C"/>
</g>
</g>
<defs>
<clipPath id="clip0_18_904">
<rect width="96" height="48" fill="white"/>
</clipPath>
<clipPath id="clip1_18_904">
<rect width="95.81" height="47.89" fill="white"/>
</clipPath>
</defs>
</svg>
