<svg width="132" height="48" viewBox="0 0 132 48" fill="none" xmlns="http://www.w3.org/2000/svg">
<g clip-path="url(#clip0_18_839)">
<path d="M3.72 32.48H1V9.59L3.72 9V32.48ZM11.01 15.87L13.14 17.41L7.9 23.98L13.97 31.26L11.87 32.89L4.7 24.13L11.01 15.87Z" fill="black"/>
<path d="M16.01 28.12C16.01 26.48 16.56 25.23 17.65 24.38C18.75 23.52 20.34 23.09 22.43 23.09H25.57V22.05C25.57 19.54 24.46 18.29 22.25 18.29C21.54 18.29 20.79 18.39 20.01 18.59C19.23 18.79 18.52 19.03 17.86 19.33L17.06 17.41C17.87 16.96 18.74 16.61 19.68 16.36C20.62 16.11 21.53 15.99 22.42 15.99C26.25 15.99 28.16 18.03 28.16 22.12V32.48H26.15L25.82 30.7C25.01 31.35 24.15 31.85 23.23 32.21C22.31 32.57 21.44 32.74 20.61 32.74C19.17 32.74 18.04 32.33 17.22 31.51C16.4 30.69 15.99 29.56 15.99 28.12H16.01ZM21.1 30.55C21.47 30.55 21.86 30.5 22.27 30.4C22.67 30.3 23.08 30.17 23.48 30.02C23.88 29.86 24.26 29.67 24.62 29.44C24.98 29.21 25.29 28.97 25.57 28.71V24.92H22.73C21.29 24.92 20.24 25.17 19.58 25.66C18.92 26.15 18.59 26.93 18.59 28C18.59 29.7 19.43 30.55 21.11 30.55H21.1Z" fill="black"/>
<path d="M36.26 32.48H33.54V9.59L36.26 9V32.48ZM43.54 15.87L45.67 17.41L40.43 23.98L46.5 31.26L44.4 32.89L37.24 24.13L43.55 15.87H43.54Z" fill="black"/>
<path d="M48.54 28.12C48.54 26.48 49.09 25.23 50.18 24.38C51.27 23.53 52.87 23.09 54.96 23.09H58.1V22.05C58.1 19.54 56.99 18.29 54.78 18.29C54.07 18.29 53.32 18.39 52.54 18.59C51.76 18.79 51.05 19.03 50.39 19.33L49.59 17.41C50.4 16.96 51.27 16.61 52.21 16.36C53.15 16.11 54.06 15.99 54.95 15.99C58.78 15.99 60.69 18.03 60.69 22.12V32.48H58.68L58.35 30.7C57.54 31.35 56.68 31.85 55.76 32.21C54.84 32.57 53.97 32.74 53.14 32.74C51.7 32.74 50.57 32.33 49.75 31.51C48.93 30.69 48.52 29.56 48.52 28.12H48.54ZM53.64 30.55C54.01 30.55 54.4 30.5 54.81 30.4C55.21 30.3 55.62 30.17 56.02 30.02C56.42 29.86 56.8 29.67 57.16 29.44C57.52 29.21 57.83 28.97 58.11 28.71V24.92H55.27C53.83 24.92 52.78 25.17 52.12 25.66C51.46 26.15 51.13 26.93 51.13 28C51.13 29.7 51.97 30.55 53.65 30.55H53.64Z" fill="black"/>
<path d="M72.35 16.02C74.6 16.02 76.37 16.75 77.65 18.21C78.93 19.67 79.57 21.76 79.57 24.49C79.57 27.22 78.93 29.24 77.66 30.68C76.39 32.12 74.62 32.84 72.35 32.84C70.08 32.84 68.33 32.12 67.05 30.68C65.77 29.24 65.13 27.18 65.13 24.49C65.13 21.8 65.78 19.67 67.07 18.21C68.36 16.75 70.12 16.02 72.35 16.02ZM72.35 18.21C70.93 18.21 69.84 18.74 69.08 19.81C68.32 20.88 67.94 22.44 67.94 24.49C67.94 26.54 68.32 28.06 69.08 29.09C69.84 30.13 70.93 30.64 72.35 30.64C73.77 30.64 74.89 30.12 75.65 29.09C76.41 28.05 76.79 26.52 76.79 24.49C76.79 22.46 76.41 20.88 75.65 19.81C74.89 18.74 73.79 18.21 72.35 18.21Z" fill="black"/>
<path d="M87.92 32.62V38.69H83.6V16.31H86.65L87.18 17.73C88.1 16.81 89.49 15.84 91.74 15.84C95.97 15.84 97.99 19.01 97.96 24.13C97.96 29.49 94.85 32.92 90.41 32.92C89.55 32.92 88.9 32.86 87.92 32.62ZM87.92 19.92V29.6C88.16 29.63 88.75 29.69 89.31 29.69C92.39 29.69 93.57 27.53 93.57 24.12C93.57 21.13 92.77 19.32 90.31 19.32C89.51 19.32 88.62 19.56 87.91 19.91L87.92 19.92Z" fill="black"/>
<path d="M107.37 22.62H109.83V22.09C109.83 20.31 108.82 19.48 107.08 19.48C105.75 19.48 104.03 19.86 102.64 20.55L101.46 17.65C103 16.58 105.37 15.84 107.47 15.84C111.61 15.84 113.86 18.03 113.86 22.21V32.48H110.81L110.37 31.12C108.62 32.39 107.02 32.93 105.57 32.93C102.4 32.93 100.63 31.04 100.63 27.84C100.63 24.44 103 22.63 107.38 22.63L107.37 22.62ZM109.83 28.33V25.37H107.85C105.63 25.37 104.5 26.17 104.5 27.77C104.5 28.98 105.12 29.58 106.39 29.58C107.57 29.58 109.08 28.99 109.82 28.34L109.83 28.33Z" fill="black"/>
<path d="M126.94 30.82C125.43 34.85 123.62 37.78 120.99 39.41L118.33 36.95C119.87 35.62 120.96 34.32 121.91 32.57L116.17 16.91L120.46 15.76L124.13 28.46L127.77 15.7L132 16.88L126.94 30.82Z" fill="black"/>
</g>
<defs>
<clipPath id="clip0_18_839">
<rect width="131" height="30.4" fill="white" transform="translate(1 9)"/>
</clipPath>
</defs>
</svg>
