<svg width="166" height="48" viewBox="0 0 166 48" fill="none" xmlns="http://www.w3.org/2000/svg">
<g clip-path="url(#clip0_18_950)">
<path fill-rule="evenodd" clip-rule="evenodd" d="M69.5637 25.6243C72.4627 26.6988 74.1391 27.3182 74.1391 30.0613C74.1391 32.5896 72.3493 34.2203 69.5133 34.2203C66.6773 34.2203 64.6606 32.5137 64.6606 29.6695V29.2776H60.539C60.539 34.8018 64.4589 37.9873 69.5133 37.9873C74.5677 37.9873 78.2481 34.2203 78.2481 29.897C78.2481 27.6848 77.5549 26.2817 76.3827 25.0302C75.2231 23.7914 73.7736 23.0076 71.3661 22.1101L69.8158 21.5286C66.4 20.2392 65.3034 19.2785 65.3034 17.3318C65.3034 15.1196 66.9294 13.7543 69.4629 13.7543C71.9964 13.7543 73.698 15.1196 73.698 17.6099V18.1155H77.8196C77.8196 13.1349 74.6685 9.9873 69.4629 9.9873C63.7909 9.9873 61.1944 13.9187 61.1944 17.4203C61.1944 19.367 61.812 20.7701 62.8204 22.009C63.8287 23.2478 65.2278 23.9936 67.2823 24.7647L69.1478 25.46L69.5511 25.6117L69.5637 25.6243ZM24.1626 10.3918L14.369 26.2185L4.62582 10.3918H0V37.6207H3.88216V16.1435L12.5792 30.2636H16.1588L24.8937 16.1435V37.6207H28.7759V10.3918H24.15H24.1626ZM51.968 26.2185V10.3918H55.8879V26.1805C55.8879 33.6135 51.6529 37.9999 45.2876 37.9999C38.9224 37.9999 34.6873 33.6009 34.6873 26.1805V10.3918H38.6073V26.2185C38.6073 31.1611 41.166 34.195 45.2876 34.195C49.4093 34.195 51.968 31.1611 51.968 26.2185ZM83.2017 37.6207H87.1595V10.3918H83.2017V37.6207ZM97.0665 37.6207V16.5354L111.209 37.6207H115.557V10.3918H111.675V31.5909L97.4951 10.3918H93.1844V37.6207H97.0665ZM133.808 30.074C133.808 27.3182 132.132 26.6988 129.233 25.637L128.83 25.4853L126.964 24.79C124.91 24.0063 123.511 23.2731 122.502 22.0343C121.494 20.7954 120.876 19.3923 120.876 17.4455C120.876 13.944 123.485 10.0126 129.157 10.0126C134.363 10.0126 137.514 13.1602 137.514 18.1408H133.392V17.6352C133.392 15.1449 131.64 13.7796 129.157 13.7796C126.674 13.7796 124.998 15.1449 124.998 17.3571C124.998 19.3038 126.082 20.2771 129.51 21.5539L131.061 22.1354C133.468 23.0329 134.905 23.804 136.077 25.0555C137.237 26.2943 137.943 27.6975 137.943 29.9223C137.943 34.2455 134.325 38.0126 129.208 38.0126C124.09 38.0126 120.233 34.827 120.233 29.3029H124.355V29.6948C124.355 32.539 126.372 34.2455 129.208 34.2455C132.044 34.2455 133.834 32.6148 133.834 30.0866L133.808 30.074ZM158.929 30.0361H146.804L143.741 37.6207H139.745L150.736 10.3918H155.009L166 37.6207H162.004L158.942 30.0361H158.929ZM152.866 15.0564L148.366 26.1805H157.379L152.879 15.0564H152.866Z" fill="#0A0F17"/>
</g>
<defs>
<clipPath id="clip0_18_950">
<rect width="166" height="28" fill="white" transform="translate(0 10)"/>
</clipPath>
</defs>
</svg>
