<svg width="335" height="48" viewBox="0 0 335 48" fill="none" xmlns="http://www.w3.org/2000/svg">
<g clip-path="url(#clip0_18_1221)">
<g clip-path="url(#clip1_18_1221)">
<path d="M26.523 0C25.9284 0.4608 25.3148 0.9216 24.7011 1.3632C23.5696 2.2464 22.534 3.2256 21.6134 4.32L20.8847 5.3184C20.7312 5.5104 20.597 5.7408 20.4627 5.9712C20.4052 6.0672 20.3477 6.1824 20.3093 6.2976C20.2134 6.4704 20.1175 6.6432 20.06 6.8352C19.9641 7.1808 19.8682 7.5264 19.7723 7.872L19.7148 8.6592C19.7148 8.9088 19.7148 9.1392 19.7148 9.408C19.8107 10.7136 20.0792 12 20.4819 13.248C21.1148 14.5536 21.786 15.8208 22.4764 17.0688C23.7038 18.3936 24.9312 19.776 26.1202 21.1584C27.0983 19.9872 28.0764 18.7776 28.9969 17.568L29.975 15.936C30.6462 14.8224 31.1257 13.6128 31.4133 12.3648L31.5859 11.0208C31.6818 10.4064 31.6435 9.8112 31.5284 9.1968C31.49 8.9664 31.4517 8.736 31.3942 8.5056L31.1065 7.5648C30.8764 6.8352 30.5503 6.1248 30.1476 5.4528C29.649 4.6464 29.1695 3.84 28.7284 3.0144C28.6134 2.88 28.5175 2.7264 28.4408 2.5728L26.5613 0.0768M8.36147 8.6976C7.78613 8.544 7.19161 8.3904 6.61628 8.1984C6.38614 8.16 6.156 8.1216 5.92587 8.064C5.92587 8.1984 5.90669 8.3328 5.90669 8.4672L6.07929 9.984L6.156 10.6368L6.27107 11.4432C6.53956 13.632 7.26833 15.7248 8.39982 17.6256C9.35872 19.008 10.5477 20.2176 11.8902 21.1968C13.3094 21.9648 14.8436 22.5024 16.4162 22.7712C18.4299 22.6944 20.4244 22.3872 22.3614 21.8112C22.3614 21.6768 22.3422 21.5232 22.3038 21.3888L22.0161 19.9872C21.5942 18.1056 20.7696 16.32 19.6189 14.784L18.4682 13.4784C17.5669 12.4032 16.4929 11.5008 15.3039 10.8096L14.7285 10.5216C14.2299 10.272 13.7121 10.0608 13.1943 9.8688C12.0628 9.504 10.893 9.2544 9.70392 9.1008C9.5505 9.0432 9.41625 9.0048 9.26283 8.9664C8.97516 8.9088 8.66831 8.8128 8.39982 8.6976M41.0598 10.3488C39.7557 10.0992 38.4133 10.1952 37.1475 10.5984C36.6489 10.7904 36.1695 11.04 35.7092 11.328C34.5393 12.1344 33.4654 13.0752 32.5065 14.1312C32.0654 14.688 31.701 15.3216 31.4133 15.9936C31.164 16.5888 30.8764 17.1648 30.5695 17.7024L30.301 18.336C30.1668 18.6624 30.0517 19.008 29.9558 19.3536L29.3038 22.0608C29.5147 22.0992 29.7257 22.1376 29.9366 22.176L32.3722 22.4832C32.9092 22.5792 33.4462 22.6176 34.0024 22.5984C36.1886 22.4832 38.3366 21.9264 40.2735 20.9088C40.3886 20.8512 40.5228 20.8128 40.6379 20.736C41.6352 20.2368 42.5749 19.68 43.4762 19.0464C44.6269 18.2784 45.6242 17.28 46.3721 16.1088C46.6023 15.7824 46.8132 15.4176 46.9858 15.0336C47.3502 14.112 47.5803 13.1328 47.657 12.1344L44.6653 11.0976L44.3393 11.0016C44.0516 10.9248 43.7831 10.848 43.5146 10.7904C42.69 10.6176 41.8653 10.4448 41.0215 10.3104M14.2107 32.9856C14.9011 32.7168 15.534 32.2944 16.071 31.7568L17.2217 30.6048C18.123 29.6448 18.9285 28.608 19.6764 27.5328L20.0025 27.0336C20.2326 26.6688 20.4819 26.3232 20.7312 25.9776C19.1011 25.2288 17.4134 24.576 15.6874 24.0384C14.6518 23.7504 13.597 23.4816 12.5423 23.2704C12.1395 23.2128 11.7176 23.1744 11.2957 23.1552L9.16694 23.04C8.5916 23.04 8.01626 23.0976 7.4601 23.232C5.06286 23.8848 2.83822 24.9984 0.901253 26.5344L-0.0192871 27.2832C0.805364 28.5696 1.70673 29.7984 2.6848 30.9696C2.83822 31.1616 2.99165 31.3344 3.16425 31.5072L4.25739 32.6016C4.69848 32.8128 5.13958 33.024 5.59985 33.216C6.46285 33.6768 7.40257 33.9648 8.36147 34.0416L9.07105 34.1184C10.5094 34.0224 11.9477 33.7536 13.3285 33.3312C13.6162 33.2352 13.9039 33.12 14.1724 32.9856M39.5831 23.1168C39.353 23.1168 39.1229 23.1168 38.9119 23.1168C38.4133 23.1744 37.9147 23.232 37.416 23.3088C36.7256 23.5392 36.0352 23.7888 35.364 24.0768C33.7147 24.6912 32.1996 25.5744 30.8188 26.6688L31.3942 27.744C31.7585 28.3968 32.1421 29.0304 32.5832 29.6448C33.0243 30.2016 33.5229 30.7008 34.0791 31.1424L34.4243 31.392C34.6544 31.5648 34.8845 31.7184 35.153 31.8336L35.5174 32.0448C35.69 32.16 35.8818 32.256 36.0544 32.352L37.1859 32.7936L37.6845 32.9856C38.2407 33.1776 38.816 33.2928 39.4105 33.3504C40.1201 33.4272 40.8105 33.4656 41.5393 33.4656H41.9037C42.0954 33.4656 42.2872 33.4656 42.479 33.4464C42.6708 33.4464 42.8626 33.4464 43.0543 33.4464L43.8598 33.3888C44.2817 33.3504 44.7036 33.2928 45.1256 33.2544L45.9502 33.1392C46.9666 32.9664 47.9639 32.7744 48.9611 32.5248C49.3255 32.3904 49.7091 32.256 50.0926 32.1408L50.3611 32.064C50.6104 31.968 50.8789 31.8528 51.1091 31.7184C50.5721 30.3744 49.9776 29.0688 49.2872 27.8016C49.1529 27.5904 49.0187 27.36 48.9036 27.1296C48.52 26.6496 48.1173 26.208 47.6762 25.7856L46.8516 25.1136C46.6214 24.9408 46.3721 24.7872 46.1036 24.6528C44.5694 23.9424 42.9584 23.4624 41.29 23.232H40.9256C40.4653 23.136 40.0242 23.0976 39.564 23.1168M36.8407 35.04C36.227 34.3488 35.5366 33.7344 34.7886 33.1776C32.5832 31.68 30.1668 30.4896 27.6353 29.6832L27.5394 30.1248C27.0024 31.7568 26.6189 33.4272 26.4271 35.136C26.3695 35.5584 26.3695 35.9808 26.3887 36.4224C26.3887 37.248 26.5038 38.0736 26.7147 38.8608C26.8106 39.1488 26.9065 39.4176 27.0408 39.7056C27.4051 40.2624 27.7695 40.8192 28.1531 41.376C28.2682 41.5296 28.4024 41.6832 28.5175 41.8368C29.1312 42.4512 29.7832 43.008 30.4736 43.5072C31.7394 44.3904 33.0818 45.1584 34.501 45.792L35.4215 46.1184L38.2982 47.136C38.8544 47.3664 39.4105 47.5776 39.9859 47.7504L40.0626 44.3136C40.0626 43.5648 39.9859 42.816 39.8708 42.0672C39.8133 41.3952 39.7174 40.7232 39.5831 40.0704C39.4297 39.1488 39.1037 38.2848 38.6051 37.4976C38.0681 36.6528 37.4736 35.8464 36.8407 35.0592M23.6271 29.7408C21.3833 30.624 19.1586 31.6032 16.9724 32.64L15.86 33.3504C15.1888 34.0608 14.4792 34.7328 13.7505 35.3856C13.0409 36.0576 12.5231 36.864 12.1971 37.7856C12.082 38.1312 12.0245 38.4768 12.0245 38.8224C11.9669 40.1088 12.0436 41.3952 12.2546 42.6624C12.5423 44.0448 12.9066 45.3888 13.3669 46.7136L13.6738 48L14.0573 47.9424C15.7066 47.3856 17.3176 46.7712 18.871 46.0608C20.06 45.4656 21.1531 44.7168 22.112 43.7952C22.323 43.584 22.5148 43.3536 22.7066 43.1232C22.8408 42.9888 22.9559 42.8352 23.0709 42.7008C24.3175 41.0112 25.0271 38.9952 25.0846 36.9024C25.0846 36.5952 25.0846 36.288 25.0846 35.9808C25.0079 35.3856 24.9312 34.7712 24.8161 34.176L24.7586 33.792C24.6435 33.408 24.5476 33.024 24.4709 32.64C24.2024 31.6608 23.9148 30.7008 23.6079 29.7408" fill="#D0372F"/>
<path d="M306.367 23.6927H328.806V21.3503H306.367V23.6927Z" fill="#697379"/>
<path d="M306.367 23.6736H308.918V10.6176H306.367V23.6736ZM296.587 39.7632H299.425V10.5984H296.587V39.744V39.7632ZM281.781 13.44C286.173 15.4752 289.031 19.8336 289.126 24.672C289.146 26.1888 288.916 27.7056 288.398 29.1264L290.718 30.24C291.409 28.4736 291.735 26.5728 291.696 24.672C291.562 17.9136 287.017 12.0384 280.496 10.2336L270.62 28.9728L273.707 28.9344L281.781 13.44ZM263.984 20.7744L264.828 18.432H261.203V10.6176H258.595V39.7632H261.203V20.7936H263.984" fill="#697379"/>
<path d="M263.888 39.744H266.477V10.5984H263.888V39.744ZM208.675 29.6448H211.513V10.5984H208.675V29.6256V29.6448ZM230.768 39.744H233.606V10.5984H230.768V39.744Z" fill="#697379"/>
<path d="M208.675 30.6816H232.417V28.3392H208.675V30.6816ZM208.675 20.832H223.174V18.4896H208.675V20.832ZM208.675 12.9408H223.174V10.5984H208.675V12.9408ZM226.069 20.832H232.916V18.4896H226.069V20.832ZM241.546 29.6448H244.384V10.5984H241.546V29.6256V29.6448Z" fill="#697379"/>
<path d="M241.546 30.6816H260.475V28.3392H241.546V30.6816ZM309.647 29.0496H330.819V26.7072H309.647V29.0496ZM310.893 39.7632H330.838V37.4208H310.893V39.7632ZM309.647 34.3296H330.819V31.9872H309.647V34.3296Z" fill="#697379"/>
<path d="M309.647 39.7632H312.485V32.0832H309.647V39.7632ZM328 25.056H330.838V10.6176H328V25.056ZM328 32.5248H330.838V28.3776H328V32.5248ZM288.225 18.2208H298.14V15.8784H288.225V18.2208Z" fill="#697379"/>
<path d="M329.381 18.2207H335V15.8783H329.381V18.2207ZM289.568 22.9247H298.14V20.5823H289.568V22.9247ZM182.21 9.75354C177.3 9.75354 173.33 13.7279 173.33 18.6431C173.33 21.0239 174.27 23.2895 175.938 24.9599C177.607 26.6303 179.87 27.5519 182.229 27.5711C187.138 27.5711 191.127 23.5967 191.127 18.6815C191.127 16.3199 190.188 14.0543 188.519 12.3839C186.851 10.7135 184.588 9.77274 182.229 9.77274M188.538 18.6623C188.538 20.3519 187.867 21.9455 186.678 23.1551C184.204 25.6319 180.196 25.6319 177.741 23.1551C175.267 20.6783 175.267 16.6655 177.741 14.2079C180.215 11.7311 184.223 11.7311 186.678 14.2079C187.867 15.3983 188.519 16.9919 188.538 18.6815M119.862 18.4319H116.237C114.742 15.4175 112.325 12.9599 109.353 11.3855C108.835 11.0975 108.317 10.8287 107.78 10.5599L107.416 10.3679L97.5773 29.0111H100.531L108.585 13.7279C111.29 15.3215 113.342 17.8175 114.416 20.7551C115.221 23.3471 115.144 26.1311 114.224 28.7039L116.525 30.0287C117.005 28.7615 117.311 27.4175 117.446 26.0543C117.637 24.2879 117.503 22.5023 117.081 20.7743H119.862V39.7439H122.47V10.5983H119.862V18.4319ZM125.155 39.7631H127.744V10.5983H125.155V39.7439V39.7631ZM80.1829 28.9919L82.5802 30.1055C83.098 28.7231 83.424 27.2831 83.5199 25.8047C83.961 20.9663 81.8514 16.2623 77.9391 13.3631C77.1145 12.7103 76.2323 12.1151 75.3118 11.5967C74.7172 11.2511 74.1227 10.9439 73.4898 10.6559L73.0296 10.4063L63.1721 29.0495H66.2406L74.2378 13.7279C77.172 15.3407 79.3775 18.0095 80.4514 21.1967C81.161 23.7695 81.0651 26.4767 80.1829 28.9919Z" fill="#697379"/>
<path d="M89.8679 37.4016H73.5283V28.9728H70.6899V39.744H92.6678V10.5984H89.8679V37.4016ZM197.859 37.4016H183.149V28.9728H180.311V39.744H200.659V10.5984H197.859V37.4016ZM158.659 39.7632H161.267V10.5984H158.659V39.744V39.7632ZM134.226 30.3936C139.52 30.144 144.41 27.4176 147.382 23.0208L153.385 22.9248V39.7632H155.993V10.5984H153.385V15.8784H149.684C149.761 14.1504 149.569 12.4224 149.128 10.752L135.531 10.6368V13.0176H146.999C147.095 13.6128 147.152 14.208 147.133 14.8032C147.133 20.4096 143.528 25.3632 138.196 27.0528C136.604 27.6096 134.955 27.936 133.287 28.0512L134.226 30.4128M153.366 20.5632H148.571C148.859 19.8144 149.108 19.0656 149.281 18.2976L153.366 18.2208V20.5632Z" fill="#697379"/>
</g>
</g>
<defs>
<clipPath id="clip0_18_1221">
<rect width="335" height="48" fill="white"/>
</clipPath>
<clipPath id="clip1_18_1221">
<rect width="335" height="48" fill="white"/>
</clipPath>
</defs>
</svg>
