<svg width="80" height="48" viewBox="0 0 80 48" fill="none" xmlns="http://www.w3.org/2000/svg">
<g clip-path="url(#clip0_18_923)">
<path d="M28.105 38H22.9601C22.6226 38 22.3398 37.7264 22.3398 37.3798V10.6202C22.3398 10.2827 22.6135 10 22.9601 10H28.105C28.4425 10 28.7252 10.2736 28.7252 10.6202V37.3798C28.7252 37.7173 28.4516 38 28.105 38Z" fill="#42B22E"/>
<path d="M17.7241 31.6156H6.38541V11.1127C6.38541 10.5016 5.8837 10 5.27252 10H1.11288C0.50171 10 0 10.5016 0 11.1127V36.8873C0 37.4984 0.50171 38 1.11288 38H17.7241C18.3352 38 18.8369 37.4984 18.8369 36.8873V32.7375C18.8369 32.1264 18.3444 31.6248 17.7241 31.6248V31.6156Z" fill="#42B22E"/>
<path d="M78.8871 16.3844C79.4983 16.3844 80 15.8827 80 15.2717V11.1127C80 10.5016 79.4983 10 78.8871 10H62.3763C61.7651 10 61.2634 10.5016 61.2634 11.1127V36.8873C61.2634 37.4984 61.7651 38 62.3763 38H78.8871C79.4983 38 80 37.4984 80 36.8873V32.7375C80 32.1264 79.4983 31.6248 78.8871 31.6248H67.6488V27.2013H78.8871C79.4983 27.2013 80 26.6997 80 26.0886V21.9388C80 21.3277 79.4983 20.8261 78.8871 20.8261H67.6488V16.3935H78.8871V16.3844Z" fill="#42B22E"/>
<path d="M56.1369 10H51.9864C51.3752 10 50.8735 10.5016 50.8735 11.1127V26.4534L39.1882 10.8026C38.8689 10.3648 38.6226 10 38.1118 10H33.9613C33.3501 10 32.8484 10.5016 32.8484 11.1127V36.8873C32.8484 37.4984 33.3501 38 33.9613 38H38.1118C38.723 38 39.2247 37.4984 39.2247 36.8873V21.5831L50.9191 37.243C51.1198 37.5349 51.4846 38 51.9772 38H56.1278C56.7389 38 57.2406 37.4984 57.2406 36.8873V11.1127C57.2406 10.5016 56.748 10 56.1278 10H56.1369Z" fill="#42B22E"/>
</g>
<defs>
<clipPath id="clip0_18_923">
<rect width="80" height="28" fill="white" transform="translate(0 10)"/>
</clipPath>
</defs>
</svg>
