<?xml version="1.0" encoding="UTF-8"?>
<svg id="_레이어_1" data-name="레이어 1" xmlns="http://www.w3.org/2000/svg" viewBox="0 0 144 44.29">
  <defs>
    <style>
      .cls-1 {
        fill: #fff;
      }

      .cls-2 {
        fill: #004098;
      }

      .cls-3 {
        fill: #004093;
      }
    </style>
  </defs>
  <path class="cls-3" d="M90.23,20.62c18.25-9.35,15.96-18.29-2.61-20.14-20.01-1.99-49.24,2.31-69.61,10.54l-2.82,1.21c-21.21,9.48-19.2,19.52-.27,21.35,20.69,2,52.14-2.09,72.73-11.68l2.57-1.29Z"/>
  <path class="cls-1" d="M86.29,22.45s-3.49.28-3.57-2.53v-5.44s-.43-3,3.47-3c0,0,2.54-.08,3.22,1.43,0,0,.33.4.24,2.07h-2.71v-.85s0-.69-.71-.69c0,0-.74.03-.74.61v5.62s-.03.76.8.76c0,0,.68-.02.68-.81v-1.63h-.74v-1.51h3.48v3.19s0,.67-.29,1.06c0,0-.28.43-.39.51,0,0-.94,1.2-2.75,1.2"/>
  <polygon class="cls-1" points="79.12 11.89 76.41 11.89 76.6 18.12 76.49 18.12 73.74 11.9 70.45 11.9 70.45 22.16 73.13 22.16 72.96 15.88 73.08 15.88 75.93 22.16 79.12 22.16 79.12 11.89"/>
  <path class="cls-1" d="M62.33,11.85h-2.93v7.7s-.3,2.91,3.81,2.91c0,0,3.57.04,3.57-2.78v-7.83h-2.87v7.74s.04.85-.75.85c0,0-.83.04-.83-.83v-7.76Z"/>
  <path class="cls-1" d="M56.03,15.03v-1.29s.2-2.11-3.19-2.2c0,0-2.67-.18-3.43,1.26,0,0-.3.32-.3,1.44v.81s-.03.93.44,1.53c0,0,.27.39.93.83,0,0,1.34.72,2.15,1.14,0,0,.81.46.71,1.2,0,0-.07.76-.85.73,0,0-.72-.03-.72-.77v-.87h-2.88v1.27s-.08,2.43,3.62,2.43c0,0,3.53.07,3.7-2.49v-1.03s.12-1.57-1.25-2.4c0,0-.73-.46-1.19-.63,0,0-1.41-.65-1.68-.96,0,0-.55-.52-.23-1.12,0,0,.13-.39.71-.39,0,0,.75.04.75.66v.87h2.7Z"/>
  <polygon class="cls-1" points="34.63 11.89 34.41 22.16 37.08 22.16 37.11 14.42 37.32 14.42 38.74 22.16 41.55 22.16 42.95 14.43 43.13 14.43 43.2 22.16 45.88 22.16 45.6 11.89 41.13 11.89 40.22 17.51 40.01 17.51 39.14 11.89 34.63 11.89"/>
  <polygon class="cls-1" points="31.54 22.15 29.76 11.88 25.22 11.88 23.44 22.15 26.32 22.15 27.37 14.19 27.61 14.19 28.66 22.15 31.54 22.15"/>
  <path class="cls-1" d="M20.62,15.03v-1.29s.2-2.11-3.19-2.2c0,0-2.67-.18-3.43,1.26,0,0-.3.32-.3,1.44v.81s-.03.93.44,1.53c0,0,.27.39.93.83,0,0,1.34.72,2.15,1.14,0,0,.81.46.71,1.2,0,0-.07.76-.85.73,0,0-.72-.03-.72-.77v-.87h-2.88v1.27s-.08,2.43,3.62,2.43c0,0,3.53.07,3.7-2.49v-1.03s.12-1.57-1.25-2.4c0,0-.74-.46-1.19-.63,0,0-1.41-.65-1.68-.96,0,0-.55-.52-.23-1.12,0,0,.14-.39.71-.39,0,0,.75.04.75.66v.87h2.7Z"/>
  <g>
    <polygon class="cls-2" points="102.8 29.22 102.8 36.89 104.65 36.89 104.65 34.03 106.29 34.03 106.29 32.46 104.68 32.46 104.68 29.22 102.8 29.22"/>
    <path class="cls-2" d="M95.83,37.51h8.85v6.27h-8.85v-6.27ZM102.87,39.04h-5.23v3.21h5.23v-3.21Z"/>
    <polygon class="cls-2" points="117.44 29.22 117.44 36.89 115.59 36.89 115.59 33.37 113.19 33.37 113.19 31.8 115.55 31.8 115.55 29.22 117.44 29.22"/>
    <path class="cls-2" d="M112.84,44.29c-2.75,0-4.98-1.68-4.98-3.75s2.23-3.74,4.98-3.74,4.98,1.68,4.98,3.74-2.23,3.75-4.98,3.75M115.93,40.54c0-1.16-1.39-2.09-3.09-2.09s-3.1.94-3.1,2.09,1.39,2.09,3.1,2.09,3.09-.94,3.09-2.09"/>
    <path class="cls-2" d="M98.36,29.5s-.25,4.15,3.11,5.87l-.97,1.33s-2.46-1.62-3.02-3.4c-.56,1.78-3.02,3.4-3.02,3.4l-.97-1.33c3.36-1.72,3.11-5.87,3.11-5.87h1.74Z"/>
    <path class="cls-2" d="M110,33.3c-.56,1.78-2.81,3.26-2.81,3.26l-.97-1.33c3.16-1.58,2.91-5.73,2.91-5.73h1.74s-.25,4.15,2.91,5.73l-.97,1.33s-2.25-1.49-2.81-3.26"/>
    <rect class="cls-2" x="131.92" y="29.56" width="7.13" height="1.55"/>
    <rect class="cls-2" x="140.38" y="28.91" width="1.81" height="15.09"/>
    <rect class="cls-2" x="141.33" y="34.39" width="2.67" height="1.55"/>
    <rect class="cls-2" x="128.43" y="28.95" width="1.81" height="10.04"/>
    <rect class="cls-2" x="126.08" y="32.37" width="3.54" height="1.55"/>
    <rect class="cls-2" x="119.53" y="29.55" width="7.37" height="1.55"/>
    <rect class="cls-2" x="121.15" y="37.42" width="1.81" height="6.34"/>
    <path class="cls-2" d="M124.25,30.14s0,.06-.01.17c.04,1.39-.5,3.75,3.24,5.58l-.94,1.29s-2.7-1.45-3.35-3.27c-.64,1.82-3.35,3.27-3.35,3.27l-.94-1.29c3.75-1.82,3.21-4.18,3.24-5.58,0-.11-.01-.17-.01-.17h2.11Z"/>
    <path class="cls-2" d="M136.32,30.86v1.14c.09,3.35.2,5.78,3.12,8.36l-1.19,1.31s-2.46-2.28-2.82-4.33c-.37,2.05-2.82,4.33-2.82,4.33l-1.19-1.31c2.92-2.59,3.03-5.02,3.12-8.36v-1.14h1.8Z"/>
    <rect class="cls-2" x="122.11" y="42.21" width="8.17" height="1.55"/>
  </g>
</svg>