<?xml version="1.0" encoding="UTF-8"?>
<svg id="_레이어_1" data-name="레이어 1" xmlns="http://www.w3.org/2000/svg" viewBox="0 0 127.8 46.17">
  <defs>
    <style>
      .cls-1 {
        fill: #fff;
      }

      .cls-2 {
        fill: #2f9482;
      }

      .cls-3 {
        fill: #231f20;
      }

      .cls-4 {
        fill: #418c7e;
      }

      .cls-5 {
        fill: #d5953d;
      }
    </style>
  </defs>
  <path class="cls-2" d="M74.02,0H0v34.46h74.02V0Z"/>
  <path class="cls-5" d="M127.8,0h-36.01v34.46h36.01V0Z"/>
  <path class="cls-3" d="M92.13,0h-18.45v34.46h18.45V0Z"/>
  <path class="cls-1" d="M48.13,20.27c0,1.28-.37,2.32-1.92,2.33h0c-1.55,0-1.91-1.05-1.92-2.33v-9.25h-1.71v9.25c0,2.06,1.16,3.69,3.63,3.69h0c2.47,0,3.63-1.63,3.63-3.69v-9.25h-1.71v9.25Z"/>
  <path class="cls-1" d="M16.11,16.44h-3.84v-5.42h-1.71v12.83h1.71v-5.98h3.84v5.98h1.71v-12.83h-1.71v5.42Z"/>
  <path class="cls-1" d="M65.93,20.18l-3.41-9.15h-2.55v12.83h1.68v-10.84l4.12,10.84h1.83v-12.83h-1.67v9.15Z"/>
  <path class="cls-1" d="M30.15,16.47l-2.28-5.44h-1.78l3.2,7.41v5.42s1.7,0,1.7,0v-5.45l3.14-7.38h-1.78l-2.21,5.44Z"/>
  <path class="cls-1" d="M115.63,23.86h1.66v-12.83h-1.66v12.83Z"/>
  <path class="cls-1" d="M81.7,22.42h-.72v-9.98h.72c2.12.02,3.29.66,3.31,5-.02,4.34-1.19,4.97-3.31,4.99M82.03,11.03h-2.73v12.83h2.73c1.43,0,2.6-.38,3.4-1.38.81-1,1.24-2.6,1.24-5.05s-.43-4.04-1.24-5.04c-.8-1-1.97-1.37-3.41-1.37"/>
  <path class="cls-1" d="M99.29,18.79l1.43-6.43,1.43,6.43h-2.87ZM99.58,11.03v.05s-3.06,12.76-3.06,12.76h1.72l.8-3.6h3.37l.81,3.61h1.71l-3.04-12.82h-2.32Z"/>
  <path class="cls-2" d="M41.42,46.17v-3.04h-2.38v3.04h-.66v-6.27h.66v2.63h2.38v-2.63h.68v6.27h-.68Z"/>
  <path class="cls-4" d="M48.4,46.17l-.54-1.95h-2.13l-.55,1.95h-.69l1.91-6.34h.89l1.89,6.34h-.78ZM46.81,40.49l-.9,3.11h1.77l-.87-3.11Z"/>
  <path class="cls-2" d="M54.59,46.17l-1.81-3.84c-.36-.76-.64-1.51-.64-1.51,0,0,.07.89.07,1.71l.03,3.64h-.7v-6.27h.78l1.87,4c.28.6.5,1.25.53,1.32,0-.02-.06-1.02-.07-1.91l-.03-3.41h.67v6.27h-.71Z"/>
  <path class="cls-2" d="M74.32,41.13c-.2-.47-.61-.86-1.26-.86-.53,0-1,.28-1.21.73-.2.42-.29.95-.29,1.73,0,.94.14,1.76.36,2.19.21.4.74.67,1.2.67s.8-.18,1.05-.54c.28-.39.41-.89.41-1.93,0-.92-.09-1.55-.27-1.99M74.53,45.56c-.42.42-.85.61-1.43.61-.63,0-1.23-.29-1.61-.8-.44-.57-.67-1.41-.67-2.49,0-1.99.86-3.22,2.25-3.22.98,0,1.51.58,1.77,1.02.36.58.51,1.32.51,2.32,0,1.21-.25,1.97-.82,2.55"/>
  <path class="cls-2" d="M67.76,45.78c-.37.27-.75.39-1.27.39-.67,0-1.25-.18-1.81-.57l.3-.58c.47.37.95.54,1.51.54.43,0,.66-.07.9-.28.27-.22.42-.55.4-.89,0-.56-.33-.94-1.01-1.17l-.57-.19c-.51-.18-.78-.3-1.01-.56-.24-.29-.36-.65-.35-1.02,0-1.07.73-1.8,1.82-1.8.61,0,1.17.2,1.71.61l-.3.54c-.54-.39-.89-.53-1.38-.53-.71,0-1.12.39-1.12,1.03,0,.5.27.79.94,1.02l.65.23c.5.17.76.34,1,.63.61.82.44,1.97-.37,2.58-.01.01-.03.02-.04.03"/>
  <path class="cls-2" d="M82.42,46.17l-.33-4.6c-.02-.4-.04-1.02-.04-1.06-.02.06-.12.6-.22.98l-1.21,4.68h-.58l-1.12-4.45c-.16-.61-.26-1.08-.28-1.19,0,.09-.04.83-.06,1.19l-.31,4.46h-.65l.49-6.27h.99l1.03,4.1c.14.58.21,1.03.22,1.09.01-.05.08-.52.21-1.01l1.06-4.17h.99l.49,6.27h-.67Z"/>
  <path class="cls-2" d="M86.25,46.17v-6.27h3.09l-.09.62h-2.31v2.06h1.93v.65h-1.93v2.29h2.48v.65h-3.17Z"/>
  <path class="cls-2" d="M60.75,41.08c-.37-.48-.73-.57-1.32-.57h-.68v5.04h.68c.58,0,1.13-.08,1.43-.66.26-.49.38-1.09.38-1.75,0-.94-.1-1.54-.48-2.05M61.32,45.38c-.5.61-.99.79-1.78.79h-1.47v-6.27h1.13c.86,0,1.26.05,1.81.49.64.51.95,1.43.95,2.66,0,1.1-.26,1.88-.64,2.34"/>
</svg>