<?xml version="1.0" encoding="UTF-8"?>
<svg id="_레이어_1" data-name="레이어 1" xmlns="http://www.w3.org/2000/svg" viewBox="0 0 145 31.95">
  <defs>
    <style>
      .cls-1 {
        fill: #1e1e1e;
      }

      .cls-2 {
        fill: #fae100;
      }
    </style>
  </defs>
  <g>
    <rect class="cls-2" width="31.95" height="31.95" rx="3" ry="3"/>
    <path class="cls-1" d="M21.33,15.98c1.43-.94,2.37-2.56,2.37-4.39,0-2.9-2.35-5.26-5.26-5.26h-8.81c-.17,0-.3.14-.3.3v18.69c0,.17.14.31.3.31h8.81c2.9,0,5.26-2.35,5.26-5.26,0-1.84-.94-3.45-2.37-4.39ZM17,20.37h-1.66v-8.79h1.66v8.79Z"/>
  </g>
  <g>
    <g>
      <path class="cls-1" d="M43.23,24.28h-1.86V7.76l1.86-.42v16.94ZM48.6,12.31l1.46,1.08-3.82,4.77,4.42,5.28-1.46,1.15-5.15-6.34,4.55-5.94Z"/>
      <path class="cls-1" d="M56.24,17.54h2.32v-.95c0-1.83-.82-2.56-2.36-2.56-1.08,0-2.3.33-3.25.77l-.55-1.3c1.17-.66,2.58-1.06,3.84-1.06,2.76,0,4.11,1.33,4.11,4.24v7.6h-1.37l-.22-1.28c-1.15.93-2.63,1.46-3.8,1.46-2.05,0-3.29-1.24-3.29-3.31,0-2.36,1.59-3.6,4.57-3.6ZM58.56,21.63v-2.78h-2.08c-2.1,0-3.05.71-3.05,2.21,0,1.22.66,1.9,1.86,1.9,1.08,0,2.5-.57,3.27-1.33Z"/>
      <path class="cls-1" d="M65.52,24.28h-1.86V7.76l1.86-.42v16.94ZM70.89,12.31l1.46,1.08-3.82,4.77,4.42,5.28-1.46,1.15-5.15-6.34,4.55-5.94Z"/>
      <path class="cls-1" d="M78.53,17.54h2.32v-.95c0-1.83-.82-2.56-2.36-2.56-1.08,0-2.3.33-3.25.77l-.55-1.3c1.17-.66,2.58-1.06,3.84-1.06,2.76,0,4.11,1.33,4.11,4.24v7.6h-1.37l-.22-1.28c-1.15.93-2.63,1.46-3.8,1.46-2.05,0-3.29-1.24-3.29-3.31,0-2.36,1.59-3.6,4.57-3.6ZM80.85,21.63v-2.78h-2.08c-2.1,0-3.05.71-3.05,2.21,0,1.22.66,1.9,1.86,1.9,1.08,0,2.5-.57,3.27-1.33Z"/>
      <path class="cls-1" d="M95.63,18.49c0,3.87-1.92,6.01-5.17,6.01s-5.17-2.14-5.17-6.01,1.97-6.05,5.17-6.05,5.17,2.16,5.17,6.05ZM87.21,18.49c0,2.94,1.19,4.48,3.25,4.48s3.25-1.55,3.25-4.48-1.19-4.53-3.25-4.53-3.25,1.59-3.25,4.53Z"/>
    </g>
    <g>
      <path class="cls-1" d="M98.39,23.93V7.8l2.96-.53v5.77c.71-.44,1.63-.75,2.65-.75,3.14,0,4.59,2.14,4.59,5.88,0,4.04-2.21,6.45-5.88,6.45-1.7,0-3.51-.33-4.33-.68ZM101.35,14.94v7.38c.46.07.77.07,1.06.07,1.86,0,3.18-1.17,3.18-4.15,0-2.25-.55-3.56-2.65-3.56-.66,0-1.24.15-1.59.27Z"/>
      <path class="cls-1" d="M114.85,17.19h1.86v-.4c0-1.28-.4-2.01-2.14-2.01-1.08,0-2.08.22-3.14.77l-.82-2.03c1.13-.77,2.78-1.24,4.31-1.24,2.98,0,4.55,1.46,4.55,4.48v7.51h-2.08l-.33-.99c-1.19.93-2.47,1.3-3.51,1.3-2.28,0-3.53-1.35-3.53-3.67,0-2.45,1.68-3.73,4.84-3.73ZM116.7,21.37v-2.28h-1.59c-1.59,0-2.43.64-2.43,1.81,0,.84.49,1.39,1.46,1.39s2.03-.46,2.56-.93Z"/>
      <path class="cls-1" d="M122.11,12.64h2.1l.44,1.17c1.04-.93,2.47-1.52,3.71-1.52,2.61,0,3.91,1.61,3.91,4.53v7.47h-2.96v-7.56c0-1.3-.49-1.86-2.05-1.86-.62,0-1.5.18-2.19.44v8.97h-2.96v-11.64Z"/>
      <path class="cls-1" d="M140.98,18.1l4.02,4.82-2.23,1.77-4.88-5.99v5.59h-2.96V7.8l2.96-.53v10.71l4.46-6.05,2.21,1.55-3.58,4.62Z"/>
    </g>
  </g>
</svg>