<?xml version="1.0" encoding="UTF-8"?>
<svg id="_레이어_1" data-name="레이어 1" xmlns="http://www.w3.org/2000/svg" viewBox="0 0 139 27.66">
  <defs>
    <style>
      .cls-1 {
        fill: #221f1f;
      }
    </style>
  </defs>
  <path class="cls-1" d="M7.54,0C3.39,0,0,3.38,0,7.54h0v20.12h2.51V7.54c0-2.78,2.25-5.03,5.03-5.03h123.91c2.78,0,5.03,2.25,5.03,5.03v20.12h2.51V7.54c0-4.16-3.39-7.54-7.54-7.54H7.54Z"/>
  <g>
    <g>
      <path class="cls-1" d="M23.17,22.36c0,.2-.13.27-.34.27h-1.86c-.22,0-.29-.07-.29-.29v-5.07c0-.23-.16-.36-.39-.36h-4.89c-.22,0-.34.13-.34.36v5.07c0,.22-.13.29-.32.29h-1.9c-.18,0-.25-.07-.25-.27v-12.6c0-.2.07-.3.25-.3h1.9c.2,0,.32.11.32.3v4.88c0,.23.13.34.34.34h4.89c.23,0,.39-.11.39-.34v-4.88c0-.2.07-.3.29-.3h1.86c.22,0,.34.11.34.3v12.6Z"/>
      <path class="cls-1" d="M27.67,22.81c-1.38,0-2.1-1.11-2.1-2.06v-7.83c0-.23.09-.34.3-.34h1.79c.18,0,.3.11.3.34v7.57c0,.22.09.32.34.32h3.28c.22,0,.36-.11.36-.32v-7.57c0-.23.09-.34.3-.34h1.79c.2,0,.32.11.32.34v11.42c0,.29-.09.56-.22.82l-1.22,1.99c-.11.18-.27.29-.45.29h-.23c-.22,0-.3-.13-.3-.32v-5.06c0-.22-.13-.3-.32-.25l-3.44.97c-.16.04-.36.04-.52.04Z"/>
      <path class="cls-1" d="M38.84,22.79c-1.09,0-2.06-.9-2.06-2.06v-7.82c0-.23.09-.34.3-.34h1.81c.16,0,.29.11.29.34v7.57c0,.22.11.3.36.3h3.28c.22,0,.36-.09.36-.3v-7.57c0-.23.07-.34.29-.34h1.79c.2,0,.32.11.32.34v9.45c0,.2-.13.27-.32.27h-1.79c-.22,0-.29-.07-.29-.29v-.29c0-.23-.14-.32-.34-.25l-3.44.93c-.18.05-.38.05-.56.05Z"/>
      <path class="cls-1" d="M56.78,14.51v7.85c0,.2-.13.27-.32.27h-1.79c-.22,0-.29-.07-.29-.29v-7.57c0-.23-.14-.36-.36-.36h-3.28c-.25,0-.36.13-.36.36v7.57c0,.22-.13.29-.29.29h-1.81c-.22,0-.3-.07-.3-.27v-9.45c0-.23.09-.34.3-.34h1.81c.16,0,.29.11.29.34v.3c0,.2.09.29.36.22l3.43-.93c.18-.04.34-.09.52-.09,1.18,0,2.1.99,2.1,2.1Z"/>
      <path class="cls-1" d="M58.83,20.73v-4.52c0-.97.41-1.7,1.27-2.17l1.9-1.11c.39-.25.79-.36,1.26-.36h1.65c.23,0,.34-.09.34-.3v-3.71c0-.2.09-.34.27-.34h1.83c.22,0,.3.14.3.34v13.81c0,.2-.09.27-.3.27h-1.83c-.18,0-.27-.07-.27-.29v-.29c0-.23-.11-.32-.34-.25l-3.46.93c-.2.05-.36.05-.54.05-.93.04-2.08-.82-2.08-2.06ZM65.24,20.48v-5.68c0-.25-.11-.38-.36-.38h-3.32c-.25,0-.34.13-.34.38v5.68c0,.22.09.3.34.3h3.32c.25,0,.36-.09.36-.3Z"/>
      <path class="cls-1" d="M71.77,22.79c-1.13,0-2.08-.91-2.08-2.06v-4.52c0-.97.41-1.7,1.25-2.17l1.92-1.11c.39-.25.79-.36,1.24-.36h4.11c.2,0,.3.11.3.34v9.45c0,.2-.11.27-.3.27h-1.83c-.2,0-.27-.07-.27-.29v-.29c0-.23-.13-.32-.36-.25l-3.44.93c-.2.05-.36.05-.54.05ZM76.11,20.48v-5.68c0-.25-.13-.38-.36-.38h-3.32c-.25,0-.34.13-.34.38v5.68c0,.22.09.3.34.3h3.32c.23,0,.36-.09.36-.3Z"/>
      <path class="cls-1" d="M83.31,10.03c0,.22-.13.29-.3.29h-1.79c-.23,0-.3-.07-.3-.29v-1.47c0-.2.07-.34.3-.34h1.79c.18,0,.3.14.3.34v1.47ZM83.31,22.36c0,.2-.13.27-.3.27h-1.79c-.23,0-.3-.07-.3-.27v-9.45c0-.23.07-.34.3-.34h1.79c.18,0,.3.11.3.34v9.45Z"/>
    </g>
    <g>
      <path class="cls-1" d="M88.34,20.05v-6.79c0-1,.43-1.78,1.31-2.3l2.1-1.17c.38-.23.82-.34,1.24-.34h4.45c.22,0,.32.11.32.32v1.31c0,.2-.11.29-.32.29h-6.22c-.22,0-.3.13-.3.36v8.64c0,.23.09.34.3.34h6.4c.2,0,.32.09.32.27,0,.2-.09.36-.29.47l-1.54.86c-.41.23-.84.32-1.27.32h-3.87c-1.27,0-2.62-.91-2.62-2.58Z"/>
      <path class="cls-1" d="M101.51,22.79c-1.13,0-2.08-.91-2.08-2.06v-4.52c0-.97.41-1.7,1.26-2.17l1.92-1.11c.39-.25.79-.36,1.24-.36h4.11c.2,0,.3.11.3.34v9.45c0,.2-.11.27-.3.27h-1.83c-.2,0-.27-.07-.27-.29v-.29c0-.23-.13-.32-.36-.25l-3.44.93c-.2.05-.36.05-.54.05ZM105.84,20.48v-5.68c0-.25-.13-.38-.36-.38h-3.32c-.25,0-.34.13-.34.38v5.68c0,.22.09.3.34.3h3.32c.23,0,.36-.09.36-.3Z"/>
      <path class="cls-1" d="M117.25,14.15c0,.18-.13.27-.32.27h-3.53c-.23,0-.32.13-.32.36v7.57c0,.22-.14.29-.32.29h-1.81c-.22,0-.29-.07-.29-.27v-9.45c0-.23.07-.34.29-.34h1.81c.18,0,.32.11.32.34v.29c0,.2.09.29.32.29.05,0,.13,0,.2-.04l1.04-.68c.38-.2.77-.3,1.24-.3h1.06c.2,0,.32.11.32.3v1.38Z"/>
      <path class="cls-1" d="M117.61,20.73v-4.52c0-.97.41-1.7,1.27-2.17l1.9-1.11c.39-.25.79-.36,1.26-.36h1.65c.23,0,.34-.09.34-.3v-3.71c0-.2.09-.34.27-.34h1.83c.21,0,.3.14.3.34v13.81c0,.2-.09.27-.3.27h-1.83c-.18,0-.27-.07-.27-.29v-.29c0-.23-.11-.32-.34-.25l-3.46.93c-.2.05-.36.05-.54.05-.93.04-2.08-.82-2.08-2.06ZM124.03,20.48v-5.68c0-.25-.11-.38-.36-.38h-3.32c-.25,0-.34.13-.34.38v5.68c0,.22.09.3.34.3h3.32c.25,0,.36-.09.36-.3Z"/>
    </g>
  </g>
</svg>