<?xml version="1.0" encoding="UTF-8"?>
<svg id="_레이어_1" data-name="레이어 1" xmlns="http://www.w3.org/2000/svg" viewBox="0 0 131 23.39">
  <defs>
    <style>
      .cls-1 {
        fill: #006ebb;
      }

      .cls-2 {
        fill: #e50012;
      }
    </style>
  </defs>
  <g>
    <path class="cls-1" d="M61.58,1.72c-5.51,0-9.98,4.47-9.98,9.98s4.46,9.98,9.98,9.98,9.98-4.46,9.98-9.98-4.47-9.98-9.98-9.98ZM61.58,16.96c-2.91,0-5.26-2.36-5.26-5.26s2.36-5.26,5.26-5.26,5.26,2.36,5.26,5.26-2.36,5.26-5.26,5.26Z"/>
    <path class="cls-1" d="M99.35,1.72c-5.51,0-9.98,4.47-9.98,9.98s4.47,9.98,9.98,9.98,9.98-4.46,9.98-9.98-4.47-9.98-9.98-9.98ZM99.35,16.96c-2.91,0-5.26-2.36-5.26-5.26s2.36-5.26,5.26-5.26,5.26,2.36,5.26,5.26-2.35,5.26-5.26,5.26Z"/>
    <polygon class="cls-1" points="80.46 2.34 75.6 2.34 75.6 21.05 86.9 21.05 86.9 16.71 80.46 16.71 80.46 2.34"/>
    <polygon class="cls-1" points="44.56 2.34 38.67 10.1 38.67 2.34 33.8 2.34 33.8 21.05 38.67 21.05 38.67 13.29 44.56 21.05 50.64 21.05 43.19 11.69 50.64 2.34 44.56 2.34"/>
    <polygon class="cls-1" points="126.14 2.34 126.14 13.04 126.09 13.04 118.29 2.34 113.38 2.34 113.38 21.05 118.24 21.05 118.24 9.6 118.3 9.6 126.64 21.05 131 21.05 131 2.34 126.14 2.34"/>
  </g>
  <path class="cls-2" d="M4.86,1.88c-.53-.94.22-1.88,1.09-1.88h14.82c1.22,0,1.55,1.16,1.06,1.95l-2.67,4.62c-.43.86-1.5.82-1.97.03l-2.58-4.49c-.71-1.21-1.71-1.23-2.45,0l-2.53,4.37c-.36.66.2,1.64,1.09,1.64h14.81c1.03,0,1.52,1.14,1.11,1.87,0,0-6.79,11.77-7.34,12.71-.55.95-1.84.9-2.37.01l-2.6-4.43c-.53-.94.19-2.04,1.06-2.04h5.52c.83,0,1.31-.86.84-1.69l-2.42-4.27c-.64-1.08-1.65-1.14-2.32-.05,0,0-6.72,11.57-7.24,12.47-.52.89-1.57.97-2.14,0C7.05,21.72.2,10.03.2,10.03c-.58-1.04.23-1.91,1.14-1.91h5.13c1.27,0,1.62,1.11,1.12,1.92l-2.65,4.61c-.39.7.23,1.61,1.09,1.6h5.36c.82.01,1.36-.74.88-1.58L4.86,1.88h0Z"/>
</svg>