<?xml version="1.0" encoding="UTF-8"?>
<svg id="_레이어_1" data-name="레이어 1" xmlns="http://www.w3.org/2000/svg" viewBox="0 0 131.7 22.15">
  <defs>
    <style>
      .cls-1 {
        fill: #0a0f17;
        fill-rule: evenodd;
      }
    </style>
  </defs>
  <path class="cls-1" d="M55.19,12.36c2.3.85,3.63,1.34,3.63,3.51,0,2-1.42,3.29-3.67,3.29s-3.85-1.35-3.85-3.6v-.31h-3.27c0,4.37,3.11,6.89,7.12,6.89s6.93-2.98,6.93-6.4c0-1.75-.55-2.86-1.48-3.85-.92-.98-2.07-1.6-3.98-2.31l-1.23-.46c-2.71-1.02-3.58-1.78-3.58-3.32,0-1.75,1.29-2.83,3.3-2.83s3.36,1.08,3.36,3.05v.4h3.27c0-3.94-2.5-6.43-6.63-6.43-4.5,0-6.56,3.11-6.56,5.88,0,1.54.49,2.65,1.29,3.63.8.98,1.91,1.57,3.54,2.18l1.48.55.32.12ZM19.17.31l-7.77,12.52L3.67.31H0v21.54h3.08V4.86l6.9,11.17h2.84l6.93-11.17v16.99h3.08V.31h-3.67ZM41.23,12.83V.31h3.11v12.49c0,5.88-3.36,9.35-8.41,9.35s-8.41-3.48-8.41-9.35V.31h3.11v12.52c0,3.91,2.03,6.31,5.3,6.31s5.3-2.4,5.3-6.31ZM66.01,21.85h3.14V.31h-3.14v21.54ZM77.01,21.85V5.17l11.22,16.68h3.45V.31h-3.08v16.77L77.35.31h-3.42v21.54h3.08ZM106.16,15.88c0-2.18-1.33-2.67-3.63-3.51l-.32-.12-1.48-.55c-1.63-.62-2.74-1.2-3.54-2.18-.8-.98-1.29-2.09-1.29-3.63,0-2.77,2.07-5.88,6.57-5.88,4.13,0,6.63,2.49,6.63,6.43h-3.27v-.4c0-1.97-1.39-3.05-3.36-3.05s-3.3,1.08-3.3,2.83c0,1.54.86,2.31,3.58,3.32l1.23.46c1.91.71,3.05,1.32,3.98,2.31.92.98,1.48,2.09,1.48,3.85,0,3.42-2.87,6.4-6.93,6.4s-7.12-2.52-7.12-6.89h3.27v.31c0,2.25,1.6,3.6,3.85,3.6s3.67-1.29,3.67-3.29ZM126.09,15.85h-9.62l-2.43,6h-3.17L119.59.31h3.39l8.72,21.54h-3.17l-2.43-6ZM121.28,4l-3.57,8.8h7.15l-3.57-8.8Z"/>
</svg>