<?xml version="1.0" encoding="UTF-8"?>
<svg id="_레이어_1" data-name="레이어 1" xmlns="http://www.w3.org/2000/svg" viewBox="0 0 118.76 40.84">
  <defs>
    <style>
      .cls-1 {
        fill: #1f9be0;
      }
    </style>
  </defs>
  <g>
    <path d="M45.84,25.81v-10.85h1.51v9.59h2.54v1.26h-4.05Z"/>
    <path d="M50.7,25.81v-10.85h4.11v1.26h-2.6v3.4h2.45v1.26h-2.45v3.67h2.6v1.26h-4.11Z"/>
    <path d="M55.39,25.81l2.4-10.85h1.75l2.22,10.85h-1.51l-.5-2.77h-2.36l-.5,2.77h-1.51ZM58.58,16.56l-.95,5.23h1.92l-.94-5.23h-.03Z"/>
    <path d="M62.59,25.81v-10.85h2.43c1.18,0,1.92.27,2.24.8.27.45.41,1.51.41,3.17v3.23c0,1.42-.18,2.38-.54,2.87-.39.52-1.17.78-2.34.78h-2.19ZM64.1,16.22v8.33h.72c.54,0,.91-.18,1.09-.53.16-.32.24-.96.24-1.92v-3.73c0-.85-.08-1.41-.24-1.68-.19-.31-.59-.47-1.21-.47h-.6Z"/>
    <path d="M68.66,25.81v-10.85h4.11v1.26h-2.6v3.4h2.45v1.26h-2.45v3.67h2.6v1.26h-4.11Z"/>
    <path d="M73.55,25.81v-10.85h2.34c1.07,0,1.75.2,2.04.59.26.35.39,1.14.39,2.37,0,.77-.09,1.32-.26,1.64-.19.37-.58.65-1.18.83v.03c.5.05.86.21,1.06.47.21.27.31.66.31,1.18v2.36c0,.62.02,1.08.06,1.38h-1.39c-.12-.22-.18-.55-.18-.98v-2.45c0-.52-.07-.87-.22-1.04-.15-.17-.47-.26-.96-.26h-.51v4.72h-1.51ZM75.06,16.22v3.61h.39c.59,0,.97-.11,1.13-.32.16-.21.23-.72.23-1.53s-.05-1.29-.16-1.48c-.11-.19-.4-.28-.87-.28h-.73Z"/>
    <path d="M82.19,25.81v-10.85h1.51v10.85h-1.51Z"/>
    <path d="M84.73,25.81v-10.85h2.1l1.8,9.02v-9.02h1.42v10.85h-2.19l-1.8-9.26v9.26h-1.33Z"/>
    <path d="M45.84,40.84v-10.85h4.11v1.26h-2.6v3.4h2.45v1.26h-2.45v3.67h2.6v1.26h-4.11Z"/>
    <path d="M50.73,40.84v-10.85h2.1l1.8,9.02v-9.02h1.42v10.85h-2.19l-1.8-9.26v9.26h-1.33Z"/>
    <path d="M56.83,31.25v-1.26h5.14v1.26h-1.81v9.59h-1.51v-9.59h-1.81Z"/>
    <path d="M62.75,40.84v-10.85h4.11v1.26h-2.6v3.4h2.45v1.26h-2.45v3.67h2.6v1.26h-4.11Z"/>
    <path d="M67.63,40.84v-10.85h2.34c1.07,0,1.75.2,2.04.59.26.35.39,1.14.39,2.37,0,.77-.09,1.32-.26,1.64-.19.37-.58.65-1.18.83v.03c.5.05.86.21,1.06.47.21.27.31.66.31,1.18v2.36c0,.62.02,1.08.06,1.38h-1.39c-.12-.22-.18-.55-.18-.98v-2.45c0-.52-.07-.87-.22-1.04-.15-.17-.47-.26-.96-.26h-.51v4.72h-1.51ZM69.14,31.25v3.61h.39c.59,0,.97-.11,1.13-.32.16-.21.23-.72.23-1.53s-.05-1.29-.16-1.48c-.11-.19-.4-.28-.87-.28h-.72Z"/>
    <path d="M73.13,31.25v-1.26h5.14v1.26h-1.81v9.59h-1.51v-9.59h-1.81Z"/>
    <path d="M77.93,40.84l2.4-10.85h1.75l2.22,10.85h-1.51l-.5-2.77h-2.36l-.5,2.77h-1.51ZM81.12,31.58l-.95,5.23h1.92l-.94-5.23h-.03Z"/>
    <path d="M85.11,40.84v-10.85h1.51v10.85h-1.51Z"/>
    <path d="M87.65,40.84v-10.85h2.1l1.8,9.02v-9.02h1.42v10.85h-2.19l-1.8-9.26v9.26h-1.33Z"/>
    <path d="M94.03,40.84v-10.85h2.4l1.39,8.27h.03l1.39-8.27h2.34v10.85h-1.42v-9.77l-1.56,9.77h-1.53l-1.71-9.77v9.77h-1.33Z"/>
    <path d="M102.64,40.84v-10.85h4.11v1.26h-2.6v3.4h2.45v1.26h-2.45v3.67h2.6v1.26h-4.11Z"/>
    <path d="M107.52,40.84v-10.85h2.1l1.8,9.02v-9.02h1.42v10.85h-2.19l-1.8-9.26v9.26h-1.33Z"/>
    <path d="M113.62,31.25v-1.26h5.14v1.26h-1.81v9.59h-1.51v-9.59h-1.81Z"/>
  </g>
  <g>
    <path class="cls-1" d="M21.97,16.62v3.96c0,1.2-1.24,2.18-2.77,2.18s-2.77-.98-2.77-2.18V0h-2.73v20.58c0,2.14,1.76,3.94,4.14,4.45v15.81h2.73v-15.81c2.38-.51,4.14-2.31,4.14-4.45V0h-2.73v16.62Z"/>
    <path class="cls-1" d="M3.74,0v2.69h4.53v33.56c0,1.28-1.24,2.31-2.77,2.31s-2.77-1.04-2.77-2.31v-12H0v12c0,2.53,2.46,4.59,5.5,4.59s5.5-2.05,5.5-4.59V0H3.74Z"/>
    <path class="cls-1" d="M37.69,3.78c0-1.08-.56-3.78-3.46-3.78-1.36,0-3,.7-4.35,1.85V0h-2.73v40.84h2.73v-16.02c7.02,0,7.85-3.28,7.85-4.24,0-.03,0-.06,0-.09V3.78h-.04ZM35,7.12v12.79c0,.93-1.03,2.22-5.12,2.22V7.12c0-2.64,2.56-4.78,3.98-4.78.83,0,1.08.74,1.15,1.89.05.8,0,1.8,0,2.89Z"/>
  </g>
</svg>