<?xml version="1.0" encoding="UTF-8"?>
<svg id="_레이어_1" data-name="레이어 1" xmlns="http://www.w3.org/2000/svg" viewBox="0 0 143.89 44.13">
  <defs>
    <style>
      .cls-1 {
        fill: #fff;
      }

      .cls-2 {
        fill: #004093;
      }
    </style>
  </defs>
  <path class="cls-2" d="M89.91,20.54c18.18-9.32,15.91-18.23-2.6-20.06-19.94-1.98-49.06,2.31-69.36,10.5l-2.81,1.21c-21.14,9.45-19.13,19.45-.27,21.27,20.61,1.99,51.95-2.08,72.47-11.64l2.56-1.28Z"/>
  <path class="cls-1" d="M85.98,22.37s-3.47.28-3.56-2.52v-5.42s-.43-2.99,3.46-2.99c0,0,2.53-.08,3.2,1.42,0,0,.33.4.24,2.06h-2.7v-.85s0-.69-.7-.69c0,0-.73.03-.73.61v5.6s-.03.75.79.75c0,0,.67-.02.67-.81v-1.62h-.74v-1.51h3.47v3.18s0,.67-.29,1.06c0,0-.28.43-.39.51,0,0-.93,1.2-2.74,1.2"/>
  <polygon class="cls-1" points="78.84 11.85 76.14 11.85 76.33 18.06 76.21 18.06 73.47 11.85 70.2 11.85 70.2 22.08 72.86 22.08 72.7 15.83 72.82 15.83 75.66 22.08 78.84 22.08 78.84 11.85"/>
  <path class="cls-1" d="M62.11,11.81h-2.92v7.67s-.3,2.9,3.8,2.9c0,0,3.56.04,3.56-2.77v-7.8h-2.86v7.71s.04.84-.74.84c0,0-.82.04-.82-.82v-7.73Z"/>
  <path class="cls-1" d="M55.83,14.97v-1.28s.2-2.1-3.18-2.19c0,0-2.66-.18-3.42,1.26,0,0-.3.32-.3,1.43v.8s-.03.93.44,1.52c0,0,.27.39.93.82,0,0,1.34.72,2.14,1.13,0,0,.81.46.7,1.2,0,0-.07.76-.85.72,0,0-.72-.03-.72-.77v-.87h-2.87v1.26s-.08,2.42,3.61,2.42c0,0,3.52.07,3.69-2.48v-1.03s.12-1.56-1.25-2.39c0,0-.73-.45-1.18-.63,0,0-1.4-.65-1.68-.96,0,0-.55-.52-.23-1.11,0,0,.13-.39.71-.39,0,0,.75.04.75.66v.87h2.69Z"/>
  <polygon class="cls-1" points="34.51 11.85 34.28 22.08 36.94 22.08 36.98 14.37 37.19 14.37 38.6 22.08 41.4 22.08 42.79 14.37 42.98 14.37 43.04 22.08 45.72 22.08 45.43 11.85 40.98 11.85 40.08 17.45 39.86 17.45 39 11.85 34.51 11.85"/>
  <polygon class="cls-1" points="31.42 22.07 29.65 11.84 25.13 11.84 23.36 22.07 26.22 22.07 27.27 14.14 27.51 14.14 28.56 22.07 31.42 22.07"/>
  <path class="cls-1" d="M20.55,14.97v-1.28s.2-2.1-3.18-2.19c0,0-2.66-.18-3.42,1.26,0,0-.3.32-.3,1.43v.8s-.03.93.44,1.52c0,0,.27.39.93.82,0,0,1.34.72,2.14,1.13,0,0,.81.46.7,1.2,0,0-.07.76-.85.72,0,0-.72-.03-.72-.77v-.87h-2.87v1.26s-.08,2.42,3.61,2.42c0,0,3.52.07,3.69-2.48v-1.03s.12-1.56-1.25-2.39c0,0-.73-.45-1.18-.63,0,0-1.4-.65-1.68-.96,0,0-.55-.52-.23-1.11,0,0,.13-.39.71-.39,0,0,.75.04.75.66v.87h2.69Z"/>
  <rect class="cls-2" x="119.84" y="29.19" width="1.83" height="4.82"/>
  <rect class="cls-2" x="127.6" y="29.19" width="1.83" height="4.82"/>
  <rect class="cls-2" x="120.81" y="29.18" width="7.93" height="1.57"/>
  <rect class="cls-2" x="120.81" y="32.43" width="7.93" height="1.57"/>
  <rect class="cls-2" x="118.75" y="34.91" width="11.74" height="1.57"/>
  <rect class="cls-2" x="123.65" y="35.83" width="1.83" height="2.57"/>
  <rect class="cls-2" x="127.6" y="37.43" width="1.83" height="3.83"/>
  <rect class="cls-2" x="119.84" y="39.71" width="1.83" height="4.03"/>
  <rect class="cls-2" x="119.81" y="37.43" width="8.94" height="1.57"/>
  <rect class="cls-2" x="120.02" y="39.72" width="9.41" height="1.57"/>
  <rect class="cls-2" x="120.02" y="42.18" width="9.41" height="1.57"/>
  <rect class="cls-2" x="140.35" y="28.8" width="1.83" height="10.23"/>
  <rect class="cls-2" x="140.86" y="32.17" width="3.02" height="1.57"/>
  <rect class="cls-2" x="133.25" y="37.31" width="1.83" height="6.4"/>
  <rect class="cls-2" x="133.42" y="42.14" width="8.82" height="1.57"/>
  <path class="cls-2" d="M135.07,32.82c-.56,1.79-2.84,3.29-2.84,3.29l-.97-1.35c3.18-1.59,2.93-5.78,2.93-5.78h1.76s-.25,4.18,2.93,5.78l-.97,1.35s-2.27-1.5-2.84-3.29"/>
  <polygon class="cls-2" points="102.54 28.94 102.54 36.67 104.4 36.67 104.4 33.79 106.05 33.79 106.05 32.2 104.44 32.2 104.44 28.94 102.54 28.94"/>
  <path class="cls-2" d="M102.61,38.84h-5.28v3.24h5.28v-3.24ZM95.51,37.3h8.92v6.32h-8.92v-6.32Z"/>
  <path class="cls-2" d="M115.78,40.35c0-1.16-1.4-2.11-3.12-2.11s-3.12.94-3.12,2.11,1.4,2.11,3.12,2.11,3.12-.94,3.12-2.11M112.65,44.13c-2.77,0-5.02-1.69-5.02-3.78s2.25-3.78,5.02-3.78,5.02,1.69,5.02,3.78-2.25,3.78-5.02,3.78"/>
  <path class="cls-2" d="M98.06,29.22s-.25,4.18,3.14,5.91l-.97,1.35s-2.48-1.64-3.04-3.43c-.56,1.79-3.04,3.43-3.04,3.43l-.97-1.35c3.39-1.73,3.14-5.91,3.14-5.91h1.76Z"/>
  <path class="cls-2" d="M109.8,33.05c-.56,1.79-2.84,3.29-2.84,3.29l-.97-1.35c3.18-1.59,2.93-5.77,2.93-5.77h1.76s-.25,4.18,2.93,5.77l-.97,1.35s-2.27-1.5-2.83-3.29"/>
  <polygon class="cls-2" points="117.31 28.93 117.31 36.66 115.44 36.66 115.44 33.11 113.02 33.11 113.02 31.53 115.41 31.53 115.41 28.93 117.31 28.93"/>
</svg>