<?xml version="1.0" encoding="UTF-8"?>
<svg id="_레이어_1" data-name="레이어 1" xmlns="http://www.w3.org/2000/svg" viewBox="0 0 127 23.57">
  <defs>
    <style>
      .cls-1 {
        fill: #3bab36;
      }
    </style>
  </defs>
  <polygon class="cls-1" points="16.95 0 16.95 11.89 8.81 0 0 0 0 23.57 8.78 23.57 8.78 11.68 16.92 23.57 25.73 23.57 25.73 0 16.95 0"/>
  <path class="cls-1" d="M119.9,14.75c3.12-.87,5.13-3.12,5.13-6.73,0-6.07-4.82-8.02-11.17-8.02h-10.96v23.57h8.77v-7.36l5.24,7.36h10.09l-7.1-8.82ZM115.59,9.95c-.51.41-1.5.62-2.31.62h-1.88v-4.64h1.85c.89,0,1.9.21,2.39.63.49.42.71,1,.71,1.73s-.24,1.25-.75,1.66Z"/>
  <path class="cls-1" d="M81.51,0h17.79v6.14h-9.1v2.77h8.38v5.79h-8.38v2.73h9.38v6.14h-18.07V0Z"/>
  <path class="cls-1" d="M46.85,0h-10.01l-9.23,23.57h9.76l.85-3.08h7.25l.85,3.08h9.76L46.85,0ZM39.66,15.05l2.07-7.78h.24l2.07,7.78h-4.37Z"/>
  <polygon class="cls-1" points="70.06 0 65.73 14.21 65.49 14.21 61.17 0 51.59 0 61.47 23.57 69.75 23.57 79.63 0 70.06 0"/>
</svg>