<?xml version="1.0" encoding="UTF-8"?>
<svg id="_레이어_1" data-name="레이어 1" xmlns="http://www.w3.org/2000/svg" viewBox="0 0 129.01 34.5">
  <defs>
    <style>
      .cls-1 {
        fill: #cc3136;
      }
    </style>
  </defs>
  <g>
    <path class="cls-1" d="M41.4,8.3h12.33v4.64h-7.12v2.15h6.41v4.21h-6.41v2.22h7.12v4.64h-12.33V8.3Z"/>
    <g>
      <path class="cls-1" d="M54.88,17.18c0-1.48,1.19-2.68,2.68-2.68s2.68,1.19,2.68,2.68-1.19,2.68-2.68,2.68-2.68-1.19-2.68-2.68Z"/>
      <path class="cls-1" d="M61.9,8.3h5.21v13.15h7v4.71h-12.21V8.3Z"/>
      <path class="cls-1" d="M88.39,26.15l-1.17-3.51h-5.9l-1.12,3.51h-5.4l6.43-17.85h6.05l6.55,17.85h-5.43ZM82.65,18.45h3.18l-1.6-4.88-1.58,4.88Z"/>
      <path class="cls-1" d="M110.82,26.15h-4.97l-6.43-9.58h-.02v9.58h-4.95V8.3h4.97l6.43,9.42h.02v-9.42h4.95v17.85Z"/>
      <path class="cls-1" d="M129.01,17.23c0,5.38-3.76,8.91-9.59,8.91h-6.21V8.3h6.21c5.83,0,9.59,3.56,9.59,8.94ZM118.42,21.44h.88c2.7,0,4.45-1.53,4.45-4.21s-1.74-4.23-4.45-4.23h-.88v8.44Z"/>
    </g>
  </g>
  <path class="cls-1" d="M17.25,0C7.74,0,0,7.74,0,17.25s7.74,17.25,17.25,17.25c7.44,0,14.02-4.75,16.37-11.82l.09-.28h-5l-.06.12c-2.06,4.43-6.53,7.29-11.4,7.29-6.19,0-11.35-4.5-12.38-10.4h6.22v6.73h11.36l1.48-4.24h-8.27v-2.49h18.71s.02-.18.02-.18c.08-.68.12-1.34.12-1.98C34.5,7.74,26.76,0,17.25,0ZM15.66,15.08v-2.54h6.79l1.48-4.24h-12.84v6.79h-6.22c1.03-5.9,6.19-10.4,12.38-10.4s11.34,4.45,12.38,10.4h-13.97Z"/>
</svg>