<svg width="100" height="34" viewBox="0 0 100 34" fill="none" xmlns="http://www.w3.org/2000/svg">
<g clip-path="url(#clip0_14_58)">
<path d="M36.0583 34H29.8121C29.4023 34 29.059 33.6678 29.059 33.2469V0.753094C29.059 0.343322 29.3912 0 29.8121 0H36.0583C36.4681 0 36.8114 0.332248 36.8114 0.753094V33.2469C36.8114 33.6567 36.4792 34 36.0583 34Z" fill="#42B22E"/>
<path d="M23.455 26.2476H9.68893V1.35114C9.68893 0.609121 9.07981 0 8.33779 0H3.28762C2.5456 0 1.93648 0.609121 1.93648 1.35114V32.6489C1.93648 33.3909 2.5456 34 3.28762 34H23.455C24.1971 34 24.8062 33.3909 24.8062 32.6489V27.6098C24.8062 26.8678 24.2081 26.2586 23.455 26.2586V26.2476Z" fill="#42B22E"/>
<path d="M97.7124 7.75244C98.4544 7.75244 99.0635 7.14332 99.0635 6.4013V1.35114C99.0635 0.609121 98.4544 0 97.7124 0H77.6668C76.9248 0 76.3156 0.609121 76.3156 1.35114V32.6489C76.3156 33.3909 76.9248 34 77.6668 34H97.7124C98.4544 34 99.0635 33.3909 99.0635 32.6489V27.6098C99.0635 26.8678 98.4544 26.2586 97.7124 26.2586H84.0681V20.8873H97.7124C98.4544 20.8873 99.0635 20.2782 99.0635 19.5362V14.4971C99.0635 13.755 98.4544 13.1459 97.7124 13.1459H84.0681V7.76352H97.7124V7.75244Z" fill="#42B22E"/>
<path d="M70.0915 0H65.0524C64.3104 0 63.7013 0.609121 63.7013 1.35114V19.9792L49.5143 0.974593C49.1267 0.442997 48.8277 0 48.2075 0H43.1684C42.4264 0 41.8173 0.609121 41.8173 1.35114V32.6489C41.8173 33.3909 42.4264 34 43.1684 34H48.2075C48.9495 34 49.5586 33.3909 49.5586 32.6489V14.0651L63.7567 33.0808C64.0003 33.4352 64.4433 34 65.0414 34H70.0805C70.8225 34 71.4316 33.3909 71.4316 32.6489V1.35114C71.4316 0.609121 70.8336 0 70.0805 0H70.0915Z" fill="#42B22E"/>
</g>
<defs>
<clipPath id="clip0_14_58">
<rect width="97.127" height="34" fill="white" transform="translate(1.93648)"/>
</clipPath>
</defs>
</svg>
