<svg width="73" height="16" viewBox="0 0 73 16" fill="none" xmlns="http://www.w3.org/2000/svg">
<g clip-path="url(#clip0_14_90)">
<path fill-rule="evenodd" clip-rule="evenodd" d="M31.1722 8.69615C32.4296 9.15664 33.1567 9.42211 33.1567 10.5977C33.1567 11.6813 32.3804 12.3801 31.1503 12.3801C29.9203 12.3801 29.0456 11.6487 29.0456 10.4298V10.2618H27.2579C27.2579 12.6293 28.9581 13.9946 31.1503 13.9946C33.3426 13.9946 34.939 12.3801 34.939 10.5273C34.939 9.57922 34.6383 8.97786 34.1298 8.44152C33.6269 7.9106 32.9982 7.5747 31.954 7.19005L31.2816 6.94084C29.8 6.38825 29.3244 5.97651 29.3244 5.1422C29.3244 4.19412 30.0296 3.60901 31.1285 3.60901C32.2273 3.60901 32.9654 4.19412 32.9654 5.26139V5.47809H34.7531C34.7531 3.34355 33.3863 1.99457 31.1285 1.99457C28.6683 1.99457 27.5421 3.67944 27.5421 5.18012C27.5421 6.01443 27.81 6.61579 28.2474 7.14671C28.6847 7.67764 29.2916 7.99728 30.1827 8.32775L30.9918 8.62572L31.1667 8.69073L31.1722 8.69615ZM11.4802 2.16793L7.23235 8.95078L3.00638 2.16793H1V13.8375H2.68383V4.63294L6.45604 10.6844H8.00866L11.7973 4.63294V13.8375H13.4811V2.16793H11.4747H11.4802ZM23.5403 8.95078V2.16793H25.2405V8.93452C25.2405 12.1201 23.4036 14 20.6428 14C17.882 14 16.0451 12.1147 16.0451 8.93452V2.16793H17.7453V8.95078C17.7453 11.0691 18.8551 12.3693 20.6428 12.3693C22.4305 12.3693 23.5403 11.0691 23.5403 8.95078ZM37.0875 13.8375H38.8041V2.16793H37.0875V13.8375ZM43.1011 13.8375V4.80089L49.2351 13.8375H51.1212V2.16793H49.4374V11.2533L43.287 2.16793H41.4173V13.8375H43.1011ZM59.0374 10.6031C59.0374 9.42211 58.3103 9.15664 57.0529 8.70157L56.8779 8.63655L56.0688 8.33859C55.1777 8.00269 54.5708 7.68847 54.1335 7.15755C53.6961 6.62662 53.4283 6.02527 53.4283 5.19096C53.4283 3.69028 54.5599 2.0054 57.0201 2.0054C59.2779 2.0054 60.6447 3.35439 60.6447 5.48892H58.857V5.27222C58.857 4.20495 58.097 3.61985 57.0201 3.61985C55.9431 3.61985 55.2159 4.20495 55.2159 5.15303C55.2159 5.98734 55.6861 6.4045 57.1731 6.95168L57.8456 7.20089C58.8898 7.58554 59.513 7.91601 60.0214 8.45236C60.5244 8.98328 60.8305 9.58464 60.8305 10.5381C60.8305 12.391 59.2615 14.0054 57.0419 14.0054C54.8223 14.0054 53.1494 12.6402 53.1494 10.2727H54.9371V10.4406C54.9371 11.6596 55.8119 12.391 57.0419 12.391C58.272 12.391 59.0483 11.6921 59.0483 10.6086L59.0374 10.6031ZM69.933 10.5869H64.6738L63.3453 13.8375H61.6123L66.3795 2.16793H68.2328L73 13.8375H71.267L69.9385 10.5869H69.933ZM67.3034 4.16703L65.3517 8.93452H69.2606L67.3089 4.16703H67.3034Z" fill="#0A0F17"/>
</g>
<defs>
<clipPath id="clip0_14_90">
<rect width="72" height="12" fill="white" transform="translate(1 2)"/>
</clipPath>
</defs>
</svg>
