<svg width="32" height="16" viewBox="0 0 32 16" fill="none" xmlns="http://www.w3.org/2000/svg">
<g clip-path="url(#clip0_14_264)">
<g clip-path="url(#clip1_14_264)">
<path d="M31.4088 9.48507C30.9847 9.30466 30.2766 9.34141 29.4783 9.81583C29.4783 9.81583 30.9012 6.06724 30.9513 5.94362C31.1316 5.46586 31.0849 5.08499 30.9112 4.85112C30.8444 4.76425 30.7575 4.69409 30.6573 4.64732C30.5571 4.60055 30.4469 4.57716 30.3367 4.57716C30.1096 4.57716 29.8858 4.63396 29.6854 4.74087C29.6554 4.76091 29.632 4.78764 29.6186 4.81771C29.6053 4.85112 29.6019 4.88453 29.6086 4.91794C29.5986 5.1919 29.5451 5.46252 29.455 5.71978C29.2011 6.47818 28.8571 7.21654 28.7669 7.41366C28.5665 7.85801 28.0221 8.95051 27.3074 9.53853C27.0636 9.77574 26.7463 9.92274 26.4089 9.95949C26.0148 9.95949 25.9814 9.34475 26.2453 8.69326C26.2453 8.69326 27.2907 6.07726 27.3107 6.02047C27.8184 4.70746 26.8932 4.28649 26.0115 4.73419C25.9547 4.76091 25.8979 4.81437 25.9413 4.8578C26.0649 4.9881 26.0048 5.36229 25.8011 5.95699C25.8011 5.95699 25.2199 7.50052 24.769 8.42932C23.9674 10.0898 22.6148 10.1399 23.1992 8.48612C23.3429 8.08186 25.6875 1.75402 25.6875 1.75402C25.9413 1.00898 26.0349 0.531221 25.6875 0.207145C25.3402 -0.116931 24.7757 -0.0467706 24.3782 0.167053C24.3215 0.197122 24.248 0.263941 24.2981 0.304033C24.4851 0.454378 24.415 0.845274 24.228 1.45667C23.7203 2.88662 21.9902 7.63751 21.576 8.84694C21.2053 9.92608 21.7631 10.4974 22.5212 10.5174C23.089 10.5341 23.9541 10.2301 24.7857 9.20109C24.7757 9.51848 24.8859 9.82919 25.0963 10.0664C25.3034 10.307 25.5973 10.4606 25.9146 10.4941C27.0201 10.7079 27.7149 9.94613 27.9921 9.63542C28.0756 9.54521 28.2025 9.39821 28.2726 9.31802L28.2125 9.52182C28.0923 9.8459 28.0121 10.0998 27.9019 10.4005L27.8284 10.5976C26.9233 11.2959 26.0749 12.061 25.2901 12.8929C24.1612 14.1324 24.0409 15.6258 25.0897 15.9298C26.6561 16.3709 27.7382 14.3796 28.7603 11.6534L29.1878 10.5676L29.2445 10.4206C30.644 9.47839 31.5892 10.3537 31.6259 10.8382C31.6259 10.905 31.7261 10.915 31.7662 10.8749C31.8631 10.768 31.9332 10.6411 31.9666 10.5007C32 10.3604 32 10.2167 31.9666 10.0764C31.9332 9.93611 31.8597 9.80915 31.7629 9.70224C31.666 9.59867 31.5424 9.51848 31.4055 9.47171L31.4088 9.48507ZM27.6347 11.4295C26.7696 13.6413 25.9714 15.2048 25.2032 15.128C24.8659 15.0946 24.8191 14.7271 25.0128 14.2593C25.4905 13.1301 27.2172 11.7068 27.6481 11.3627L27.6347 11.4295Z" fill="#591D7C"/>
<path d="M21.5527 4.7275C20.8312 4.40342 19.9729 4.801 18.8506 6.20756C19.1312 5.50595 19.1846 5.04823 18.9007 4.77427C18.5434 4.42681 17.872 4.64397 17.6716 4.74755C17.6015 4.7843 17.5581 4.81771 17.5848 4.88453C17.7117 5.16517 17.5046 5.76321 17.2809 6.40133C17.194 6.65525 16.9703 7.25997 16.7064 7.88473C16.2755 8.89705 15.3905 9.90937 14.7058 9.72228C14.472 9.6588 14.3918 9.31134 14.5087 8.98392L15.6142 5.81332C16.0284 4.47358 14.9229 4.38004 14.3117 4.71748C14.2315 4.76091 14.168 4.81436 14.2014 4.86114C14.335 5.05158 14.2014 5.55606 14.1313 5.77657C13.8207 6.62852 13.5034 7.85801 12.8154 8.84026C12.4313 9.43829 11.8902 9.83587 11.4794 9.81249C11.0719 9.7891 10.8949 9.308 11.1855 8.42263C11.299 8.06849 11.8668 6.52495 12.1808 5.5427C12.4814 4.60722 11.4193 4.38672 10.7646 4.73084C10.7112 4.75757 10.6477 4.81102 10.6878 4.85446C10.8081 4.9881 10.7747 5.35895 10.5743 5.92357C10.2336 6.81562 9.94635 7.72771 9.71256 8.6565C9.43868 9.86928 9.96639 10.4439 10.8047 10.5174C11.643 10.5943 12.4713 10.0296 13.0291 9.3247C12.9957 9.46168 12.9924 9.60534 13.0224 9.74232C13.0492 9.87931 13.1059 10.0129 13.1894 10.1265C13.2729 10.2401 13.3798 10.337 13.5034 10.4072C13.627 10.4773 13.7639 10.5208 13.9042 10.5308C14.5421 10.5876 15.2736 10.2568 15.9917 9.57193C15.8681 10.1499 16.1252 10.5141 16.7532 10.5174C17.0037 10.5308 17.2508 10.4506 17.4412 10.2869C17.4412 10.2802 17.4445 10.2735 17.4445 10.2669C17.4445 10.2602 17.4445 10.2535 17.4412 10.2468C17.4412 10.2268 17.3777 10.1499 17.4846 9.83253C17.9221 8.5262 18.3563 7.57736 18.7772 7.00605C19.2481 6.37127 19.9027 5.85675 20.357 5.90019C20.8079 5.94362 20.8179 6.45145 20.6676 6.68532C20.5874 6.79557 20.6509 6.84903 20.7277 6.84569C22.0069 6.74212 22.4878 5.13176 21.556 4.71414L21.5527 4.7275Z" fill="#591D7C"/>
<path d="M12.0238 10.9685C11.5863 11.3427 11.0218 11.5297 10.4473 11.493C9.38524 11.4329 8.69721 10.8682 8.04258 9.65211C7.44807 8.54624 6.63981 6.74879 6.39933 6.11066C8.34318 5.25203 10.5475 3.58153 10.8448 2.39548C10.8882 2.26518 10.8949 2.12486 10.8615 1.99456C10.8281 1.86092 10.7546 1.74065 10.6544 1.65044C10.5475 1.58028 10.4807 1.60367 10.434 1.65044C10.0599 3.02025 6.79011 5.13509 4.95648 5.57276C5.58439 3.81874 6.22566 2.01461 6.26239 1.86761C6.63647 0.387547 5.75138 -0.0835328 4.83958 0.0133559C2.40142 0.267271 -0.237136 3.37439 0.0166999 5.96032C0.0434194 6.21423 0.190377 6.70202 0.641269 6.79891C0.791567 6.839 0.948544 6.82229 1.08548 6.74545C1.21908 6.67195 1.31928 6.54499 1.3627 6.39799C1.3627 6.38796 1.3627 6.38128 1.3627 6.37126C1.3627 6.36458 1.35602 6.35455 1.34934 6.34787C1.34266 6.34119 1.33598 6.33785 1.3293 6.33451C1.32262 6.33451 1.3126 6.33117 1.30258 6.33451C1.15228 6.36792 0.845006 6.12403 0.768187 5.6897C0.340674 3.1873 3.30654 0.481094 4.60578 0.818534C4.89302 0.902059 4.96984 1.21945 4.80284 1.72394C4.32857 3.07036 2.5584 8.07182 2.10416 9.36145C1.59649 10.8181 2.50496 11.3861 3.49692 11.0887C3.59378 11.0587 3.62718 10.9685 3.56706 10.9284C3.31322 10.7546 3.33994 10.1432 3.70734 9.02735C3.73072 8.95719 4.50892 6.83566 4.53564 6.75213L5.02662 6.5784C6.80347 10.7079 7.73865 12.3817 10.2135 12.2147C10.601 12.1913 10.9817 12.0777 11.3191 11.8839C11.6564 11.6901 11.947 11.4228 12.1641 11.0988C12.2275 11.0119 12.104 10.8983 12.0271 10.9751L12.0238 10.9685Z" fill="#591D7C"/>
</g>
</g>
<defs>
<clipPath id="clip0_14_264">
<rect width="32" height="16" fill="white"/>
</clipPath>
<clipPath id="clip1_14_264">
<rect width="32" height="16" fill="white"/>
</clipPath>
</defs>
</svg>
