<svg width="128" height="34" viewBox="0 0 128 34" fill="none" xmlns="http://www.w3.org/2000/svg">
<g clip-path="url(#clip0_14_197)">
<g clip-path="url(#clip1_14_197)">
<path d="M40.8 8.17972H52.9513V12.7525H45.9345V14.8713H52.2516V19.0203H45.9345V21.2081H52.9513V25.7809H40.8V8.17972Z" fill="#CC3136"/>
<path d="M54.0846 16.931C54.0846 15.4725 55.2574 14.2899 56.7258 14.2899C58.1942 14.2899 59.367 15.4626 59.367 16.931C59.367 18.3994 58.1942 19.5722 56.7258 19.5722C55.2574 19.5722 54.0846 18.3994 54.0846 16.931Z" fill="#CC3136"/>
<path d="M61.0029 8.17972H66.1374V21.1391H73.036V25.7809H61.0029V8.17972Z" fill="#CC3136"/>
<path d="M87.109 25.771L85.9559 22.3119H80.1415L79.0377 25.771H73.716L80.0528 8.17972H86.0151L92.4702 25.771H87.1188H87.109ZM81.4522 18.1826H84.5861L83.0093 13.3733L81.4522 18.1826Z" fill="#CC3136"/>
<path d="M109.214 25.771H104.316L97.9791 16.3299H97.9594V25.771H93.0812V8.17972H97.9791L104.316 17.4632H104.336V8.17972H109.214V25.771Z" fill="#CC3136"/>
<path d="M127.14 16.9803C127.14 22.2823 123.435 25.7612 117.689 25.7612H111.569V8.17972H117.689C123.435 8.17972 127.14 11.6881 127.14 16.9902V16.9803ZM116.704 21.1293H117.571C120.232 21.1293 121.957 19.6215 121.957 16.9803C121.957 14.3391 120.242 12.8116 117.571 12.8116H116.704V21.1293Z" fill="#CC3136"/>
<path d="M17 0C7.62783 0 0 7.62783 0 17C0 26.3722 7.62783 34 17 34C24.3322 34 30.8168 29.3188 33.1328 22.3513L33.2215 22.0754H28.2939L28.2348 22.1936C26.2046 26.5594 21.7994 29.378 17 29.378C10.8997 29.378 5.81449 24.9432 4.79942 19.1287H10.9293V25.7612H22.1246L23.5832 21.5826H15.433V19.1287H33.8719L33.8916 18.9513C33.9704 18.2812 34.0099 17.6307 34.0099 17C34 7.62783 26.3722 0 17 0ZM15.433 14.8614V12.3583H22.1246L23.5832 8.17971H10.9293V14.8713H4.79942C5.81449 9.05681 10.8997 4.62203 17 4.62203C23.1003 4.62203 28.1757 9.00754 29.2006 14.8713H15.433V14.8614Z" fill="#CC3136"/>
</g>
</g>
<defs>
<clipPath id="clip0_14_197">
<rect width="128" height="34" fill="white"/>
</clipPath>
<clipPath id="clip1_14_197">
<rect width="127.14" height="34" fill="white"/>
</clipPath>
</defs>
</svg>
