<svg width="140" height="34" viewBox="0 0 140 34" fill="none" xmlns="http://www.w3.org/2000/svg">
<g clip-path="url(#clip0_14_13)">
<path d="M65.7001 6.76483C59.8214 6.76483 55.0524 11.3514 55.0524 17.0051C55.0524 22.6588 59.8108 27.2454 65.7001 27.2454C71.5894 27.2454 76.3478 22.6691 76.3478 17.0051C76.3478 11.3411 71.5787 6.76483 65.7001 6.76483ZM65.7001 22.4023C62.5954 22.4023 60.0882 19.9807 60.0882 17.0051C60.0882 14.0295 62.6061 11.6079 65.7001 11.6079C68.7941 11.6079 71.312 14.0295 71.312 17.0051C71.312 19.9807 68.7941 22.4023 65.7001 22.4023Z" fill="#006EBB"/>
<path d="M105.997 6.76483C100.118 6.76483 95.3494 11.3514 95.3494 17.0051C95.3494 22.6588 100.118 27.2454 105.997 27.2454C111.876 27.2454 116.645 22.6691 116.645 17.0051C116.645 11.3411 111.876 6.76483 105.997 6.76483ZM105.997 22.4023C102.892 22.4023 100.385 19.9807 100.385 17.0051C100.385 14.0295 102.903 11.6079 105.997 11.6079C109.091 11.6079 111.609 14.0295 111.609 17.0051C111.609 19.9807 109.102 22.4023 105.997 22.4023Z" fill="#006EBB"/>
<path d="M85.8433 7.401H80.6581V26.5989H92.7142V22.1458H85.8433V7.401Z" fill="#006EBB"/>
<path d="M47.5413 7.401L41.2573 15.3634V7.401H36.0614V26.5989H41.2573V18.6366L47.5413 26.5989H54.0281L46.0797 16.9948L54.0281 7.401H47.5413Z" fill="#006EBB"/>
<path d="M134.58 7.401V18.3801H134.526L126.204 7.401H120.966V26.5989H126.151V14.8503H126.215L135.113 26.5989H139.765V7.401H134.58Z" fill="#006EBB"/>
<path d="M5.18517 6.92903C4.61971 5.96451 5.41989 5 6.3481 5H22.1597C23.4613 5 23.8134 6.19025 23.2906 7.00085L20.4419 11.7413C19.9832 12.6238 18.8416 12.5827 18.3401 11.7721L15.5875 7.16503C14.83 5.92347 13.7631 5.90295 12.9736 7.16503L10.2743 11.649C9.89023 12.3262 10.4877 13.3318 11.4372 13.3318H27.2381C28.337 13.3318 28.8598 14.5015 28.4224 15.2505C28.4224 15.2505 21.1781 27.3275 20.5913 28.292C20.0045 29.2668 18.6282 29.2155 18.0627 28.3023L15.2888 23.7567C14.7233 22.7922 15.4915 21.6635 16.4197 21.6635H22.309C23.1945 21.6635 23.7067 20.7811 23.2052 19.9295L20.6233 15.5481C19.9405 14.4399 18.8629 14.3784 18.1481 15.4968C18.1481 15.4968 10.9785 27.3685 10.4237 28.292C9.86889 29.2052 8.74864 29.2873 8.1405 28.292C7.5217 27.2864 0.21339 15.2916 0.21339 15.2916C-0.405416 14.2245 0.458778 13.3318 1.42966 13.3318H6.90289C8.25786 13.3318 8.63128 14.4707 8.09783 15.3018L5.27053 20.0321C4.85443 20.7503 5.51591 21.6841 6.43345 21.6738H12.1521C13.0269 21.6841 13.6031 20.9145 13.0909 20.0526L5.18517 6.92903Z" fill="#E50012"/>
</g>
<defs>
<clipPath id="clip0_14_13">
<rect width="139.765" height="24" fill="white" transform="translate(0 5)"/>
</clipPath>
</defs>
</svg>
