<svg width="164" height="34" viewBox="0 0 164 34" fill="none" xmlns="http://www.w3.org/2000/svg">
<g clip-path="url(#clip0_14_139)">
<path d="M94.5605 0H0V34H94.5605V0Z" fill="#2F9482"/>
<path d="M163.264 0H117.262V34H163.264V0Z" fill="#D5953D"/>
<path d="M117.696 0H94.1261V34H117.696V0Z" fill="#231F20"/>
<path d="M61.486 19.9994C61.486 21.2623 61.0133 22.2884 59.0332 22.2983C57.0531 22.2983 56.5932 21.2623 56.5804 19.9994V10.8729H54.3959V19.9994C54.3959 22.0319 55.8778 23.6401 59.0332 23.6401C62.1886 23.6401 63.6705 22.0319 63.6705 19.9994V10.8729H61.486V19.9994Z" fill="white"/>
<path d="M20.5805 16.2205H15.6749V10.8729H13.4904V23.5316H15.6749V17.6314H20.5805V23.5316H22.765V10.8729H20.5805V16.2205Z" fill="white"/>
<path d="M84.2255 19.9106L79.8693 10.8827H76.6116V23.5415H78.7578V12.8462L84.0211 23.5415H86.3589V10.8827H84.2255V19.9106Z" fill="white"/>
<path d="M38.5166 16.2501L35.6039 10.8827H33.3299L37.4179 18.1938V23.5415H39.5897V18.1642L43.601 10.8827H41.3271L38.5038 16.2501H38.5166Z" fill="white"/>
<path d="M147.717 23.5415H149.838V10.8827H147.717V23.5415Z" fill="white"/>
<path d="M104.372 22.1207H103.452V12.2739H104.372C107.08 12.2936 108.575 12.9251 108.6 17.2072C108.575 21.4892 107.08 22.1108 104.372 22.1306M104.793 10.8827H101.306V23.5415H104.793C106.62 23.5415 108.115 23.1665 109.137 22.1799C110.172 21.1932 110.721 19.6146 110.721 17.1973C110.721 14.78 110.172 13.2112 109.137 12.2246C108.115 11.2379 106.62 10.8729 104.78 10.8729" fill="white"/>
<path d="M126.843 18.5391L128.67 12.195L130.497 18.5391H126.83H126.843ZM127.213 10.8827V10.9321L123.304 23.5217H125.502L126.524 19.9698H130.829L131.864 23.5316H134.048L130.164 10.8827H127.201H127.213Z" fill="white"/>
</g>
<defs>
<clipPath id="clip0_14_139">
<rect width="164" height="34" fill="white"/>
</clipPath>
</defs>
</svg>
