<svg width="72" height="16" viewBox="0 0 72 16" fill="none" xmlns="http://www.w3.org/2000/svg">
<g clip-path="url(#clip0_14_102)">
<path d="M15.5766 0H3.4069C2.62989 0 2 0.630585 2 1.40845V13.5915C2 14.3694 2.62989 15 3.4069 15H15.5766C16.3536 15 16.9834 14.3694 16.9834 13.5915V1.40845C16.9834 0.630585 16.3536 0 15.5766 0Z" fill="#FAE100"/>
<path d="M12.003 7.50235C12.6737 7.06103 13.1145 6.30047 13.1145 5.44132C13.1145 4.07981 12.0124 2.97183 10.6477 2.97183H6.51614C6.43641 2.97183 6.37545 3.03756 6.37545 3.11268V11.8873C6.37545 11.9671 6.4411 12.0329 6.51614 12.0329H10.6477C12.0077 12.0329 13.1145 10.9296 13.1145 9.56338C13.1145 8.69953 12.6737 7.94366 12.003 7.50235ZM9.97241 9.56338H9.19393V5.43662H9.97241V9.56338Z" fill="#1E1E1E"/>
<path d="M22.2734 11.3991H21.4011V3.6432L22.2734 3.44601V11.3991ZM24.7917 5.77935L25.4764 6.28639L23.685 8.52583L25.7578 11.0047L25.0731 11.5446L22.6579 8.56808L24.7917 5.77935Z" fill="#1E1E1E"/>
<path d="M28.3746 8.23476H29.4626V7.78875C29.4626 6.9296 29.0781 6.58687 28.3559 6.58687C27.8494 6.58687 27.2772 6.7418 26.8317 6.94837L26.5738 6.33805C27.1225 6.02819 27.7837 5.84039 28.3746 5.84039C29.669 5.84039 30.3021 6.46481 30.3021 7.831V11.3991H29.6596L29.5564 10.7981C29.0171 11.2348 28.323 11.4836 27.7743 11.4836C26.813 11.4836 26.2314 10.9014 26.2314 9.9296C26.2314 8.82161 26.9771 8.23945 28.3746 8.23945V8.23476ZM29.4626 10.1549V8.84978H28.4872C27.5023 8.84978 27.0568 9.18312 27.0568 9.88734C27.0568 10.4601 27.3663 10.7794 27.9291 10.7794C28.4356 10.7794 29.1015 10.5118 29.4626 10.1549Z" fill="#1E1E1E"/>
<path d="M32.7266 11.3991H31.8543V3.6432L32.7266 3.44601V11.3991ZM35.245 5.77935L35.9297 6.28639L34.1382 8.52583L36.211 11.0047L35.5263 11.5446L33.1112 8.56808L35.245 5.77935Z" fill="#1E1E1E"/>
<path d="M38.8279 8.23476H39.9159V7.78875C39.9159 6.9296 39.5313 6.58687 38.8091 6.58687C38.3026 6.58687 37.7305 6.7418 37.285 6.94837L37.027 6.33805C37.5757 6.02819 38.237 5.84039 38.8279 5.84039C40.1222 5.84039 40.7553 6.46481 40.7553 7.831V11.3991H40.1128L40.0097 10.7981C39.4703 11.2348 38.7763 11.4836 38.2276 11.4836C37.2662 11.4836 36.6847 10.9014 36.6847 9.9296C36.6847 8.82161 37.4303 8.23945 38.8279 8.23945V8.23476ZM39.9159 10.1549V8.84978H38.9404C37.9556 8.84978 37.5101 9.18312 37.5101 9.88734C37.5101 10.4601 37.8196 10.7794 38.3823 10.7794C38.8888 10.7794 39.5548 10.5118 39.9159 10.1549Z" fill="#1E1E1E"/>
<path d="M46.8472 8.68077C46.8472 10.4977 45.9468 11.5024 44.4226 11.5024C42.8985 11.5024 41.9981 10.4977 41.9981 8.68077C41.9981 6.86387 42.9219 5.84039 44.4226 5.84039C45.9233 5.84039 46.8472 6.85448 46.8472 8.68077ZM42.8985 8.68077C42.8985 10.0611 43.4566 10.7841 44.4226 10.7841C45.3887 10.7841 45.9468 10.0564 45.9468 8.68077C45.9468 7.30518 45.3887 6.55401 44.4226 6.55401C43.4566 6.55401 42.8985 7.30049 42.8985 8.68077Z" fill="#1E1E1E"/>
<path d="M48.1415 11.2347V3.66197L49.5297 3.41315V6.12207C49.8626 5.91549 50.2941 5.76995 50.7724 5.76995C52.245 5.76995 52.925 6.77465 52.925 8.53052C52.925 10.4272 51.8886 11.5587 50.1674 11.5587C49.3702 11.5587 48.5214 11.4038 48.1368 11.2394L48.1415 11.2347ZM49.5297 7.01409V10.4789C49.7454 10.5117 49.8908 10.5117 50.0268 10.5117C50.899 10.5117 51.5181 9.96244 51.5181 8.56338C51.5181 7.50704 51.2601 6.89202 50.2753 6.89202C49.9658 6.89202 49.6938 6.96244 49.5297 7.01878V7.01409Z" fill="#1E1E1E"/>
<path d="M55.8607 8.07042H56.733V7.88263C56.733 7.28169 56.5454 6.93897 55.7294 6.93897C55.2229 6.93897 54.7539 7.04225 54.2568 7.30047L53.8723 6.34742C54.4022 5.98592 55.176 5.76526 55.8935 5.76526C57.291 5.76526 58.0273 6.45071 58.0273 7.86855V11.3944H57.0519L56.8971 10.9296C56.339 11.3662 55.7388 11.5399 55.251 11.5399C54.1818 11.5399 53.5956 10.9061 53.5956 9.8169C53.5956 8.66667 54.3834 8.06573 55.8654 8.06573L55.8607 8.07042ZM56.7283 10.0329V8.96244H55.9826C55.237 8.96244 54.843 9.26291 54.843 9.81221C54.843 10.2066 55.0728 10.4648 55.5277 10.4648C55.9826 10.4648 56.4797 10.2488 56.7283 10.0282V10.0329Z" fill="#1E1E1E"/>
<path d="M59.2654 5.93428H60.2502L60.4566 6.48357C60.9443 6.04695 61.6149 5.76996 62.1964 5.76996C63.4204 5.76996 64.0301 6.52583 64.0301 7.89672V11.4038H62.6419V7.85447C62.6419 7.24414 62.4121 6.98123 61.6806 6.98123C61.3898 6.98123 60.9771 7.06573 60.6535 7.1878V11.3991H59.2654V5.93428Z" fill="#1E1E1E"/>
<path d="M68.1148 8.49765L70 10.7606L68.9542 11.5916L66.6657 8.77934V11.4038H65.2775V3.66197L66.6657 3.41315V8.44132L68.7572 5.60094L69.7937 6.32864L68.1148 8.49765Z" fill="#1E1E1E"/>
</g>
<defs>
<clipPath id="clip0_14_102">
<rect width="68" height="15" fill="white" transform="translate(2)"/>
</clipPath>
</defs>
</svg>
