<svg width="104" height="16" viewBox="0 0 104 16" fill="none" xmlns="http://www.w3.org/2000/svg">
<g clip-path="url(#clip0_14_231)">
<path d="M14.829 1.06012H16.9339V0H5.80197V1.06012H7.92761L4.12493 4.83938L3 3.79302V8.75631H7.95521L6.9338 7.68242L9.08704 5.53465V9.87838H6.38169L11.3714 15L16.3404 9.87838H13.7248V5.53465L15.8228 7.68242L14.7807 8.75631H19.7359V3.85498L18.6317 4.87379L14.829 1.06012Z" fill="black"/>
<path d="M58.8462 11.4479C58.3286 11.8334 57.5211 11.9091 56.9138 11.6682C55.292 11.0831 55.1194 8.82515 55.1056 7.12482C55.147 5.65167 55.2437 4.13033 56.4169 3.13905C56.9483 2.60211 57.8248 2.60211 58.4735 2.905C59.2603 3.21477 59.7641 4.02019 59.8676 4.81872H62.8352C62.7455 4.27489 62.5384 3.80679 62.2555 3.33868C61.0546 1.45938 58.9911 0.640199 56.831 0.90867C55.0021 1.14961 53.4493 2.07893 52.697 4.38504C52.0414 6.95961 52.0621 10.2019 53.9048 12.1914C55.3472 13.7334 57.597 14.1946 59.6468 13.5819C61.2548 13.0656 62.6903 11.3653 62.8697 9.67186H59.8814C59.7158 10.3121 59.4949 11.0349 58.86 11.4479H58.8462Z" fill="black"/>
<path d="M79.3158 8.44654L74.8437 1.27353H72.3661V13.4993H74.9334V6.25058L79.4055 13.4993H81.9107V1.27353H79.3158V8.44654Z" fill="black"/>
<path d="M82.4214 3.43505H85.9549V13.4993H88.5015V3.43505H91.9247V1.2804H82.4145L82.4214 3.43505Z" fill="black"/>
<path d="M63.2562 13.4993H71.8484V11.3102H65.9339V8.24689H71.2825V6.09912H65.9408V3.45571H71.8484V1.2804H63.2562V13.4993Z" fill="black"/>
<path d="M32.9866 13.4993H41.5789V11.3102H35.6644V8.24689H41.013V6.09912H35.6713V3.45571H41.5789V1.2804H32.9866V13.4993Z" fill="black"/>
<path d="M101 3.45571V1.2804H92.4077V13.4993H101V11.3102H95.0855V8.24689H100.434V6.09912H95.0924V3.45571H101Z" fill="black"/>
<path d="M50.0538 6.66359L45.3332 5.0803C44.933 4.94262 44.6086 4.51582 44.5948 4.08902C44.5672 3.73794 44.6845 3.44193 44.9399 3.21476C45.7818 2.58145 47.1207 2.62275 48.0731 2.99448C48.7425 3.31802 49.1842 4.0959 49.1842 4.81871H51.648C51.6066 4.06148 51.3858 3.30426 51.0407 2.67094C49.9296 0.894894 47.9489 0.626422 45.9613 0.757216C44.3601 0.805403 42.6969 1.77603 42.1655 3.33179C41.8204 4.41256 42.1448 5.55529 42.8901 6.35382C44.4913 7.82009 46.6583 7.89581 48.5148 8.74941C48.5148 8.74941 48.8184 8.92839 48.9565 9.12114C49.198 9.45157 49.3154 9.84395 49.2394 10.2776C49.1773 10.6287 48.9427 10.9385 48.6045 11.1244C47.9903 11.4686 46.7066 11.6131 45.8163 11.3309C45.0572 11.1244 44.4361 10.4015 44.2428 9.67186H41.641C41.6824 10.9178 42.3242 11.9848 43.3801 12.7696C45.278 13.9881 48.2939 14.1739 50.2539 12.9486C51.372 12.1363 52.0966 10.9936 52.0345 9.58925C52.0069 8.35015 51.1994 7.16612 50.0469 6.65671L50.0538 6.66359Z" fill="black"/>
<path d="M28.0176 1.33547C27.0652 1.26663 26.2025 1.26663 26.2025 1.26663H22.3446V13.4993H26.2094C27.7346 13.4993 29.2806 13.5406 30.44 12.6526C32.8762 10.8352 32.8555 7.31069 32.1032 4.70169C31.6132 2.95319 29.8189 1.50068 28.0176 1.32859V1.33547ZM29.1701 10.2226C28.2246 11.6062 26.4579 11.2414 25.0155 11.3102V3.44194C26.3958 3.48325 27.9969 3.24919 28.9079 4.34373C30.1501 5.91326 30.157 8.53602 29.1701 10.2226Z" fill="black"/>
</g>
<defs>
<clipPath id="clip0_14_231">
<rect width="98" height="15" fill="white" transform="translate(3)"/>
</clipPath>
</defs>
</svg>
