<svg width="154" height="34" viewBox="0 0 154 34" fill="none" xmlns="http://www.w3.org/2000/svg">
<g clip-path="url(#clip0_14_102)">
<g clip-path="url(#clip1_14_102)">
<path d="M30.8075 0H3.19249C1.42933 0 0 1.42933 0 3.19249V30.8075C0 32.5707 1.42933 34 3.19249 34H30.8075C32.5707 34 34 32.5707 34 30.8075V3.19249C34 1.42933 32.5707 0 30.8075 0Z" fill="#FAE100"/>
<path d="M22.6986 17.0053C24.2203 16.005 25.2207 14.2811 25.2207 12.3336C25.2207 9.24757 22.7199 6.73615 19.6232 6.73615H10.2479C10.067 6.73615 9.92864 6.88513 9.92864 7.05539V26.9446C9.92864 27.1255 10.0776 27.2745 10.2479 27.2745H19.6232C22.7092 27.2745 25.2207 24.7737 25.2207 21.677C25.2207 19.7189 24.2203 18.0056 22.6986 17.0053ZM18.0908 21.677H16.3243V12.323H18.0908V21.677Z" fill="#1E1E1E"/>
<path d="M46.0038 25.8379H44.0244V8.25789L46.0038 7.81094V25.8379ZM51.7183 13.0998L53.272 14.2491L49.2069 19.3252L53.9105 24.944L52.3568 26.1678L46.8764 19.421L51.7183 13.0998Z" fill="#1E1E1E"/>
<path d="M59.8485 18.6654H62.3174V17.6544C62.3174 15.707 61.4448 14.9302 59.8059 14.9302C58.6566 14.9302 57.3584 15.2814 56.3474 15.7496L55.7621 14.3662C57.0072 13.6638 58.5077 13.2382 59.8485 13.2382C62.7856 13.2382 64.2222 14.6535 64.2222 17.7502V25.8378H62.7643L62.5302 24.4757C61.3064 25.4654 59.7314 26.0294 58.4864 26.0294C56.3048 26.0294 54.9853 24.7098 54.9853 22.507C54.9853 19.9956 56.6773 18.676 59.8485 18.676V18.6654ZM62.3174 23.0178V20.0594H60.1039C57.8692 20.0594 56.8582 20.815 56.8582 22.4112C56.8582 23.7095 57.5606 24.4332 58.8376 24.4332C59.9869 24.4332 61.498 23.8266 62.3174 23.0178Z" fill="#1E1E1E"/>
<path d="M69.7239 25.8379H67.7446V8.25789L69.7239 7.81094V25.8379ZM75.4385 13.0998L76.9922 14.2491L72.9271 19.3252L77.6307 24.944L76.077 26.1678L70.5966 19.421L75.4385 13.0998Z" fill="#1E1E1E"/>
<path d="M83.5687 18.6654H86.0376V17.6544C86.0376 15.707 85.1649 14.9302 83.5261 14.9302C82.3768 14.9302 81.0786 15.2814 80.0676 15.7496L79.4823 14.3662C80.7274 13.6638 82.2279 13.2382 83.5687 13.2382C86.5058 13.2382 87.9424 14.6535 87.9424 17.7502V25.8378H86.4845L86.2504 24.4757C85.0266 25.4654 83.4516 26.0294 82.2066 26.0294C80.025 26.0294 78.7055 24.7098 78.7055 22.507C78.7055 19.9956 80.3975 18.676 83.5687 18.676V18.6654ZM86.0376 23.0178V20.0594H83.8241C81.5894 20.0594 80.5784 20.815 80.5784 22.4112C80.5784 23.7095 81.2808 24.4332 82.5577 24.4332C83.707 24.4332 85.2181 23.8266 86.0376 23.0178Z" fill="#1E1E1E"/>
<path d="M101.766 19.6763C101.766 23.7947 99.7227 26.072 96.2642 26.072C92.8056 26.072 90.7624 23.7947 90.7624 19.6763C90.7624 15.558 92.8588 13.2382 96.2642 13.2382C99.6695 13.2382 101.766 15.5368 101.766 19.6763ZM92.8056 19.6763C92.8056 22.805 94.072 24.4438 96.2642 24.4438C98.4563 24.4438 99.7227 22.7943 99.7227 19.6763C99.7227 16.5583 98.4563 14.8557 96.2642 14.8557C94.072 14.8557 92.8056 16.5477 92.8056 19.6763Z" fill="#1E1E1E"/>
<path d="M104.703 25.4654V8.30046L107.853 7.73645V13.8767C108.608 13.4084 109.587 13.0785 110.673 13.0785C114.014 13.0785 115.557 15.3559 115.557 19.3358C115.557 23.635 113.206 26.1997 109.3 26.1997C107.491 26.1997 105.565 25.8485 104.692 25.476L104.703 25.4654ZM107.853 15.8986V23.7521C108.342 23.8266 108.672 23.8266 108.981 23.8266C110.96 23.8266 112.365 22.5815 112.365 19.4103C112.365 17.0159 111.78 15.6219 109.545 15.6219C108.843 15.6219 108.225 15.7815 107.853 15.9092V15.8986Z" fill="#1E1E1E"/>
<path d="M122.219 18.2929H124.198V17.8673C124.198 16.5051 123.773 15.7283 121.921 15.7283C120.772 15.7283 119.708 15.9624 118.58 16.5477L117.707 14.3875C118.91 13.5681 120.665 13.0679 122.294 13.0679C125.465 13.0679 127.136 14.6216 127.136 17.8354V25.8272H124.922L124.571 24.7737C123.305 25.7634 121.942 26.1571 120.836 26.1571C118.409 26.1571 117.079 24.7205 117.079 22.2516C117.079 19.6444 118.867 18.2823 122.23 18.2823L122.219 18.2929ZM124.188 22.7411V20.3149H122.496C120.804 20.3149 119.91 20.9959 119.91 22.241C119.91 23.1349 120.431 23.7202 121.464 23.7202C122.496 23.7202 123.624 23.2307 124.188 22.7305V22.7411Z" fill="#1E1E1E"/>
<path d="M129.945 13.451H132.18L132.648 14.6961C133.755 13.7064 135.276 13.0786 136.596 13.0786C139.373 13.0786 140.757 14.7919 140.757 17.8992V25.8485H137.607V17.8034C137.607 16.42 137.085 15.8241 135.425 15.8241C134.766 15.8241 133.829 16.0156 133.095 16.2923V25.8379H129.945V13.451Z" fill="#1E1E1E"/>
<path d="M150.026 19.2613L154.304 24.3906L151.931 26.2742L146.737 19.8998V25.8485H143.587V8.30046L146.737 7.73645V19.1336L151.484 12.6954L153.835 14.3449L150.026 19.2613Z" fill="#1E1E1E"/>
</g>
</g>
<defs>
<clipPath id="clip0_14_102">
<rect width="154" height="34" fill="white"/>
</clipPath>
<clipPath id="clip1_14_102">
<rect width="154.304" height="34" fill="white"/>
</clipPath>
</defs>
</svg>
