<svg width="222" height="34" viewBox="0 0 222 34" fill="none" xmlns="http://www.w3.org/2000/svg">
<g clip-path="url(#clip0_14_231)">
<g clip-path="url(#clip1_14_231)">
<path d="M26.7444 2.40294H31.5034V0H6.33502V2.40294H11.1409L2.54337 10.9693L0 8.59752V19.8476H11.2033L8.89399 17.4135L13.7623 12.5452V22.391H7.64571L18.927 34L30.1615 22.391H24.2478V12.5452L28.9913 17.4135L26.6352 19.8476H37.8385V8.73795L35.3419 11.0473L26.7444 2.40294Z" fill="black"/>
<path d="M126.263 25.9486C125.093 26.8224 123.268 26.994 121.894 26.4479C118.228 25.1216 117.838 20.0037 117.806 16.1496C117.9 12.8105 118.118 9.36211 120.771 7.1152C121.972 5.89813 123.954 5.89813 125.421 6.58468C127.2 7.28684 128.339 9.11245 128.573 10.9225H135.282C135.079 9.68978 134.611 8.62874 133.972 7.5677C131.257 3.30795 126.591 1.45114 121.707 2.05967C117.572 2.6058 114.062 4.71227 112.361 9.93943C110.878 15.7751 110.925 23.1244 115.091 27.6338C118.352 31.129 123.439 32.1744 128.073 30.7857C131.709 29.6154 134.955 25.7614 135.36 21.9229H128.604C128.229 23.374 127.73 25.0124 126.295 25.9486H126.263Z" fill="black"/>
<path d="M172.543 19.1455L162.432 2.88666H156.831V30.5984H162.635V14.168L172.746 30.5984H178.41V2.88666H172.543V19.1455Z" fill="black"/>
<path d="M179.565 7.78614H187.554V30.5984H193.312V7.78614H201.051V2.90225H179.549L179.565 7.78614Z" fill="black"/>
<path d="M136.234 30.5984H155.66V25.6365H142.288V18.693H154.381V13.8247H142.304V7.83295H155.66V2.90225H136.234V30.5984Z" fill="black"/>
<path d="M67.7972 30.5984H87.2235V25.6365H73.8513V18.693H85.944V13.8247H73.8669V7.83295H87.2235V2.90225H67.7972V30.5984Z" fill="black"/>
<path d="M221.57 7.83295V2.90225H202.143V30.5984H221.57V25.6365H208.197V18.693H220.29V13.8247H208.213V7.83295H221.57Z" fill="black"/>
<path d="M106.385 15.1042L95.7118 11.5154C94.8068 11.2033 94.0734 10.2359 94.0422 9.26847C93.9798 8.47269 94.2451 7.80174 94.8224 7.28682C96.726 5.8513 99.7531 5.94492 101.906 6.78751C103.42 7.52087 104.419 9.28407 104.419 10.9224H109.989C109.895 9.20605 109.396 7.48967 108.616 6.05415C106.104 2.02845 101.626 1.41991 97.1317 1.71638C93.5117 1.8256 89.7513 4.02569 88.5498 7.55208C87.7696 10.0018 88.503 12.592 90.1882 14.402C93.8082 17.7256 98.7077 17.8972 102.905 19.832C102.905 19.832 103.592 20.2377 103.904 20.6746C104.45 21.4236 104.715 22.313 104.543 23.296C104.403 24.0918 103.872 24.7939 103.108 25.2152C101.719 25.9954 98.8169 26.3231 96.804 25.6833C95.0877 25.2152 93.6833 23.5769 93.2464 21.9229H87.3639C87.4576 24.7471 88.9087 27.1657 91.296 28.9445C95.587 31.7063 102.406 32.1276 106.837 29.3502C109.365 27.5089 111.003 24.9188 110.863 21.7357C110.8 18.927 108.975 16.2432 106.369 15.0886L106.385 15.1042Z" fill="black"/>
<path d="M56.5626 3.02707C54.4094 2.87103 52.4589 2.87103 52.4589 2.87103H43.7366V30.5984H52.4745C55.9229 30.5984 59.4181 30.692 62.0395 28.6792C67.5475 24.5599 67.5007 16.5709 65.7999 10.6572C64.6921 6.69389 60.6352 3.40155 56.5626 3.01146V3.02707ZM59.1684 23.1712C57.0307 26.3075 53.0363 25.4805 49.7751 25.6365V7.80173C52.8958 7.89536 56.5158 7.36484 58.5755 9.84579C61.3841 13.4034 61.3997 19.3483 59.1684 23.1712Z" fill="black"/>
</g>
</g>
<defs>
<clipPath id="clip0_14_231">
<rect width="222" height="34" fill="white"/>
</clipPath>
<clipPath id="clip1_14_231">
<rect width="221.57" height="34" fill="white"/>
</clipPath>
</defs>
</svg>
