<svg width="47" height="16" viewBox="0 0 47 16" fill="none" xmlns="http://www.w3.org/2000/svg">
<g clip-path="url(#clip0_14_58)">
<path d="M17.1064 15H14.341C14.1596 15 14.0076 14.8534 14.0076 14.6678V0.332248C14.0076 0.151466 14.1547 0 14.341 0H17.1064C17.2878 0 17.4398 0.14658 17.4398 0.332248V14.6678C17.4398 14.8485 17.2927 15 17.1064 15Z" fill="#42B22E"/>
<path d="M11.5267 11.5798H5.43215V0.596091C5.43215 0.26873 5.16249 0 4.83398 0H2.59818C2.26967 0 2 0.26873 2 0.596091V14.4039C2 14.7313 2.26967 15 2.59818 15H11.5267C11.8552 15 12.1249 14.7313 12.1249 14.4039V12.1808C12.1249 11.8534 11.8601 11.5847 11.5267 11.5847V11.5798Z" fill="#42B22E"/>
<path d="M44.4018 3.4202C44.7303 3.4202 45 3.15147 45 2.8241V0.596091C45 0.26873 44.7303 0 44.4018 0H35.5272C35.1987 0 34.9291 0.26873 34.9291 0.596091V14.4039C34.9291 14.7313 35.1987 15 35.5272 15H44.4018C44.7303 15 45 14.7313 45 14.4039V12.1808C45 11.8534 44.7303 11.5847 44.4018 11.5847H38.3612V9.21498H44.4018C44.7303 9.21498 45 8.94625 45 8.61889V6.39577C45 6.0684 44.7303 5.79967 44.4018 5.79967H38.3612V3.42508H44.4018V3.4202Z" fill="#42B22E"/>
<path d="M32.1735 0H29.9426C29.6141 0 29.3445 0.26873 29.3445 0.596091V8.81433L23.0636 0.429967C22.892 0.19544 22.7596 0 22.4851 0H20.2542C19.9257 0 19.656 0.26873 19.656 0.596091V14.4039C19.656 14.7313 19.9257 15 20.2542 15H22.4851C22.8136 15 23.0832 14.7313 23.0832 14.4039V6.20521L29.369 14.5945C29.4769 14.7508 29.673 15 29.9377 15H32.1686C32.4972 15 32.7668 14.7313 32.7668 14.4039V0.596091C32.7668 0.26873 32.5021 0 32.1686 0H32.1735Z" fill="#42B22E"/>
</g>
<defs>
<clipPath id="clip0_14_58">
<rect width="43" height="15" fill="white" transform="translate(2)"/>
</clipPath>
</defs>
</svg>
