<svg width="66" height="16" viewBox="0 0 66 16" fill="none" xmlns="http://www.w3.org/2000/svg">
<g clip-path="url(#clip0_14_13)">
<path d="M31.0849 2.8089C28.393 2.8089 26.2092 4.91108 26.2092 7.50236C26.2092 10.0936 28.3881 12.1958 31.0849 12.1958C33.7817 12.1958 35.9606 10.0983 35.9606 7.50236C35.9606 4.90638 33.7768 2.8089 31.0849 2.8089ZM31.0849 9.97606C29.6632 9.97606 28.5151 8.86619 28.5151 7.50236C28.5151 6.13853 29.6681 5.02865 31.0849 5.02865C32.5017 5.02865 33.6547 6.13853 33.6547 7.50236C33.6547 8.86619 32.5017 9.97606 31.0849 9.97606Z" fill="#006EBB"/>
<path d="M49.5374 2.8089C46.8455 2.8089 44.6617 4.91108 44.6617 7.50236C44.6617 10.0936 46.8455 12.1958 49.5374 12.1958C52.2293 12.1958 54.4131 10.0983 54.4131 7.50236C54.4131 4.90638 52.2293 2.8089 49.5374 2.8089ZM49.5374 9.97606C48.1157 9.97606 46.9676 8.86619 46.9676 7.50236C46.9676 6.13853 48.1206 5.02865 49.5374 5.02865C50.9542 5.02865 52.1072 6.13853 52.1072 7.50236C52.1072 8.86619 50.9591 9.97606 49.5374 9.97606Z" fill="#006EBB"/>
<path d="M40.3087 3.10046H37.9344V11.8995H43.455V9.85848H40.3087V3.10046Z" fill="#006EBB"/>
<path d="M22.7698 3.10046L19.8922 6.74989V3.10046H17.513V11.8995H19.8922V8.2501L22.7698 11.8995H25.7402L22.1005 7.49764L25.7402 3.10046H22.7698Z" fill="#006EBB"/>
<path d="M62.6256 3.10046V8.13253H62.6012L58.7905 3.10046H56.3918V11.8995H58.7661V6.51474H58.7954L62.8699 11.8995H65V3.10046H62.6256Z" fill="#006EBB"/>
<path d="M3.37414 2.88414C3.11521 2.44207 3.48162 2 3.90666 2H11.147C11.743 2 11.9042 2.54553 11.6648 2.91706L10.3604 5.08978C10.1503 5.49423 9.62758 5.47542 9.39796 5.10389L8.1375 2.9923C7.79063 2.42326 7.30208 2.41385 6.94055 2.9923L5.70452 5.04746C5.52865 5.35785 5.80223 5.81873 6.23704 5.81873H13.4725C13.9757 5.81873 14.2151 6.35485 14.0148 6.69816C14.0148 6.69816 10.6975 12.2334 10.4288 12.6755C10.1601 13.1223 9.52987 13.0988 9.27094 12.6802L8.00071 10.5968C7.74178 10.1548 8.09353 9.63745 8.51857 9.63745H11.2154C11.6209 9.63745 11.8554 9.23301 11.6257 8.84267L10.4435 6.83454C10.1308 6.32664 9.63735 6.29842 9.31002 6.81103C9.31002 6.81103 6.02697 12.2522 5.77292 12.6755C5.51887 13.0941 5.0059 13.1317 4.72742 12.6755C4.44407 12.2146 1.0975 6.71697 1.0975 6.71697C0.814142 6.22788 1.20987 5.81873 1.65445 5.81873H4.16071C4.78116 5.81873 4.95216 6.34074 4.70788 6.72168L3.41323 8.8897C3.22269 9.2189 3.52559 9.64686 3.94574 9.64215H6.56437C6.96498 9.64686 7.2288 9.29414 6.99429 8.8991L3.37414 2.88414Z" fill="#E50012"/>
</g>
<defs>
<clipPath id="clip0_14_13">
<rect width="64" height="11" fill="white" transform="translate(1 2)"/>
</clipPath>
</defs>
</svg>
