<svg width="47" height="16" viewBox="0 0 47 16" fill="none" xmlns="http://www.w3.org/2000/svg">
<g clip-path="url(#clip0_14_2)">
<path d="M41.2559 9.44031C49.5999 5.16008 48.5529 1.06753 40.0626 0.220638C30.9139 -0.690343 17.5497 1.27811 8.23639 5.04563L6.94706 5.59954C-2.7503 9.93929 -1.83131 14.5354 6.82362 15.3731C16.2832 16.2887 30.6624 14.4164 40.0763 10.0263L41.2513 9.43574L41.2559 9.44031Z" fill="#004093"/>
<path d="M39.4545 10.278C39.4545 10.278 37.8588 10.4062 37.8223 9.11985V6.62953C37.8223 6.62953 37.6257 5.2562 39.4088 5.2562C39.4088 5.2562 40.5701 5.21957 40.881 5.91082C40.881 5.91082 41.0319 6.09393 40.9907 6.85842H39.7517V6.46931C39.7517 6.46931 39.7517 6.15344 39.4271 6.15344C39.4271 6.15344 39.0887 6.16718 39.0887 6.43269V9.00541C39.0887 9.00541 39.075 9.35332 39.4545 9.35332C39.4545 9.35332 39.7654 9.34417 39.7654 8.98252V8.23634H39.4271V7.54509H41.0181V9.00541C41.0181 9.00541 41.0181 9.31212 40.8855 9.49065C40.8855 9.49065 40.7575 9.6875 40.7072 9.72412C40.7072 9.72412 40.2775 10.2735 39.4499 10.2735" fill="white"/>
<path d="M36.1763 5.44391H34.9373L35.0242 8.29587H34.9739L33.7165 5.44849H32.2123V10.1453H33.4376L33.3599 7.27045H33.4148L34.7178 10.1453H36.1763V5.44391Z" fill="white"/>
<path d="M28.4998 5.4256H27.1602V8.9505C27.1602 8.9505 27.023 10.2826 28.9022 10.2826C28.9022 10.2826 30.5344 10.3009 30.5344 9.01001V5.4256H29.2222V8.96881C29.2222 8.96881 29.2405 9.35792 28.8793 9.35792C28.8793 9.35792 28.4998 9.37623 28.4998 8.97797V5.4256Z" fill="white"/>
<path d="M25.6194 6.88134V6.29081C25.6194 6.29081 25.7108 5.32489 24.1609 5.28369C24.1609 5.28369 22.9402 5.20129 22.5927 5.86049C22.5927 5.86049 22.4555 6.00698 22.4555 6.5197V6.8905C22.4555 6.8905 22.4418 7.31623 22.6567 7.5909C22.6567 7.5909 22.7801 7.76943 23.0819 7.97086C23.0819 7.97086 23.6946 8.30046 24.0649 8.49272C24.0649 8.49272 24.4352 8.7033 24.3895 9.04206C24.3895 9.04206 24.3575 9.38997 24.0009 9.37624C24.0009 9.37624 23.6717 9.36251 23.6717 9.02375V8.62548H22.3549V9.20686C22.3549 9.20686 22.3184 10.3193 24.01 10.3193C24.01 10.3193 25.624 10.3513 25.7017 9.17939V8.70788C25.7017 8.70788 25.7566 7.98917 25.1302 7.60921C25.1302 7.60921 24.7964 7.39863 24.5861 7.32081C24.5861 7.32081 23.9415 7.02325 23.818 6.88134C23.818 6.88134 23.5665 6.6433 23.7129 6.36863C23.7129 6.36863 23.7723 6.19009 24.0375 6.19009C24.0375 6.19009 24.3804 6.20841 24.3804 6.49223V6.8905H25.6148L25.6194 6.88134Z" fill="white"/>
<path d="M15.8352 5.44391L15.7346 10.1453H16.9553L16.969 6.60209H17.0651L17.7143 10.1453H18.999L19.6391 6.60667H19.7214L19.7534 10.1453H20.9788L20.8507 5.44391H18.807L18.391 8.01663H18.2949L17.8972 5.44391H15.8352Z" fill="white"/>
<path d="M14.4224 10.1407L13.6086 5.43933H11.5328L10.719 10.1407H12.0358L12.5158 6.4968H12.6256L13.1056 10.1407H14.4224Z" fill="white"/>
<path d="M9.4297 6.88134V6.29081C9.4297 6.29081 9.52114 5.32489 7.97121 5.28369C7.97121 5.28369 6.75046 5.20129 6.40299 5.86049C6.40299 5.86049 6.26582 6.00698 6.26582 6.5197V6.8905C6.26582 6.8905 6.25211 7.31623 6.467 7.5909C6.467 7.5909 6.59044 7.76943 6.8922 7.97086C6.8922 7.97086 7.50486 8.30046 7.87519 8.49272C7.87519 8.49272 8.24553 8.7033 8.19981 9.04206C8.19981 9.04206 8.16781 9.38997 7.81119 9.37624C7.81119 9.37624 7.482 9.36251 7.482 9.02375V8.62548H6.16524V9.20686C6.16524 9.20686 6.12866 10.3193 7.82033 10.3193C7.82033 10.3193 9.43427 10.3513 9.512 9.17939V8.70788C9.512 8.70788 9.56686 7.98917 8.94049 7.60921C8.94049 7.60921 8.60215 7.39863 8.39641 7.32081C8.39641 7.32081 7.75175 7.02325 7.6283 6.88134C7.6283 6.88134 7.37684 6.6433 7.52315 6.36863C7.52315 6.36863 7.58715 6.19009 7.84776 6.19009C7.84776 6.19009 8.19067 6.20841 8.19067 6.49223V6.8905H9.42513L9.4297 6.88134Z" fill="white"/>
</g>
<defs>
<clipPath id="clip0_14_2">
<rect width="47" height="16" fill="white"/>
</clipPath>
</defs>
</svg>
