<svg width="155" height="34" viewBox="0 0 155 34" fill="none" xmlns="http://www.w3.org/2000/svg">
<g clip-path="url(#clip0_14_90)">
<g clip-path="url(#clip1_14_90)">
<path fill-rule="evenodd" clip-rule="evenodd" d="M65.9871 18.5084C68.6869 19.5061 70.2481 20.0813 70.2481 22.6285C70.2481 24.9761 68.5813 26.4903 65.9402 26.4903C63.2991 26.4903 61.421 24.9057 61.421 22.2646V21.9007H57.5826C57.5826 27.0303 61.2332 29.9883 65.9402 29.9883C70.6472 29.9883 74.0747 26.4903 74.0747 22.4759C74.0747 20.4217 73.4291 19.1188 72.3375 17.9567C71.2576 16.8063 69.9077 16.0786 67.6657 15.2452L66.2219 14.7052C63.0409 13.5079 62.0196 12.6158 62.0196 10.8081C62.0196 8.75397 63.5339 7.48625 65.8932 7.48625C68.2526 7.48625 69.8373 8.75397 69.8373 11.0664V11.5359H73.6756C73.6756 6.91108 70.7411 3.98828 65.8932 3.98828C60.6111 3.98828 58.193 7.63885 58.193 10.8903C58.193 12.698 58.7682 14.0009 59.7072 15.1513C60.6463 16.3016 61.9492 16.9942 63.8625 17.7102L65.5998 18.3558L65.9754 18.4966L65.9871 18.5084ZM23.7063 4.3639L14.5858 19.0601L5.51219 4.3639H1.20429V29.6479H4.81964V9.70476L12.919 22.8163H16.2526L24.3871 9.70476V29.6479H28.0025V4.3639H23.6946H23.7063ZM49.6007 19.0601V4.3639H53.2512V19.0249C53.2512 25.9269 49.3072 30 43.3795 30C37.4517 30 33.5077 25.9151 33.5077 19.0249V4.3639H37.1582V19.0601C37.1582 23.6497 39.5411 26.4668 43.3795 26.4668C47.2178 26.4668 49.6007 23.6497 49.6007 19.0601ZM78.6878 29.6479H82.3736V4.3639H78.6878V29.6479ZM91.5998 29.6479V10.0686L104.77 29.6479H108.82V4.3639H105.204V24.0488L91.9989 4.3639H87.9844V29.6479H91.5998ZM125.816 22.6402C125.816 20.0813 124.255 19.5061 121.556 18.5201L121.18 18.3793L119.443 17.7337C117.529 17.0059 116.226 16.3251 115.287 15.1747C114.348 14.0244 113.773 12.7215 113.773 10.9138C113.773 7.66232 116.203 4.01176 121.485 4.01176C126.333 4.01176 129.268 6.93456 129.268 11.5594H125.429V11.0899C125.429 8.77745 123.798 7.50973 121.485 7.50973C119.173 7.50973 117.612 8.77745 117.612 10.8316C117.612 12.6393 118.621 13.5431 121.814 14.7287L123.258 15.2686C125.5 16.1021 126.838 16.8181 127.929 17.9802C129.009 19.1305 129.667 20.4334 129.667 22.4993C129.667 26.5138 126.298 30.0118 121.532 30.0118C116.766 30.0118 113.174 27.0537 113.174 21.9242H117.013V22.2881C117.013 24.9291 118.891 26.5138 121.532 26.5138C124.173 26.5138 125.84 24.9996 125.84 22.6519L125.816 22.6402ZM149.211 22.605H137.919L135.066 29.6479H131.345L141.581 4.3639H145.56L155.796 29.6479H152.075L149.222 22.605H149.211ZM143.565 8.69528L139.374 19.0249H147.767L143.576 8.69528H143.565Z" fill="#0A0F17"/>
</g>
</g>
<defs>
<clipPath id="clip0_14_90">
<rect width="155" height="34" fill="white"/>
</clipPath>
<clipPath id="clip1_14_90">
<rect width="154.591" height="26" fill="white" transform="translate(1.20429 4)"/>
</clipPath>
</defs>
</svg>
