<svg width="68" height="34" viewBox="0 0 68 34" fill="none" xmlns="http://www.w3.org/2000/svg">
<g clip-path="url(#clip0_14_264)">
<g clip-path="url(#clip1_14_264)">
<path d="M66.7647 20.1558C65.863 19.7724 64.3579 19.8505 62.6611 20.8586C62.6611 20.8586 65.6855 12.8929 65.792 12.6302C66.1754 11.6149 66.076 10.8056 65.7068 10.3086C65.5648 10.124 65.3802 9.97493 65.1673 9.87554C64.9543 9.77615 64.72 9.72645 64.4857 9.72645C64.0029 9.72645 63.5272 9.84714 63.1013 10.0743C63.0374 10.1169 62.9877 10.1737 62.9593 10.2376C62.9309 10.3086 62.9238 10.3796 62.938 10.4506C62.9167 11.0328 62.8031 11.6078 62.6114 12.1545C62.0718 13.7661 61.3406 15.3351 61.1489 15.754C60.7229 16.6983 59.5657 19.0198 58.0464 20.2694C57.5281 20.7734 56.8536 21.0858 56.1366 21.1639C55.2988 21.1639 55.2278 19.8576 55.7887 18.4732C55.7887 18.4732 58.0109 12.9142 58.0535 12.7935C59.1326 10.0033 57.166 9.10878 55.2917 10.0601C55.171 10.1169 55.0503 10.2305 55.1426 10.3228C55.4053 10.5997 55.2775 11.3949 54.8444 12.6586C54.8444 12.6586 53.6091 15.9386 52.6507 17.9123C50.9468 21.4408 48.0714 21.5473 49.3138 18.033C49.6191 17.1739 54.603 3.72728 54.603 3.72728C55.1426 2.14407 55.3414 1.12883 54.603 0.440167C53.8647 -0.248495 52.6649 -0.0994029 51.82 0.354972C51.6993 0.418868 51.5431 0.56086 51.6496 0.646056C52.0472 0.965538 51.8981 1.79619 51.5005 3.09542C50.4214 6.13405 46.7438 16.2297 45.8634 18.7997C45.0754 21.0929 46.261 22.3069 47.8726 22.3495C49.0796 22.385 50.9184 21.739 52.6862 19.5523C52.6649 20.2268 52.8991 20.887 53.3464 21.3911C53.7866 21.9023 54.4114 22.2289 55.0858 22.2998C57.4358 22.7542 58.9125 21.1355 59.5018 20.4752C59.6793 20.2836 59.949 19.9712 60.0981 19.8008L59.9703 20.2339C59.7148 20.9225 59.5444 21.4621 59.3101 22.1011L59.1539 22.5199C57.2299 24.0038 55.4266 25.6296 53.7582 27.3974C51.3585 30.0313 51.1029 33.2048 53.3322 33.8509C56.6619 34.788 58.9622 30.5567 61.1347 24.7634L62.0434 22.456L62.1641 22.1437C65.1389 20.1416 67.148 22.0017 67.2261 23.0311C67.2261 23.1731 67.4391 23.1944 67.5243 23.1092C67.7302 22.882 67.8793 22.6122 67.9503 22.314C68.0213 22.0159 68.0213 21.7106 67.9503 21.4124C67.8793 21.1142 67.7231 20.8444 67.5172 20.6172C67.3113 20.3972 67.0487 20.2268 66.7576 20.1274L66.7647 20.1558ZM58.7421 24.2877C56.9033 28.9877 55.2065 32.3103 53.5736 32.147C52.8565 32.076 52.7571 31.295 53.1689 30.3011C54.1842 27.9014 57.8547 24.877 58.7705 24.1457L58.7421 24.2877Z" fill="#591D7C"/>
<path d="M45.8137 10.046C44.2802 9.35729 42.4556 10.2021 40.0702 13.1911C40.6665 11.7002 40.7801 10.7275 40.1767 10.1453C39.417 9.40699 37.99 9.86846 37.564 10.0885C37.4149 10.1666 37.3226 10.2376 37.3794 10.3796C37.6492 10.976 37.209 12.2468 36.7333 13.6029C36.5488 14.1424 36.0731 15.4275 35.5122 16.7551C34.5964 18.9063 32.715 21.0574 31.2596 20.6599C30.7626 20.525 30.5922 19.7866 30.8407 19.0908L33.1906 12.3533C34.071 9.50638 31.721 9.30759 30.4218 10.0247C30.2514 10.1169 30.1165 10.2305 30.1875 10.3299C30.4715 10.7346 30.1875 11.8067 30.0384 12.2752C29.3782 14.0856 28.7037 16.6983 27.2412 18.7856C26.4247 20.0564 25.2746 20.9012 24.4013 20.8515C23.5352 20.8018 23.1589 19.7795 23.7766 17.8981C24.018 17.1456 25.2249 13.8655 25.8923 11.7783C26.5312 9.79037 24.2735 9.32179 22.882 10.0531C22.7684 10.1098 22.6335 10.2234 22.7187 10.3157C22.9743 10.5997 22.9033 11.3878 22.4773 12.5876C21.7532 14.4832 21.1426 16.4214 20.6456 18.3951C20.0635 20.9722 21.1852 22.1934 22.9672 22.3496C24.7492 22.5129 26.5099 21.313 27.6956 19.815C27.6246 20.1061 27.6175 20.4114 27.6814 20.7025C27.7382 20.9935 27.8588 21.2775 28.0363 21.5189C28.2138 21.7603 28.441 21.9662 28.7037 22.1153C28.9664 22.2644 29.2575 22.3567 29.5556 22.378C30.9117 22.4987 32.4665 21.7958 33.9929 20.3404C33.7302 21.5686 34.2769 22.3425 35.6116 22.3496C36.1441 22.378 36.6695 22.2076 37.0741 21.8597C37.0741 21.8455 37.0812 21.8313 37.0812 21.8171C37.0812 21.8029 37.0812 21.7887 37.0741 21.7745C37.0741 21.7319 36.9392 21.5686 37.1664 20.8941C38.0965 18.1182 39.0194 16.1019 39.914 14.8879C40.915 13.539 42.3065 12.4456 43.2721 12.5379C44.2305 12.6302 44.2518 13.7093 43.9323 14.2063C43.762 14.4406 43.8968 14.5542 44.0601 14.5471C46.7793 14.327 47.8016 10.905 45.8208 10.0176L45.8137 10.046Z" fill="#591D7C"/>
<path d="M25.5586 23.308C24.6285 24.1032 23.4287 24.5007 22.2076 24.4227C19.9499 24.2949 18.4874 23.095 17.0958 20.5108C15.8321 18.1608 14.114 14.3412 13.6028 12.9852C17.7348 11.1606 22.4205 7.61079 23.0524 5.09043C23.1447 4.81354 23.1589 4.51536 23.0879 4.23848C23.0169 3.95449 22.8607 3.69891 22.6477 3.50722C22.4205 3.35813 22.2786 3.40782 22.1792 3.50722C21.384 6.41805 14.4335 10.9121 10.5358 11.8422C11.8705 8.11486 13.2337 4.28107 13.3118 3.96869C14.1069 0.823568 12.2255 -0.177477 10.2873 0.0284117C5.10461 0.567982 -0.504071 7.17061 0.0354984 12.6657C0.0922952 13.2053 0.404678 14.2418 1.36312 14.4477C1.68261 14.5329 2.01629 14.4974 2.30737 14.3341C2.59136 14.1779 2.80434 13.9081 2.89664 13.5958C2.89664 13.5745 2.89664 13.5603 2.89664 13.539C2.89664 13.5248 2.88244 13.5035 2.86824 13.4893C2.85404 13.4751 2.83984 13.468 2.82564 13.4609C2.81144 13.4609 2.79014 13.4538 2.76885 13.4609C2.44936 13.5319 1.7962 13.0136 1.63291 12.0906C0.72416 6.77304 7.02861 1.02236 9.79035 1.73942C10.4009 1.91691 10.5642 2.59137 10.2092 3.66341C9.20109 6.52455 5.4383 17.1527 4.47275 19.8931C3.39361 22.9885 5.3247 24.1955 7.43328 23.5636C7.63917 23.4997 7.71017 23.308 7.58238 23.2228C7.04281 22.8536 7.0996 21.5544 7.88056 19.1831C7.93026 19.0341 9.58446 14.5258 9.64126 14.3483L10.6849 13.9791C14.4619 22.7542 16.4498 26.3111 21.7106 25.9562C22.5341 25.9065 23.3435 25.6651 24.0606 25.2533C24.7776 24.8415 25.3953 24.2736 25.8568 23.5849C25.9916 23.4003 25.729 23.1589 25.5657 23.3222L25.5586 23.308Z" fill="#591D7C"/>
</g>
</g>
<defs>
<clipPath id="clip0_14_264">
<rect width="68" height="34" fill="white"/>
</clipPath>
<clipPath id="clip1_14_264">
<rect width="68.0213" height="34" fill="white"/>
</clipPath>
</defs>
</svg>
