<svg width="77" height="16" viewBox="0 0 77 16" fill="none" xmlns="http://www.w3.org/2000/svg">
<g clip-path="url(#clip0_14_139)">
<path d="M44.3973 0H0V16H44.3973V0Z" fill="#2F9482"/>
<path d="M76.6546 0H55.0558V16H76.6546V0Z" fill="#D5953D"/>
<path d="M55.2597 0H44.1934V16H55.2597V0Z" fill="#231F20"/>
<path d="M28.8684 9.41147C28.8684 10.0058 28.6465 10.4887 27.7168 10.4933C26.7871 10.4933 26.5712 10.0058 26.5652 9.41147V5.11664H25.5395V9.41147C25.5395 10.3679 26.2353 11.1248 27.7168 11.1248C29.1983 11.1248 29.8941 10.3679 29.8941 9.41147V5.11664H28.8684V9.41147Z" fill="white"/>
<path d="M9.66281 7.63318H7.35957V5.11664H6.33391V11.0737H7.35957V8.29714H9.66281V11.0737H10.6885V5.11664H9.66281V7.63318Z" fill="white"/>
<path d="M39.5449 9.36968L37.4996 5.12128H35.9701V11.0783H36.9778V6.04525L39.4489 11.0783H40.5466V5.12128H39.5449V9.36968Z" fill="white"/>
<path d="M18.084 7.6471L16.7165 5.12128H15.6488L17.5682 8.56179V11.0783H18.5878V8.54786L20.4712 5.12128H19.4036L18.078 7.6471H18.084Z" fill="white"/>
<path d="M69.355 11.0783H70.3507V5.12128H69.355V11.0783Z" fill="white"/>
<path d="M49.0038 10.4097H48.5719V5.77595H49.0038C50.2754 5.78524 50.9771 6.0824 50.9891 8.09749C50.9771 10.1126 50.2754 10.4051 49.0038 10.4144M49.2017 5.12128H47.5643V11.0783H49.2017C50.0594 11.0783 50.7612 10.9019 51.241 10.4376C51.7269 9.97328 51.9848 9.23039 51.9848 8.09284C51.9848 6.95529 51.7269 6.21704 51.241 5.75274C50.7612 5.28843 50.0594 5.11664 49.1957 5.11664" fill="white"/>
<path d="M59.5543 8.7243L60.412 5.7388L61.2697 8.7243H59.5483H59.5543ZM59.7283 5.12128V5.14449L57.8929 11.069H58.9245L59.4044 9.39754H61.4257L61.9115 11.0737H62.9372L61.1138 5.12128H59.7223H59.7283Z" fill="white"/>
</g>
<defs>
<clipPath id="clip0_14_139">
<rect width="77" height="16" fill="white"/>
</clipPath>
</defs>
</svg>
