<svg width="60" height="16" viewBox="0 0 60 16" fill="none" xmlns="http://www.w3.org/2000/svg">
<g clip-path="url(#clip0_14_197)">
<g clip-path="url(#clip1_14_197)">
<path d="M19.2543 3.84927H24.9888V6.00116H21.6774V6.99826H24.6586V8.95072H21.6774V9.98029H24.9888V12.1322H19.2543V3.84927Z" fill="#CC3136"/>
<path d="M25.5236 7.96754C25.5236 7.28116 26.0771 6.72464 26.77 6.72464C27.463 6.72464 28.0164 7.27652 28.0164 7.96754C28.0164 8.65855 27.463 9.21044 26.77 9.21044C26.0771 9.21044 25.5236 8.65855 25.5236 7.96754Z" fill="#CC3136"/>
<path d="M28.7885 3.84927H31.2115V9.94782H34.4671V12.1322H28.7885V3.84927Z" fill="#CC3136"/>
<path d="M41.1084 12.1275L40.5643 10.4997H37.8203L37.2994 12.1275H34.788L37.7785 3.84927H40.5922L43.6385 12.1275H41.1131H41.1084ZM38.4389 8.55652H39.9178L39.1737 6.29333L38.4389 8.55652Z" fill="#CC3136"/>
<path d="M51.5402 12.1275H49.2287L46.2383 7.68464H46.229V12.1275H43.9268V3.84927H46.2383L49.2287 8.21797H49.238V3.84927H51.5402V12.1275Z" fill="#CC3136"/>
<path d="M60 7.99072C60 10.4858 58.2513 12.1229 55.5399 12.1229H52.6517V3.84927H55.5399C58.2513 3.84927 60 5.50029 60 7.99536V7.99072ZM55.0748 9.94319H55.4841C56.7398 9.94319 57.5537 9.23362 57.5537 7.99072C57.5537 6.74782 56.7444 6.02898 55.4841 6.02898H55.0748V9.94319Z" fill="#CC3136"/>
<path d="M8.02263 0C3.59972 0 0 3.58957 0 8C0 12.4104 3.59972 16 8.02263 16C11.4828 16 14.5431 13.7971 15.636 10.5183L15.6779 10.3884H13.3525L13.3245 10.4441C12.3665 12.4986 10.2876 13.8249 8.02263 13.8249C5.14379 13.8249 2.74397 11.738 2.26494 9.00174H5.15774V12.1229H10.4411L11.1294 10.1565H7.28316V9.00174H15.9848L15.9941 8.91826C16.0313 8.6029 16.0499 8.29681 16.0499 8C16.0453 3.58957 12.4455 0 8.02263 0ZM7.28316 6.99362V5.81565H10.4411L11.1294 3.84928H5.15774V6.99826H2.26494C2.74397 4.26203 5.14379 2.17507 8.02263 2.17507C10.9015 2.17507 13.2966 4.23884 13.7803 6.99826H7.28316V6.99362Z" fill="#CC3136"/>
</g>
</g>
<defs>
<clipPath id="clip0_14_197">
<rect width="60" height="16" fill="white"/>
</clipPath>
<clipPath id="clip1_14_197">
<rect width="60" height="16" fill="white"/>
</clipPath>
</defs>
</svg>
