<svg width="128" height="24" viewBox="0 0 128 24" fill="none" xmlns="http://www.w3.org/2000/svg">
<path d="M10.49 6.66001C9.97 5.31001 9.24 4.53001 7.73 4.53001C6.22 4.53001 4.62 5.78001 4.36 7.57001C4.1 9.26001 5.59 10.04 6.7 10.63L7.78 11.2C9.95 12.32 11.72 13.59 11.27 16.7C10.77 20.13 7.9 22.75 4.81 22.75C1.96 22.75 0.12 20.73 0 17.69L2.01 17.09C1.99 19.09 3.14 20.72 5.05 20.72C6.96 20.72 8.94 19.11 9.27 16.91C9.6 14.63 8.07 13.85 6.53 13.02L5.54 12.5C3.61 11.46 1.98 10.29 2.38 7.49001C2.83 4.45001 5.42 2.51001 8.07 2.51001C10.05 2.51001 11.59 3.63001 12.25 5.55001L10.5 6.67001L10.49 6.66001Z" fill="#2D2D2D"/>
<path d="M15.3199 22.41H13.4299L14.9199 12.13H13.7699L14.0299 10.21H15.1799L15.8199 5.83002H17.6999L17.0699 10.21H19.0499L18.7899 12.13H16.8099L15.3199 22.41Z" fill="#2D2D2D"/>
<path d="M21.53 17.01C21.22 19.06 21.2 20.82 23.49 20.82C25.78 20.82 26.23 19.06 26.53 17.01L27.5 10.21H29.39L28.4 17.24C27.93 20.48 26.49 22.74 23.21 22.74C19.93 22.74 19.15 20.48 19.62 17.24L20.61 10.21H22.5L21.53 17.01Z" fill="#2D2D2D"/>
<path d="M39.55 20.72H39.5C38.39 22.04 36.91 22.74 35.4 22.74C32.14 22.74 30.52 19.7 31.01 16.33C31.51 12.85 33.96 9.87 37.28 9.87C38.77 9.87 40.06 10.65 40.77 11.95H40.82L42.4 1H44.29L41.2 22.41H39.31L39.55 20.72ZM32.97 16.18C32.62 18.57 33.58 20.82 35.94 20.82C38.3 20.82 39.95 18.67 40.3 16.2C40.65 13.76 39.55 11.79 37.21 11.79C35.02 11.79 33.29 13.89 32.96 16.18" fill="#2D2D2D"/>
<path d="M46.93 22.41H45.04L46.79 10.21H48.68L46.93 22.41ZM49.74 5.62001C49.62 6.45001 48.91 7.10001 48.18 7.10001C47.45 7.10001 46.93 6.45001 47.05 5.62001C47.17 4.82001 47.9 4.14001 48.63 4.14001C49.36 4.14001 49.86 4.81001 49.74 5.62001Z" fill="#2D2D2D"/>
<path d="M50.7499 16.34C51.2699 12.76 54.2699 9.88 57.5199 9.88C60.7699 9.88 62.9199 12.76 62.3999 16.34C61.8799 19.92 58.8899 22.75 55.6499 22.75C52.4099 22.75 50.2199 19.92 50.7399 16.34M52.6399 16.31C52.2899 18.8 53.6099 20.82 55.9399 20.82C58.2699 20.82 60.1599 18.8 60.5199 16.31C60.8699 13.84 59.5799 11.79 57.2399 11.79C54.8999 11.79 52.9899 13.84 52.6399 16.31Z" fill="#2D2D2D"/>
<path d="M73.66 20.38H78.56L78.28 22.41H71.39L74.2 2.84003H76.18L73.66 20.38Z" fill="#2D2D2D"/>
<path d="M99.2999 12.65C98.4699 18.28 93.6399 22.74 88.5699 22.74C83.4999 22.74 79.9399 18.28 80.7599 12.65C81.5599 7.05 86.3999 2.5 91.4699 2.5C96.5399 2.5 100.1 7.04 99.2999 12.65ZM82.7399 12.62C82.0999 17.03 84.8199 20.72 88.8499 20.72C92.8799 20.72 96.6799 17.04 97.3199 12.62C97.9599 8.18 95.2699 4.52 91.1899 4.52C87.1099 4.52 83.3799 8.18 82.7399 12.62Z" fill="#2D2D2D"/>
<path d="M106.61 17.5L114.63 1.83002L118.12 17.5L124.89 2.84002H127.04L117.27 23.42L113.78 7.67002L105.76 23.42L101.89 2.84002H104.04L106.61 17.5Z" fill="#2D2D2D"/>
</svg>
