<svg width="180" height="48" viewBox="0 0 180 48" fill="none" xmlns="http://www.w3.org/2000/svg">
<g clip-path="url(#clip0_17_451)">
<path d="M85.6311 12.9119C79.4902 12.9119 74.5084 17.8807 74.5084 24.0056C74.5084 30.1304 79.4791 35.0992 85.6311 35.0992C91.7832 35.0992 96.7539 30.1415 96.7539 24.0056C96.7539 17.8696 91.7721 12.9119 85.6311 12.9119ZM85.6311 29.8525C82.3879 29.8525 79.7689 27.2292 79.7689 24.0056C79.7689 20.782 82.3991 18.1586 85.6311 18.1586C88.8632 18.1586 91.4934 20.782 91.4934 24.0056C91.4934 27.2292 88.8632 29.8525 85.6311 29.8525Z" fill="#006EBB"/>
<path d="M127.726 12.9119C121.585 12.9119 116.603 17.8807 116.603 24.0056C116.603 30.1304 121.585 35.0992 127.726 35.0992C133.867 35.0992 138.849 30.1415 138.849 24.0056C138.849 17.8696 133.867 12.9119 127.726 12.9119ZM127.726 29.8525C124.483 29.8525 121.864 27.2292 121.864 24.0056C121.864 20.782 124.494 18.1586 127.726 18.1586C130.958 18.1586 133.588 20.782 133.588 24.0056C133.588 27.2292 130.969 29.8525 127.726 29.8525Z" fill="#006EBB"/>
<path d="M106.673 13.6011H101.256V34.3989H113.85V29.5746H106.673V13.6011Z" fill="#006EBB"/>
<path d="M66.6623 13.6011L60.0979 22.227V13.6011H54.6702V34.3989H60.0979V25.773L66.6623 34.3989H73.4385L65.1354 23.9945L73.4385 13.6011H66.6623Z" fill="#006EBB"/>
<path d="M157.584 13.6011V25.4951H157.528L148.835 13.6011H143.362V34.3989H148.779V21.6713H148.846L158.141 34.3989H163V13.6011H157.584Z" fill="#006EBB"/>
<path d="M22.4165 13.0898C21.8258 12.0449 22.6617 11 23.6313 11H40.1482C41.5079 11 41.8757 12.2894 41.3296 13.1676L38.3539 18.3031C37.8747 19.2591 36.6821 19.2146 36.1583 18.3365L33.2829 13.3454C32.4916 12.0004 31.3771 11.9782 30.5524 13.3454L27.7327 18.2031C27.3315 18.9367 27.9556 20.0261 28.9475 20.0261H45.4533C46.6012 20.0261 47.1473 21.2933 46.6904 22.1047C46.6904 22.1047 39.1229 35.1881 38.5099 36.233C37.8969 37.289 36.4592 37.2334 35.8686 36.2441L32.9708 31.3198C32.3802 30.2749 33.1826 29.0522 34.1522 29.0522H40.3043C41.2293 29.0522 41.7643 28.0962 41.2405 27.1736L38.5434 22.4271C37.8301 21.2266 36.7044 21.1599 35.9577 22.3715C35.9577 22.3715 28.4682 35.2326 27.8887 36.233C27.3092 37.2223 26.1389 37.3112 25.5037 36.233C24.8573 35.1437 17.2229 22.1492 17.2229 22.1492C16.5765 20.9932 17.4792 20.0261 18.4934 20.0261H24.2108C25.6263 20.0261 26.0163 21.2599 25.4591 22.1603L22.5057 27.2847C22.071 28.0628 22.762 29.0744 23.7205 29.0633H29.6942C30.6081 29.0744 31.2099 28.2407 30.675 27.307L22.4165 13.0898Z" fill="#E50012"/>
</g>
<defs>
<clipPath id="clip0_17_451">
<rect width="146" height="26" fill="white" transform="translate(17 11)"/>
</clipPath>
</defs>
</svg>
