<svg width="180" height="48" viewBox="0 0 180 48" fill="none" xmlns="http://www.w3.org/2000/svg">
<g clip-path="url(#clip0_17_297)">
<path d="M43.95 12V23.89L35.81 12H27V35.57H35.78V23.68L43.92 35.57H52.73V12H43.95Z" fill="#3BAB36"/>
<path d="M146.9 26.75C150.02 25.88 152.03 23.63 152.03 20.02C152.03 13.95 147.21 12 140.86 12H129.9V35.57H138.67V28.21L143.91 35.57H154L146.9 26.75ZM142.59 21.95C142.08 22.36 141.09 22.57 140.28 22.57H138.4V17.93H140.25C141.14 17.93 142.15 18.14 142.64 18.56C143.13 18.98 143.35 19.56 143.35 20.29C143.35 21.02 143.11 21.54 142.6 21.95H142.59Z" fill="#3BAB36"/>
<path d="M108.51 12H126.3V18.14H117.2V20.91H125.58V26.7H117.2V29.43H126.58V35.57H108.51V12Z" fill="#3BAB36"/>
<path d="M73.85 12H63.84L54.61 35.57H64.37L65.22 32.49H72.47L73.32 35.57H83.08L73.85 12ZM66.66 27.05L68.73 19.27H68.97L71.04 27.05H66.67H66.66Z" fill="#3BAB36"/>
<path d="M97.06 12L92.73 26.21H92.49L88.17 12H78.59L88.47 35.57H96.75L106.63 12H97.06Z" fill="#3BAB36"/>
</g>
<defs>
<clipPath id="clip0_17_297">
<rect width="127" height="23.57" fill="white" transform="translate(27 12)"/>
</clipPath>
</defs>
</svg>
