<svg width="180" height="48" viewBox="0 0 180 48" fill="none" xmlns="http://www.w3.org/2000/svg">
<g clip-path="url(#clip0_17_311)">
<path d="M90.2363 16.9744C89.7329 19.1241 88.0908 20.5653 86.5685 20.217C85.0342 19.8567 84.1952 17.8391 84.6866 15.6894C85.1901 13.5517 86.8202 12.0985 88.3545 12.4588C89.8887 12.8191 90.7277 14.8367 90.2363 16.9744Z" fill="#EE782F"/>
<path d="M7.19521 24.3242C7.69863 21.49 8.04623 19.4964 9.74829 19.4964C11.4503 19.4964 11.1027 21.478 10.6113 24.3242C10.1079 27.1585 9.76027 29.1401 8.05822 29.1401C6.35616 29.1401 6.70377 27.1585 7.20719 24.3242M3.21575 24.3242C2.55651 28.0112 3.22774 31.8182 7.59075 31.8182C11.9538 31.8182 13.9555 28.0112 14.6027 24.3242C15.262 20.6373 14.5908 16.8182 10.2397 16.8182C5.8887 16.8182 3.86301 20.6373 3.21575 24.3242Z" fill="#231815"/>
<path d="M20.8356 17.1065H24.5274L22.4418 28.984H27.4521L27.0086 31.5421H18.2945L20.8356 17.1065Z" fill="#231815"/>
<path d="M33.1455 17.1065H36.8493L34.3082 31.5421H30.6164L33.1455 17.1065Z" fill="#231815"/>
<path d="M41.488 17.1065H45.2158L45.1678 27.1585H45.2038L49.4349 17.1065H52.5154L45.9829 31.5421H42.2192L41.488 17.1065Z" fill="#231815"/>
<path d="M107.676 25.9216L105.579 17.1065H109.438L110.373 22.7871L113.693 17.1065H116.978L111.416 25.7174L110.385 31.5421H106.693L107.676 25.9216Z" fill="#231815"/>
<path d="M122.803 24.3242C123.306 21.49 123.654 19.4964 125.356 19.4964C127.058 19.4964 126.711 21.478 126.207 24.3242C125.704 27.1585 125.356 29.1401 123.654 29.1401C121.952 29.1401 122.3 27.1585 122.791 24.3242M118.824 24.3242C118.176 28.0112 118.836 31.8182 123.187 31.8182C127.538 31.8182 129.551 28.0112 130.199 24.3242C130.858 20.6373 130.187 16.8182 125.836 16.8182C121.485 16.8182 119.471 20.6253 118.824 24.3242Z" fill="#231815"/>
<path d="M144.918 26.9544C144.354 30.197 142.233 31.8183 139.009 31.8183C135.784 31.8183 134.478 30.0529 135.017 26.9544L136.755 17.1065H140.459L138.697 27.1225C138.505 28.2154 138.709 29.1521 139.943 29.1521C141.178 29.1521 141.67 28.0232 141.849 26.9424L143.575 17.1185H146.656L144.918 26.9664V26.9544Z" fill="#231815"/>
<path d="M152.337 17.1065H156.101L158.618 25.4051L158.666 25.7654L158.654 25.4051L160.092 17.1065H162.837L160.296 31.5421H156.604L154.063 23.1233L154.027 22.8111V23.1233L152.601 31.5421H149.796L152.337 17.1065Z" fill="#231815"/>
<path d="M100.652 24C100.652 32.2866 93.9521 39 85.6815 39C77.411 39 70.7106 32.2866 70.7106 24C70.7106 15.7134 77.411 9 85.6815 9C93.9521 9 100.652 15.7134 100.652 24ZM88.714 10.8495C84.363 9.84067 79.4726 14.9327 77.8065 22.2226C76.1284 29.5004 78.286 36.2258 82.637 37.2346C86.988 38.2434 91.8664 33.1513 93.5445 25.8615C95.2226 18.5837 93.0651 11.8583 88.714 10.8495Z" fill="#D7DA00"/>
<path d="M178 24.6605H172.522L172.199 26.45H173.805C173.613 27.8431 172.798 29.1521 171.539 29.1521C169.813 29.1521 169.993 27.3146 170.521 24.3483C171 21.6821 171.599 19.5084 173.158 19.5084C174.536 19.5084 174.476 20.5652 174.272 22.2586H177.844C178.408 19.052 177.173 16.8303 173.541 16.8303C169.046 16.8303 167.14 20.8655 166.469 24.6966C165.726 28.8759 166.769 31.8303 170.592 31.8303C171.707 31.8303 173.062 31.3619 174.045 30.4251L174.524 31.7582H176.058L177.101 25.8615H177.772L177.988 24.6485L178 24.6605Z" fill="#231815"/>
<path d="M59.2997 25.6213H62.9914L63.4949 22.8231H59.7911L60.3065 19.9047H65.2209L65.7243 17.1065H57.0942L54.5531 31.5421H63.7705L64.274 28.6237H58.7723L59.2997 25.6213Z" fill="#231815"/>
</g>
<defs>
<clipPath id="clip0_17_311">
<rect width="175" height="30" fill="white" transform="translate(3 9)"/>
</clipPath>
</defs>
</svg>
