<svg width="180" height="48" viewBox="0 0 180 48" fill="none" xmlns="http://www.w3.org/2000/svg">
<g clip-path="url(#clip0_17_414)">
<path d="M130.448 27.8983C129.335 27.4247 127.476 27.5212 125.381 28.7666C125.381 28.7666 129.116 18.9265 129.247 18.602C129.72 17.3479 129.598 16.3481 129.142 15.7342C128.966 15.5062 128.739 15.322 128.476 15.1992C128.212 15.0764 127.923 15.0151 127.634 15.0151C127.038 15.0151 126.45 15.1642 125.924 15.4448C125.845 15.4974 125.784 15.5676 125.749 15.6465C125.714 15.7342 125.705 15.8219 125.723 15.9096C125.696 16.6288 125.556 17.3391 125.319 18.0144C124.653 20.0052 123.75 21.9434 123.513 22.4609C122.987 23.6273 121.558 26.4951 119.682 28.0387C119.042 28.6613 118.209 29.0472 117.323 29.1437C116.289 29.1437 116.201 27.53 116.894 25.8198C116.894 25.8198 119.638 18.9528 119.691 18.8037C121.023 15.3571 118.595 14.2521 116.28 15.4273C116.131 15.4974 115.982 15.6377 116.096 15.7517C116.42 16.0938 116.263 17.076 115.728 18.6371C115.728 18.6371 114.202 22.6889 113.019 25.127C110.915 29.4857 107.364 29.6173 108.898 25.2761C109.275 24.2149 115.43 7.60433 115.43 7.60433C116.096 5.64859 116.342 4.39447 115.43 3.54377C114.518 2.69307 113.036 2.87724 111.993 3.43853C111.844 3.51746 111.651 3.69286 111.782 3.7981C112.273 4.19276 112.089 5.21886 111.598 6.82379C110.266 10.5774 105.724 23.0485 104.637 26.2232C103.664 29.056 105.128 30.5557 107.118 30.6083C108.609 30.6521 110.879 29.8541 113.063 27.1529C113.036 27.986 113.326 28.8017 113.878 29.4243C114.421 30.0558 115.193 30.4592 116.026 30.5469C118.928 31.1082 120.751 29.1086 121.479 28.293C121.698 28.0562 122.032 27.6703 122.216 27.4598L122.058 27.9948C121.742 28.8455 121.532 29.512 121.242 30.3013L121.05 30.8188C118.674 32.6517 116.447 34.6601 114.386 36.8438C111.423 40.0975 111.107 44.0178 113.86 44.8159C117.972 45.9735 120.813 40.7465 123.496 33.5901L124.618 30.7398L124.767 30.354C128.44 27.8808 130.922 30.1786 131.018 31.4502C131.018 31.6256 131.281 31.6519 131.386 31.5467C131.641 31.2661 131.825 30.9328 131.912 30.5644C132 30.1961 132 29.819 131.912 29.4506C131.825 29.0823 131.632 28.749 131.378 28.4684C131.123 28.1965 130.799 27.986 130.439 27.8633L130.448 27.8983ZM120.541 33.0025C118.27 38.8083 116.175 42.9127 114.158 42.711C113.273 42.6233 113.15 41.6586 113.659 40.4308C114.912 37.4665 119.445 33.7304 120.576 32.8271L120.541 33.0025Z" fill="#591D7C"/>
<path d="M104.576 15.4097C102.682 14.559 100.429 15.6026 97.4829 19.2949C98.2194 17.4531 98.3597 16.2516 97.6144 15.5325C96.6763 14.6204 94.9141 15.1904 94.3881 15.4623C94.2039 15.5588 94.09 15.6465 94.1601 15.8219C94.4933 16.5586 93.9497 18.1284 93.3623 19.8035C93.1343 20.47 92.5469 22.0574 91.8543 23.6974C90.7233 26.3548 88.4 29.0121 86.6026 28.521C85.9889 28.3544 85.7785 27.4423 86.0854 26.5828L88.9874 18.26C90.0745 14.7432 87.1725 14.4976 85.5681 15.3834C85.3577 15.4974 85.1911 15.6377 85.2788 15.7605C85.6295 16.2604 85.2788 17.5847 85.0947 18.1635C84.2793 20.3999 83.4464 23.6273 81.6403 26.2057C80.6321 27.7755 79.2118 28.8192 78.1334 28.7578C77.0638 28.6964 76.5991 27.4335 77.3619 25.1094C77.66 24.1798 79.1504 20.128 79.9745 17.5496C80.7636 15.094 77.9756 14.5152 76.2572 15.4185C76.1169 15.4886 75.9503 15.629 76.0555 15.743C76.3712 16.0938 76.2835 17.0672 75.7574 18.5494C74.8632 20.891 74.1092 23.2852 73.4955 25.7233C72.7765 28.9069 74.1618 30.4153 76.3624 30.6083C78.563 30.81 80.7373 29.3278 82.2014 27.4774C82.1138 27.8369 82.105 28.214 82.1839 28.5736C82.254 28.9332 82.4031 29.284 82.6223 29.5822C82.8415 29.8804 83.122 30.1347 83.4464 30.3189C83.7708 30.503 84.1303 30.6171 84.4985 30.6434C86.1731 30.7925 88.0931 29.9242 89.9781 28.1263C89.6537 29.6436 90.3288 30.5995 91.977 30.6083C92.6346 30.6434 93.2834 30.4329 93.7831 30.0031C93.7831 29.9856 93.7919 29.9681 93.7919 29.9505C93.7919 29.933 93.7919 29.9154 93.7831 29.8979C93.7831 29.8453 93.6165 29.6436 93.8971 28.8104C95.0456 25.3813 96.1854 22.8906 97.2901 21.3909C98.5263 19.7246 100.245 18.374 101.437 18.488C102.621 18.602 102.647 19.9351 102.252 20.549C102.042 20.8384 102.209 20.9787 102.41 20.9699C105.768 20.6981 107.031 16.4709 104.584 15.3746L104.576 15.4097Z" fill="#591D7C"/>
<path d="M79.5625 31.7922C78.4139 32.7745 76.9323 33.2656 75.4243 33.1691C72.6363 33.0113 70.8302 31.5291 69.1118 28.3368C67.5512 25.4339 65.4295 20.7156 64.7982 19.0405C69.9008 16.7866 75.6873 12.4016 76.4676 9.28817C76.5816 8.94614 76.5991 8.57779 76.5114 8.23576C76.4238 7.88495 76.2309 7.56923 75.9679 7.33244C75.6873 7.14827 75.5119 7.20966 75.3892 7.33244C74.4073 10.9282 65.824 16.4797 61.0107 17.6285C62.659 13.0242 64.3423 8.28838 64.4388 7.90249C65.4207 4.01734 63.0974 2.78076 60.7039 3.03509C54.3037 3.70162 47.3775 11.8578 48.0438 18.6459C48.114 19.3124 48.4997 20.5928 49.6833 20.8472C50.0779 20.9524 50.4899 20.9086 50.8494 20.7068C51.2001 20.5139 51.4631 20.1806 51.5771 19.7947C51.5771 19.7684 51.5771 19.7509 51.5771 19.7246C51.5771 19.707 51.5595 19.6807 51.542 19.6632C51.5245 19.6457 51.5069 19.6369 51.4894 19.6281C51.4719 19.6281 51.4456 19.6193 51.4193 19.6281C51.0247 19.7158 50.2181 19.0756 50.0165 17.9355C48.8943 11.3667 56.6797 4.2629 60.0902 5.14868C60.8442 5.36794 61.0458 6.2011 60.6075 7.52538C59.3625 11.0597 54.7158 24.1886 53.5234 27.5738C52.1908 31.3976 54.5755 32.8885 57.1794 32.108C57.4337 32.029 57.5213 31.7922 57.3635 31.687C56.6972 31.231 56.7674 29.626 57.7318 26.6968C57.7931 26.5126 59.8359 20.9436 59.9061 20.7244L61.1949 20.2683C65.8591 31.1082 68.314 35.502 74.8106 35.0635C75.8276 35.0021 76.8271 34.7039 77.7126 34.1952C78.5981 33.6866 79.3608 32.985 79.9307 32.1343C80.0973 31.9063 79.7729 31.6081 79.5712 31.8098L79.5625 31.7922Z" fill="#591D7C"/>
</g>
<defs>
<clipPath id="clip0_17_414">
<rect width="84" height="42" fill="white" transform="translate(48 3)"/>
</clipPath>
</defs>
</svg>
