<svg width="180" height="48" viewBox="0 0 180 48" fill="none" xmlns="http://www.w3.org/2000/svg">
<g clip-path="url(#clip0_17_346)">
<path d="M107.844 22.5538C125.206 13.6872 123.028 5.20945 105.36 3.4551C86.3232 1.56799 58.5141 5.64566 39.1343 13.4501L36.4514 14.5976C16.2724 23.5874 18.1847 33.1083 36.1945 34.8437C55.8787 36.7403 85.7999 32.8617 105.389 23.7676L107.834 22.5443L107.844 22.5538Z" fill="#004093"/>
<path d="M104.095 24.2892C104.095 24.2892 100.775 24.5548 100.699 21.8901V16.7313C100.699 16.7313 100.29 13.8864 104 13.8864C104 13.8864 106.417 13.8106 107.064 15.2425C107.064 15.2425 107.378 15.6218 107.292 17.2055H104.714V16.3994C104.714 16.3994 104.714 15.7451 104.038 15.7451C104.038 15.7451 103.334 15.7735 103.334 16.3236V21.653C103.334 21.653 103.306 22.3737 104.095 22.3737C104.095 22.3737 104.742 22.3547 104.742 21.6056V20.0598H104.038V18.6279H107.349V21.653C107.349 21.653 107.349 22.2883 107.073 22.6582C107.073 22.6582 106.807 23.0659 106.702 23.1418C106.702 23.1418 105.808 24.2798 104.086 24.2798" fill="white"/>
<path d="M97.2739 14.2752H94.6956L94.8764 20.1831H94.7717L92.1554 14.2847H89.0253V24.0142H91.5751L91.4133 18.0589H91.5275L94.239 24.0142H97.2739V14.2752Z" fill="white"/>
<path d="M81.3001 14.2373H78.5125V21.5392C78.5125 21.5392 78.2271 24.2987 82.1373 24.2987C82.1373 24.2987 85.5338 24.3366 85.5338 21.6625V14.2373H82.8033V21.5771C82.8033 21.5771 82.8413 22.3832 82.0897 22.3832C82.0897 22.3832 81.3001 22.4211 81.3001 21.5961V14.2373Z" fill="white"/>
<path d="M75.3063 17.2529V16.0296C75.3063 16.0296 75.4966 14.0287 72.2714 13.9434C72.2714 13.9434 69.7312 13.7727 69.0081 15.1382C69.0081 15.1382 68.7227 15.4417 68.7227 16.5037V17.2719C68.7227 17.2719 68.6942 18.1538 69.1413 18.7228C69.1413 18.7228 69.3982 19.0926 70.0261 19.5098C70.0261 19.5098 71.301 20.1926 72.0716 20.5909C72.0716 20.5909 72.8422 21.0271 72.7471 21.7289C72.7471 21.7289 72.6805 22.4496 71.9384 22.4211C71.9384 22.4211 71.2534 22.3927 71.2534 21.6909V20.8659H68.5134V22.0702C68.5134 22.0702 68.4373 24.3746 71.9574 24.3746C71.9574 24.3746 75.3158 24.441 75.4776 22.0133V21.0366C75.4776 21.0366 75.5917 19.5478 74.2883 18.7607C74.2883 18.7607 73.5938 18.3245 73.1562 18.1633C73.1562 18.1633 71.8147 17.5469 71.5579 17.2529C71.5579 17.2529 71.0346 16.7598 71.339 16.1908C71.339 16.1908 71.4627 15.821 72.0145 15.821C72.0145 15.821 72.7281 15.8589 72.7281 16.4469V17.2719H75.2968L75.3063 17.2529Z" fill="white"/>
<path d="M54.9466 14.2752L54.7373 24.0142H57.2775L57.306 16.6744H57.5058L58.8568 24.0142H61.5302L62.8622 16.6839H63.0334L63.1 24.0142H65.6497L65.3833 14.2752H61.1306L60.2649 19.6046H60.0651L59.2374 14.2752H54.9466Z" fill="white"/>
<path d="M52.0068 24.0047L50.3133 14.2657H45.994L44.3006 24.0047H47.0406L48.0395 16.4563H48.2678L49.2668 24.0047H52.0068Z" fill="white"/>
<path d="M41.6176 17.2529V16.0296C41.6176 16.0296 41.8079 14.0287 38.5827 13.9434C38.5827 13.9434 36.0425 13.7727 35.3194 15.1382C35.3194 15.1382 35.034 15.4417 35.034 16.5037V17.2719C35.034 17.2719 35.0055 18.1538 35.4526 18.7228C35.4526 18.7228 35.7095 19.0926 36.3374 19.5098C36.3374 19.5098 37.6123 20.1926 38.3829 20.5909C38.3829 20.5909 39.1535 21.0271 39.0584 21.7289C39.0584 21.7289 38.9918 22.4496 38.2497 22.4211C38.2497 22.4211 37.5647 22.3927 37.5647 21.6909V20.8659H34.8247V22.0702C34.8247 22.0702 34.7486 24.3746 38.2688 24.3746C38.2688 24.3746 41.6272 24.441 41.7889 22.0133V21.0366C41.7889 21.0366 41.9031 19.5478 40.5997 18.7607C40.5997 18.7607 39.8956 18.3245 39.4675 18.1633C39.4675 18.1633 38.126 17.5469 37.8692 17.2529C37.8692 17.2529 37.3459 16.7598 37.6503 16.1908C37.6503 16.1908 37.7835 15.821 38.3258 15.821C38.3258 15.821 39.0394 15.8589 39.0394 16.4469V17.2719H41.6081L41.6176 17.2529Z" fill="white"/>
<path d="M119.803 30.7092V37.9826H121.563V35.2705H123.123V33.7816H121.591V30.7092H119.803Z" fill="#004098"/>
<path d="M113.172 38.5706H121.591V44.5164H113.172V38.5706ZM119.869 40.0215H114.894V43.0655H119.869V40.0215Z" fill="#004098"/>
<path d="M133.731 30.7092V37.9826H131.971V34.6446H129.688V33.1558H131.933V30.7092H133.731Z" fill="#004098"/>
<path d="M129.355 45C126.738 45 124.617 43.4069 124.617 41.4439C124.617 39.4809 126.738 37.8973 129.355 37.8973C131.971 37.8973 134.093 39.4904 134.093 41.4439C134.093 43.3974 131.971 45 129.355 45ZM132.295 41.4439C132.295 40.3439 130.972 39.462 129.355 39.462C127.737 39.462 126.405 40.3534 126.405 41.4439C126.405 42.5344 127.728 43.4258 129.355 43.4258C130.982 43.4258 132.295 42.5344 132.295 41.4439Z" fill="#004098"/>
<path d="M115.579 30.9747C115.579 30.9747 115.341 34.9102 118.537 36.5412L117.615 37.8025C117.615 37.8025 115.274 36.2662 114.741 34.5783C114.209 36.2662 111.868 37.8025 111.868 37.8025L110.945 36.5412C114.142 34.9102 113.904 30.9747 113.904 30.9747H115.56H115.579Z" fill="#004098"/>
<path d="M126.653 34.5783C126.12 36.2662 123.979 37.6697 123.979 37.6697L123.057 36.4085C126.063 34.9102 125.825 30.9747 125.825 30.9747H127.48C127.48 30.9747 127.243 34.9102 130.249 36.4085L129.326 37.6697C129.326 37.6697 127.186 36.2567 126.653 34.5783Z" fill="#004098"/>
<path d="M154.291 31.0316H147.507V32.5015H154.291V31.0316Z" fill="#004098"/>
<path d="M157.278 30.4152H155.556V44.725H157.278V30.4152Z" fill="#004098"/>
<path d="M159 35.6119H156.46V37.0817H159V35.6119Z" fill="#004098"/>
<path d="M145.909 30.4532H144.187V39.9741H145.909V30.4532Z" fill="#004098"/>
<path d="M145.319 33.6964H141.951V35.1662H145.319V33.6964Z" fill="#004098"/>
<path d="M142.731 31.0222H135.72V32.492H142.731V31.0222Z" fill="#004098"/>
<path d="M138.983 38.4852H137.261V44.4974H138.983V38.4852Z" fill="#004098"/>
<path d="M140.21 31.5816C140.21 31.5816 140.21 31.6385 140.201 31.7428C140.239 33.0609 139.725 35.2989 143.283 37.0343L142.389 38.2576C142.389 38.2576 139.82 36.8826 139.202 35.1567C138.593 36.8826 136.014 38.2576 136.014 38.2576L135.12 37.0343C138.688 35.3084 138.174 33.0704 138.203 31.7428C138.203 31.6385 138.193 31.5816 138.193 31.5816H140.201H140.21Z" fill="#004098"/>
<path d="M151.693 32.2644V33.3455C151.779 36.5222 151.884 38.8266 154.662 41.2732L153.53 42.5155C153.53 42.5155 151.189 40.3534 150.847 38.4094C150.495 40.3534 148.164 42.5155 148.164 42.5155L147.032 41.2732C149.81 38.8171 149.914 36.5128 150 33.3455V32.2644H151.712H151.693Z" fill="#004098"/>
<path d="M145.947 43.0275H138.174V44.4974H145.947V43.0275Z" fill="#004098"/>
</g>
<defs>
<clipPath id="clip0_17_346">
<rect width="137" height="42" fill="white" transform="translate(22 3)"/>
</clipPath>
</defs>
</svg>
